<svg width="148" height="48" viewBox="0 0 148 48" fill="none" xmlns="http://www.w3.org/2000/svg">
<g clip-path="url(#clip0_1097_40827)">
<path d="M14.1316 25.978H12.5L18.1584 12.2461H19.625L25.2313 25.9868H23.5824L18.9568 14.3824H18.7485L14.1316 25.978Z" fill="#444444"/>
<path d="M28.5977 12.2461H30.1164V24.6241H35.2888V25.978H28.5977V12.2461Z" fill="#444444"/>
<path d="M41.9974 12.2461C43.9067 12.2461 44.8006 12.4659 45.6424 13.1164C46.5362 13.8197 47.0917 15.1032 47.0917 16.3868C47.0917 17.6703 46.5189 19.0065 45.6944 19.6571C44.8006 20.3604 43.8806 20.589 42.1189 20.589H39.9406V25.9868H38.4219V12.2461H41.9974ZM39.9406 19.2263H42.1015C43.2384 19.2263 43.9327 19.0944 44.6096 18.6549C45.1998 18.2681 45.6163 17.389 45.6163 16.4307C45.6163 15.4725 45.1998 14.5758 44.5923 14.189C43.9153 13.7406 43.2211 13.6175 42.0668 13.6175H39.9406V19.2439V19.2263Z" fill="#444444"/>
<path d="M50.5117 25.978V12.2461H52.0131V18.356H58.5567V12.2461H60.0754V25.9868H58.5567V19.7098H52.0131V25.9868H50.5117V25.978Z" fill="#444444"/>
<path d="M88.9903 23.7098L88.973 12.2373H90.4396V25.978H88.973L80.928 14.4175L80.9628 25.978H79.4961V12.2461H81.0322L88.9903 23.7186V23.7098Z" fill="#444444"/>
<path d="M94.3477 19.1473C94.3477 14.9187 97.5934 12 101.421 12C105.248 12 108.494 15.0857 108.494 19.1121C108.494 23.1385 105.413 26.2242 101.421 26.2242C97.4285 26.2242 94.3477 23.0857 94.3477 19.1736V19.156V19.1473ZM95.8664 19.1121C95.8664 22.3385 98.2703 24.8703 101.438 24.8703C104.606 24.8703 106.992 22.2505 106.992 19.1121C106.992 15.9736 104.649 13.3538 101.421 13.3538C98.1922 13.3538 95.8664 15.9121 95.8664 19.0857V19.1033V19.1121Z" fill="#444444"/>
<path d="M110.375 12.2461H111.972L116.459 23.9999L120.963 12.2461H122.56L117.17 25.9868H115.721L110.375 12.2461Z" fill="#444444"/>
<path d="M65.0651 25.978H63.4336L69.092 12.2461H70.5586L76.1649 25.9868H74.516L69.8817 14.3911H69.6734L65.0565 25.9868L65.0651 25.978Z" fill="#444444"/>
<path d="M124.401 25.978H122.77L128.428 12.2373H129.895L135.501 25.978H133.852L129.218 14.3824H129.009L124.392 25.978H124.401Z" fill="#444444"/>
<path d="M17.8301 34.8923C17.5177 35.4373 16.7713 36 15.7993 36C14.4715 36 13.3867 34.9714 13.3867 33.5648C13.3867 32.1582 14.4715 31.1296 15.7993 31.1296C16.7887 31.1296 17.4916 31.7274 17.8388 32.2637H17.6218C17.4482 32.0175 16.8408 31.3055 15.808 31.3055C14.5757 31.3055 13.5863 32.2637 13.5863 33.5736C13.5863 34.8835 14.5757 35.8417 15.808 35.8417C16.8928 35.8417 17.4916 35.0945 17.6218 34.9099H17.8388L17.8301 34.8923Z" fill="#444444"/>
<path d="M19.5898 33.556C19.5898 32.1494 20.6747 31.1208 22.0025 31.1208C23.3303 31.1208 24.4151 32.1494 24.4151 33.556C24.4151 34.9626 23.3303 35.9912 22.0025 35.9912C20.6747 35.9912 19.5898 34.9626 19.5898 33.556ZM19.7808 33.5648C19.7808 34.8659 20.7701 35.8241 22.0025 35.8241C23.2348 35.8241 24.2241 34.8659 24.2241 33.556C24.2241 32.2461 23.2348 31.2879 22.0025 31.2879C20.7701 31.2879 19.7808 32.2461 19.7808 33.556V33.5648Z" fill="#444444"/>
<path d="M26.4019 34.734C26.5147 35.6395 27.1916 35.8329 27.5474 35.8329C28.1289 35.8329 28.719 35.3846 28.719 34.7164C28.719 33.8549 27.9813 33.6703 27.5301 33.556C27.1222 33.4505 26.3151 33.2571 26.3151 32.3692C26.2977 31.5868 26.9052 31.1384 27.5821 31.1384C28.1289 31.1384 28.6843 31.4637 28.7798 32.2373H28.5888C28.5194 31.8593 28.3111 31.3143 27.5648 31.3143C26.9746 31.3143 26.506 31.7186 26.506 32.3428C26.506 33.0901 27.1135 33.2747 27.7557 33.4417C27.9813 33.5033 28.9099 33.6791 28.9099 34.6989C28.9099 35.4725 28.2504 36.0175 27.5561 36.0175C27.0007 36.0175 26.2717 35.6395 26.2109 34.7428H26.4019V34.734Z" fill="#444444"/>
<path d="M30.9336 35.9208V31.2087H31.2373L33.3896 35.6131L35.5332 31.2087H35.8283V35.9208H35.6373V31.4021L33.4417 35.9208H33.3375L31.1332 31.4021V35.9208H30.9423H30.9336Z" fill="#444444"/>
<path d="M38.0508 31.2088H40.6023V31.3846H38.2417V33.4682H40.6023V33.644H38.2417V35.7539H40.6023V35.9297H38.0508V31.2176V31.2088ZM40.0382 29.8989L40.1249 30.0484L38.6322 30.9275L38.5541 30.778L40.0468 29.8989H40.0382Z" fill="#444444"/>
<path d="M43.5522 31.3846H42.2852V31.2087H45.0015V31.3846H43.7345V35.9208H43.5435V31.3846H43.5522Z" fill="#444444"/>
<path d="M46.7891 31.2087H46.98V35.9208H46.7891V31.2087Z" fill="#444444"/>
<path d="M54.2774 36C54.1125 35.9824 53.9737 35.956 53.8522 35.9296C53.4269 35.8329 53.2273 35.7099 52.9322 35.5252C52.7066 35.6923 52.1946 36 51.5003 36C50.0163 36 49.0703 34.8571 49.0703 33.5648C49.0703 32.1494 50.1551 31.1296 51.4829 31.1296C52.8107 31.1296 53.8955 32.1582 53.8955 33.5648C53.8955 34.5934 53.3488 35.156 53.0884 35.411C53.4443 35.6219 53.722 35.7274 54.2774 35.8066V36ZM51.4743 31.2967C50.2506 31.2967 49.2526 32.2549 49.2526 33.5648C49.2526 33.9604 49.3307 34.1978 49.3827 34.356C49.6344 34.2769 49.9642 34.1626 50.4675 34.1626C50.9709 34.1626 51.4569 34.2857 51.8474 34.5055C52.047 34.611 52.1338 34.6813 52.9322 35.2967C53.4443 34.8483 53.6959 34.2329 53.6959 33.5648C53.6959 32.2637 52.7066 31.2967 51.4743 31.2967ZM51.509 35.8241C52.0731 35.8241 52.5417 35.5868 52.7847 35.4022C52.6632 35.323 52.021 34.8219 52.021 34.8132C51.5263 34.4791 51.023 34.3208 50.4415 34.3208C49.9902 34.3208 49.7125 34.4263 49.4608 34.523C50.0163 35.6835 51.049 35.8154 51.5003 35.8154L51.509 35.8241Z" fill="#444444"/>
<path d="M56.1875 31.2087V34.2681C56.1875 34.7252 56.1875 35.0153 56.4739 35.4021C56.6735 35.6659 57.0553 35.8329 57.4285 35.8329C57.8017 35.8329 58.1662 35.6659 58.3658 35.4021C58.6522 35.0241 58.6522 34.7252 58.6522 34.2681V31.2087H58.8431V34.2681C58.8431 34.6988 58.8344 35.3318 58.2877 35.7186C58.0447 35.8945 57.7409 36.0087 57.4198 36.0087C57.0987 36.0087 56.795 35.9032 56.5607 35.7186C56.0139 35.3318 55.9966 34.6901 56.0052 34.2681V31.2087H56.1962H56.1875Z" fill="#444444"/>
<path d="M61.0664 31.2087H63.6179V31.3846H61.2573V33.4681H63.6179V33.6439H61.2573V35.7538H63.6179V35.9296H61.0664V31.2175V31.2087Z" fill="#444444"/>
<path d="M65.7417 34.734C65.8545 35.6395 66.5314 35.8329 66.8873 35.8329C67.4687 35.8329 68.0589 35.3846 68.0589 34.7164C68.0589 33.8549 67.3212 33.6703 66.8699 33.556C66.462 33.4505 65.6549 33.2571 65.6549 32.3692C65.6376 31.5868 66.2451 31.1384 66.922 31.1384C67.4687 31.1384 68.0241 31.4637 68.1196 32.2373H67.9287C67.8593 31.8593 67.651 31.3143 66.9046 31.3143C66.3145 31.3143 65.8458 31.7186 65.8458 32.3428C65.8458 33.0901 66.4533 33.2747 67.0955 33.4417C67.3212 33.5033 68.2498 33.6791 68.2498 34.6989C68.2498 35.4725 67.5902 36.0175 66.8959 36.0175C66.3405 36.0175 65.6115 35.6395 65.5508 34.7428H65.7417V34.734Z" fill="#444444"/>
<path d="M76.7466 35.6659V31.2087H76.9375V35.9208H76.6945L73.4487 31.4021V35.9208H73.2578V31.2087H73.5442L76.7379 35.6659H76.7466Z" fill="#444444"/>
<path d="M78.9262 35.9208H78.7266L80.7226 31.2087H80.9656L82.9617 35.9208H82.7621L82.0678 34.2769H79.6378L78.9435 35.9208H78.9262ZM80.8354 31.3934L79.7072 34.1098H81.9723L80.8354 31.3934Z" fill="#444444"/>
<path d="M85.0093 31.3846H83.7422V31.2087H86.4586V31.3846H85.1915V35.9208H85.0006V31.3846H85.0093Z" fill="#444444"/>
<path d="M88.4297 31.2087V34.2681C88.4297 34.7252 88.4297 35.0153 88.7161 35.4021C88.9157 35.6659 89.2975 35.8329 89.6707 35.8329C90.0439 35.8329 90.4084 35.6659 90.608 35.4021C90.8944 35.0241 90.8944 34.7252 90.8944 34.2681V31.2087H91.0853V34.2681C91.0853 34.6988 91.0766 35.3318 90.5299 35.7186C90.2869 35.8945 89.9831 36.0087 89.662 36.0087C89.3409 36.0087 89.0372 35.9032 88.8029 35.7186C88.2561 35.3318 88.2388 34.6901 88.2474 34.2681V31.2087H88.4384H88.4297Z" fill="#444444"/>
<path d="M93.2361 31.2087H94.2949C95.0152 31.2087 95.3103 31.2703 95.5359 31.4021C95.9091 31.5956 96.2041 32.1054 96.2041 32.6593C96.2128 32.9494 96.126 33.3186 95.9091 33.6175C95.5706 34.0659 95.1801 34.1274 94.6507 34.145L95.9004 35.9208H95.6574L94.2949 33.9692H94.4251C94.7635 33.9692 95.3189 33.9692 95.614 33.6703C95.9091 33.3626 96.0132 33.0373 96.0132 32.6681C96.0132 32.2637 95.8223 31.8065 95.4578 31.5692C95.1714 31.3846 94.8329 31.3758 94.2862 31.3758H93.4097V35.912H93.2188V31.2L93.2361 31.2087Z" fill="#444444"/>
<path d="M98.0352 31.2087H100.587V31.3846H98.2261V33.4681H100.587V33.6439H98.2261V35.7538H100.587V35.9296H98.0352V31.2175V31.2087Z" fill="#444444"/>
<path d="M102.73 31.2087H102.921V35.745H104.891V35.9208H102.739V31.2087H102.73Z" fill="#444444"/>
<path d="M106.636 34.734C106.749 35.6395 107.426 35.8329 107.782 35.8329C108.363 35.8329 108.953 35.3846 108.953 34.7164C108.953 33.8549 108.216 33.6703 107.764 33.556C107.357 33.4505 106.549 33.2571 106.549 32.3692C106.532 31.5868 107.14 31.1384 107.817 31.1384C108.363 31.1384 108.919 31.4637 109.014 32.2373H108.823C108.754 31.8593 108.546 31.3143 107.799 31.3143C107.209 31.3143 106.74 31.7186 106.74 32.3428C106.74 33.0901 107.348 33.2747 107.99 33.4417C108.216 33.5033 109.144 33.6791 109.144 34.6989C109.144 35.4725 108.485 36.0175 107.79 36.0175C107.235 36.0175 106.506 35.6395 106.445 34.7428H106.636V34.734Z" fill="#444444"/>
<path d="M117.72 32.9494L116.869 34.611L118.075 35.8681L117.945 35.9912L116.782 34.7868C116.374 35.6132 116.045 36 115.298 36C114.552 36 114.031 35.3318 114.031 34.6813C114.031 33.8637 114.752 33.4241 115.272 33.2132C114.969 32.8703 114.647 32.6154 114.621 32.123C114.621 31.5956 115.038 31.1208 115.602 31.1208C116.166 31.1208 116.635 31.5956 116.635 32.1494C116.635 32.8 116.123 33.0198 115.576 33.2659L116.739 34.4703L117.529 32.9406H117.72V32.9494ZM115.394 33.3538C114.422 33.7846 114.222 34.2505 114.213 34.6989C114.213 35.2791 114.647 35.8329 115.316 35.8329C115.984 35.8329 116.288 35.4198 116.643 34.6637L115.402 33.3626L115.394 33.3538ZM115.602 31.323C115.09 31.323 114.812 31.7538 114.812 32.1055C114.812 32.5538 115.168 32.8439 115.446 33.134C116.131 32.8263 116.444 32.6593 116.444 32.1494C116.444 31.7187 116.105 31.323 115.611 31.323H115.602Z" fill="#444444"/>
<path d="M122.941 31.2087H123.931C124.33 31.2087 124.564 31.2703 124.747 31.3846C125.172 31.6131 125.293 32.0439 125.293 32.3956C125.293 33.0461 124.911 33.2835 124.634 33.4241C125.51 33.6791 125.58 34.4439 125.58 34.6637C125.58 35.2439 125.293 35.6131 124.842 35.8065C124.642 35.8769 124.399 35.912 124.104 35.912H122.941V31.2V31.2087ZM123.132 33.3626H123.974C124.252 33.3626 124.469 33.3274 124.634 33.2395C125.024 33.0197 125.102 32.6945 125.102 32.3604C125.102 31.9296 124.868 31.6219 124.634 31.5164C124.504 31.4373 124.33 31.3846 123.931 31.3758H123.132V33.3626ZM123.132 35.745H124.113C124.356 35.745 124.59 35.7098 124.781 35.6395C125.137 35.4901 125.389 35.1824 125.397 34.6637C125.397 34.189 125.154 33.8197 124.773 33.6527C124.521 33.5472 124.356 33.5384 123.983 33.5384H123.141V35.745H123.132Z" fill="#444444"/>
<path d="M127.594 31.2087H127.785V35.9208H127.594V31.2087Z" fill="#444444"/>
<path d="M129.789 33.556C129.789 32.1494 130.874 31.1208 132.202 31.1208C133.529 31.1208 134.614 32.1494 134.614 33.556C134.614 34.9626 133.529 35.9912 132.202 35.9912C130.874 35.9912 129.789 34.9626 129.789 33.556ZM129.98 33.5648C129.98 34.8659 130.969 35.8241 132.202 35.8241C133.434 35.8241 134.423 34.8659 134.423 33.556C134.423 32.2461 133.434 31.2879 132.202 31.2879C130.969 31.2879 129.98 32.2461 129.98 33.556V33.5648Z" fill="#444444"/>
</g>
<defs>
<clipPath id="clip0_1097_40827">
<rect width="123" height="24" fill="white" transform="translate(12.5 12)"/>
</clipPath>
</defs>
</svg>
