<svg width="248" height="80" viewBox="0 0 248 80" fill="none" xmlns="http://www.w3.org/2000/svg">
<mask id="mask0_2754_27184" style="mask-type:luminance" maskUnits="userSpaceOnUse" x="33" y="16" width="182" height="48">
<path d="M214.687 16.666H33.3164V63.5949H214.687V16.666Z" fill="white"/>
</mask>
<g mask="url(#mask0_2754_27184)">
<path d="M145.194 40.5161C145.201 47.9154 145.224 55.3096 145.155 62.7084H150.082L150.06 44.399C150.06 37.9721 153.797 36.2513 157.179 35.7801C162.745 35.0049 165.573 37.8693 165.573 43.2395C165.573 49.7312 165.576 56.2182 165.577 62.708H170.429C170.431 56.2158 170.396 49.742 170.396 43.2367C170.396 37.8415 168.15 34.4905 161.337 34.0939C158.477 33.9276 155.089 34.3862 151.218 37.5141C150.706 37.927 150.116 38.417 150.06 37.5005L150.051 34.7272C150.021 34.5948 150.041 34.4604 149.743 34.4933L145.18 35.0241L145.194 40.5161Z" fill="#EF7741"/>
</g>
<mask id="mask1_2754_27184" style="mask-type:luminance" maskUnits="userSpaceOnUse" x="33" y="16" width="182" height="48">
<path d="M214.687 16.666H33.3164V63.5949H214.687V16.666Z" fill="white"/>
</mask>
<g mask="url(#mask1_2754_27184)">
<path d="M102.423 40.3979L95.927 56.5318L95.3849 57.9196L94.8042 56.5548L87.6905 39.2826L85.9612 35.123H80.792L82.5392 39.464L92.2353 62.9741H94.9499L104.255 39.7703L106.124 35.1677L104.533 35.1686L102.423 40.3979Z" fill="#EF7741"/>
</g>
<mask id="mask2_2754_27184" style="mask-type:luminance" maskUnits="userSpaceOnUse" x="33" y="16" width="182" height="48">
<path d="M214.687 16.666H33.3164V63.5949H214.687V16.666Z" fill="white"/>
</mask>
<g mask="url(#mask2_2754_27184)">
<path d="M185.273 44.2624H199.639C199.639 44.2624 200.537 44.2624 200.542 43.5277C200.8 32.4597 186.404 32.0312 184.949 44.0139C184.872 44.3099 185.273 44.2624 185.273 44.2624ZM206.154 45.1259V45.5083L185.129 45.529C185.129 45.529 184.754 45.529 184.788 45.7869C182.965 64.4079 200.232 64.8382 204.722 55.7213L205.695 55.9111C203.192 61.0324 198.899 63.2949 193.122 63.1671C183.459 62.9548 178.627 56.1554 178.515 49.2108C178.402 42.2432 183.041 35.1281 192.316 34.3751C203.299 33.4824 206.037 42.3926 206.154 45.1259Z" fill="#EF7741"/>
</g>
<mask id="mask3_2754_27184" style="mask-type:luminance" maskUnits="userSpaceOnUse" x="33" y="16" width="182" height="48">
<path d="M214.687 16.666H33.3164V63.5949H214.687V16.666Z" fill="white"/>
</mask>
<g mask="url(#mask3_2754_27184)">
<path d="M65.2851 43.2727H65.2429L58.389 27.6542C58.28 27.4015 58.2227 27.4095 58.1447 27.6237C58.1419 27.634 51.6915 43.2614 51.6802 43.268L65.2851 43.2727ZM43.86 62.876H41.821C48.0064 47.7818 54.1467 32.7013 60.2193 17.5625L61.1725 17.5719L81.652 62.8694L73.7598 62.8553L65.8616 44.6065H51.1428L43.86 62.876Z" fill="#EF7741"/>
</g>
<mask id="mask4_2754_27184" style="mask-type:luminance" maskUnits="userSpaceOnUse" x="33" y="16" width="182" height="48">
<path d="M214.687 16.666H33.3165L33.3164 63.5949H214.687V16.666Z" fill="white"/>
</mask>
<g mask="url(#mask4_2754_27184)">
<path d="M115.647 44.6847H130.014C130.014 44.6847 130.912 44.6847 130.916 43.9504C131.173 32.8819 116.778 32.4534 115.323 44.4361C115.245 44.733 115.647 44.6847 115.647 44.6847ZM136.528 45.5481V45.931L115.502 45.9517C115.502 45.9517 115.128 45.9517 115.162 46.2092C113.339 64.8301 130.606 65.2604 135.097 56.1435L136.069 56.3328C133.566 61.4546 129.274 63.7167 123.496 63.5894C113.834 63.3765 109.002 56.5776 108.889 49.633C108.776 42.665 113.415 35.5504 122.691 34.7968C133.673 33.9051 136.412 42.8158 136.528 45.5481Z" fill="#EF7741"/>
</g>
<mask id="mask5_2754_27184" style="mask-type:luminance" maskUnits="userSpaceOnUse" x="33" y="16" width="182" height="48">
<path d="M214.687 16.666H33.3164V63.5949H214.687V16.666Z" fill="white"/>
</mask>
<g mask="url(#mask5_2754_27184)">
<path d="M113.364 20.625L124.338 31.5286L124.732 31.3336L120.889 20.625H113.364Z" fill="#EF7741"/>
</g>
</svg>
