<svg width="16" height="16" viewBox="0 0 16 16" fill="none" xmlns="http://www.w3.org/2000/svg">
<path d="M15.2385 4.76186C15.1257 4.66351 14.9863 4.6009 14.8378 4.58199C14.6894 4.56307 14.5386 4.58869 14.4048 4.65561L11.2667 6.21811L8.64666 1.86623C8.57931 1.75456 8.48425 1.66218 8.37069 1.59806C8.25714 1.53394 8.12894 1.50024 7.99853 1.50024C7.86812 1.50024 7.73993 1.53394 7.62637 1.59806C7.51282 1.66218 7.41776 1.75456 7.35041 1.86623L4.73041 6.21998L1.59353 4.65748C1.46 4.59116 1.30985 4.56576 1.16193 4.58447C1.01401 4.60317 0.874904 4.66515 0.762078 4.76262C0.649252 4.86009 0.567728 4.98871 0.527735 5.13235C0.487743 5.27598 0.491064 5.42823 0.537283 5.56998L2.84978 12.655C2.87303 12.7262 2.91197 12.7912 2.96373 12.8453C3.01548 12.8994 3.07873 12.9412 3.1488 12.9676C3.21887 12.994 3.29398 13.0043 3.36858 12.9978C3.44317 12.9913 3.51535 12.9681 3.57978 12.93C3.59541 12.9206 5.19353 12 7.99853 12C10.8035 12 12.4017 12.9206 12.416 12.9294C12.4805 12.9679 12.5528 12.9914 12.6276 12.9981C12.7024 13.0049 12.7777 12.9947 12.848 12.9683C12.9183 12.942 12.9818 12.9001 13.0337 12.8459C13.0856 12.7916 13.1247 12.7264 13.1479 12.655L15.4604 5.57186C15.508 5.43006 15.5122 5.27733 15.4727 5.13309C15.4332 4.98885 15.3517 4.85963 15.2385 4.76186ZM10.9885 9.79998C10.9681 9.91565 10.9076 10.0204 10.8177 10.096C10.7278 10.1715 10.6141 10.213 10.4967 10.2131C10.4673 10.2131 10.4381 10.2106 10.4092 10.2056C8.81209 9.93144 7.17998 9.93144 5.58291 10.2056C5.51823 10.217 5.45194 10.2156 5.38782 10.2014C5.3237 10.1872 5.26301 10.1605 5.20921 10.1228C5.10056 10.0467 5.02657 9.9306 5.00353 9.79998C4.98049 9.66936 5.01028 9.53494 5.08635 9.42629C5.16242 9.31763 5.27854 9.24365 5.40916 9.22061C7.1212 8.92644 8.87087 8.92644 10.5829 9.22061C10.6478 9.23171 10.7099 9.25553 10.7656 9.29069C10.8212 9.32585 10.8694 9.37167 10.9073 9.4255C10.9453 9.47933 10.9722 9.54013 10.9865 9.60439C11.0009 9.66866 11.0024 9.73513 10.991 9.79998H10.9885Z" fill="white"/>
</svg>
