<svg width="148" height="49" viewBox="0 0 148 49" fill="none" xmlns="http://www.w3.org/2000/svg">
<g clip-path="url(#clip0_1097_39856)">
<path d="M123.499 6.77288H77.8438L92.8808 41.7727H123.499V6.77288Z" fill="#0070CE"/>
<path d="M26.9971 41.0569C26.9081 41.1397 26.8064 41.2025 26.6919 41.2447C26.5774 41.2869 26.4591 41.3052 26.3371 41.2999H25.439V38.7672H26.3371C26.6093 38.7672 26.8338 38.8481 26.9971 39.0036C27.2693 39.2739 27.2556 39.652 27.2556 40.0166C27.2556 40.3814 27.2761 40.7868 26.9971 41.0635V41.0569ZM26.7317 39.2872C26.676 39.2272 26.61 39.1819 26.5338 39.151C26.4576 39.1204 26.3784 39.1072 26.2963 39.1116H25.8268V40.9554H26.3031C26.4721 40.9645 26.6149 40.9084 26.7317 40.7868C26.8678 40.6381 26.8678 40.3678 26.8678 40.0166C26.8678 39.6653 26.8678 39.429 26.7317 39.2872ZM27.834 41.2999V38.7672H29.467V39.1116H28.2286V39.8547H29.29V40.1924H28.2218V40.9554H29.467V41.2999H27.834ZM30.8278 41.2999H30.5284L29.6915 38.7672H30.093L30.6781 40.611L31.2701 38.7672H31.6783L30.8278 41.2999ZM32.0321 41.2999V38.7672H33.6651V39.1116H32.4199V39.8547H33.4813V40.1924H32.4199V40.9554H33.6651V41.2999H32.0321ZM34.2025 41.2999V38.7672H34.5904V40.9554H35.8152V41.2999H34.2025ZM37.6726 41.0569C37.583 41.1468 37.4791 41.2152 37.3608 41.2621C37.2425 41.3092 37.1196 41.3307 36.9922 41.327C36.8671 41.3293 36.7467 41.307 36.6308 41.26C36.515 41.2133 36.4132 41.1455 36.3255 41.0569C36.0737 40.8002 36.0805 40.5165 36.0805 40.0369C36.0805 39.5573 36.0805 39.2671 36.3255 39.0171C36.414 38.9276 36.5169 38.8595 36.6339 38.8125C36.7511 38.7656 36.8728 38.7437 36.999 38.7469C37.1252 38.744 37.2469 38.7661 37.3639 38.8132C37.4809 38.8601 37.5839 38.928 37.6726 39.0171C37.9244 39.2671 37.9176 39.5439 37.9176 40.0301C37.9176 40.5165 37.9176 40.807 37.6726 41.0501V41.0569ZM37.3801 39.2467C37.3292 39.1972 37.2707 39.159 37.2049 39.1323C37.1389 39.1055 37.0703 39.0924 36.999 39.0924C36.9279 39.0924 36.8592 39.1055 36.7933 39.1323C36.7273 39.159 36.6689 39.1972 36.618 39.2467C36.4888 39.3819 36.4615 39.5237 36.4615 40.0369C36.4615 40.5504 36.4888 40.6854 36.618 40.8205C36.6685 40.8708 36.7267 40.9094 36.7927 40.9369C36.8587 40.964 36.9276 40.9776 36.999 40.9776C37.0706 40.9776 37.1393 40.964 37.2054 40.9369C37.2714 40.9094 37.3296 40.8708 37.3801 40.8205C37.5025 40.6854 37.5229 40.5436 37.5229 40.0369C37.5229 39.5304 37.5025 39.3819 37.3801 39.2467ZM39.4621 40.3072H38.8837V41.2999H38.4959V38.7672H39.4621C39.9588 38.7672 40.2787 39.0981 40.2787 39.5372C40.2787 39.9763 39.9588 40.3072 39.4621 40.3072ZM39.4417 39.1116H38.8837V39.956H39.4417C39.7139 39.956 39.8907 39.8005 39.8907 39.5372C39.8907 39.2739 39.7139 39.1116 39.4417 39.1116ZM40.7548 41.2999V38.7672H42.3878V39.1116H41.1427V39.8547H42.2042V40.1924H41.1427V40.9554H42.3946V41.2999H40.7548ZM44.4766 41.0569C44.3877 41.1397 44.286 41.2025 44.1715 41.2447C44.057 41.2869 43.9387 41.3052 43.8167 41.2999H42.9254V38.7672H43.8235C44.0956 38.7672 44.3202 38.8481 44.4835 39.0036C44.7557 39.2739 44.742 39.652 44.742 40.0166C44.742 40.3814 44.7557 40.7868 44.4766 41.0635V41.0569ZM44.2181 39.2872C44.1619 39.2257 44.095 39.1797 44.0174 39.1488C43.9397 39.1181 43.8592 39.1055 43.7758 39.1116H43.3132V40.9554H43.7758C43.8587 40.9624 43.9389 40.951 44.0165 40.9214C44.0941 40.8918 44.1613 40.8469 44.2181 40.7868C44.3474 40.6381 44.3542 40.3678 44.3542 40.0166C44.3542 39.6653 44.3474 39.429 44.2181 39.2872ZM48.2665 41.2999H47.9263L47.4024 39.5237L46.8853 41.2999H46.5519L45.8851 38.7672H46.2934L46.7492 40.5841L47.2595 38.7739H47.5725L48.0829 40.5841L48.5319 38.7739H48.9402L48.2665 41.2999ZM49.3076 41.2999V38.7672H49.7022V41.2999H49.3076ZM51.2331 39.1116V41.2999H50.8453V39.1116H50.1513V38.7739H51.9407V39.1116H51.2331ZM53.8051 41.2999V40.1924H52.7709V41.2999H52.3829V38.7672H52.7709V39.8479H53.8051V38.7672H54.1929V41.2999H53.8051ZM57.2819 41.0569C57.194 41.1394 57.0933 41.2018 56.98 41.2439C56.8667 41.2861 56.7497 41.3049 56.6287 41.2999H55.7306V38.7672H56.6287C56.8941 38.7672 57.1254 38.8481 57.2819 39.0036C57.5608 39.2739 57.5404 39.652 57.5404 40.0166C57.5404 40.3814 57.5608 40.7868 57.2819 41.0635V41.0569ZM57.0166 39.2872C56.9014 39.1619 56.7585 39.1034 56.5879 39.1116H56.1116V40.9554H56.5879C56.7573 40.9656 56.9002 40.9093 57.0166 40.7868C57.1526 40.6381 57.1526 40.3678 57.1526 40.0166C57.1526 39.6653 57.1526 39.429 57.0166 39.2872ZM58.1256 41.2999V38.7672H59.7585V39.1116H58.5134V39.8547H59.5749V40.1924H58.5134V40.9554H59.745V41.2999H58.1256ZM61.6978 41.2999L61.1602 40.2328H60.6839V41.2999H60.2892V38.7672H61.2759C61.7591 38.7672 62.0652 39.0779 62.0652 39.5103C62.0677 39.5869 62.0572 39.6618 62.0338 39.7349C62.0107 39.808 61.9758 39.8754 61.9292 39.9367C61.8831 39.9981 61.8276 40.0502 61.7634 40.0929C61.6992 40.1355 61.6296 40.1664 61.555 40.1856L62.147 41.2999H61.6978ZM61.2554 39.1116H60.6771V39.9086H61.2554C61.507 39.9086 61.6841 39.7601 61.6841 39.5169C61.6841 39.2739 61.507 39.1116 61.2554 39.1116ZM64.5079 41.2999V39.6115L63.9227 40.8406H63.6368L63.0383 39.6047V41.2999H62.6435V38.7672H63.0383L63.7864 40.3409L64.5144 38.7672H64.9023V41.2999H64.5079ZM67.0389 41.2999L66.8619 40.7934H65.8549L65.6779 41.2999H65.2697L66.2021 38.7672H66.5151L67.4539 41.2999H67.0389ZM66.3654 39.3412L65.9638 40.4692H66.753L66.3654 39.3412ZM68.4678 39.1116V41.2999H68.0799V39.1116H67.3789V38.7739H69.1684V39.1116H68.4678ZM71.0396 41.0569C70.9949 41.0995 70.9466 41.1375 70.8947 41.1708C70.8427 41.2043 70.7883 41.2325 70.7306 41.2555C70.6733 41.2785 70.6142 41.2958 70.5536 41.3075C70.4926 41.3191 70.4314 41.3252 70.3693 41.3252C70.3073 41.3252 70.246 41.3191 70.1855 41.3075C70.1245 41.2958 70.0654 41.2785 70.0081 41.2555C69.9507 41.2325 69.8959 41.2043 69.844 41.1708C69.7921 41.1375 69.7438 41.0995 69.6991 41.0569C69.4474 40.8002 69.4474 40.5165 69.4474 40.0369C69.4474 39.5573 69.4474 39.2671 69.6991 39.0171C69.7438 38.9744 69.7921 38.9365 69.844 38.903C69.8959 38.8695 69.9507 38.8414 70.0081 38.8185C70.0654 38.7953 70.1245 38.7783 70.1855 38.7665C70.246 38.7547 70.3073 38.7488 70.3693 38.7488C70.4314 38.7488 70.4926 38.7547 70.5536 38.7665C70.6142 38.7783 70.6733 38.7953 70.7306 38.8185C70.7883 38.8414 70.8427 38.8695 70.8947 38.903C70.9466 38.9365 70.9949 38.9744 71.0396 39.0171C71.2913 39.2671 71.2848 39.5439 71.2848 40.0301C71.2848 40.5165 71.2913 40.807 71.0396 41.0501V41.0569ZM70.7472 39.2467C70.6964 39.1972 70.6376 39.159 70.572 39.1323C70.506 39.1055 70.4375 39.0924 70.3661 39.0924C70.2947 39.0924 70.2262 39.1055 70.1602 39.1323C70.0942 39.159 70.0358 39.1972 69.985 39.2467C69.8624 39.3819 69.8354 39.5237 69.8354 40.0369C69.8354 40.5504 69.8624 40.6854 69.985 40.8205C70.0355 40.8708 70.0935 40.9094 70.1599 40.9369C70.2258 40.964 70.2947 40.9776 70.3661 40.9776C70.4375 40.9776 70.5063 40.964 70.5723 40.9369C70.6383 40.9094 70.6967 40.8708 70.7472 40.8205C70.8763 40.6854 70.8968 40.5436 70.8968 40.0369C70.8968 39.5304 70.8763 39.3819 70.7472 39.2467ZM71.8631 41.2999V38.7672H72.2507V40.9554H73.4892V41.2999H71.8631ZM75.333 41.0569C75.2883 41.0995 75.24 41.1375 75.1881 41.1708C75.1362 41.2043 75.0814 41.2325 75.024 41.2555C74.9667 41.2785 74.9076 41.2958 74.8466 41.3075C74.7861 41.3191 74.7248 41.3252 74.6628 41.3252C74.6007 41.3252 74.5395 41.3191 74.4789 41.3075C74.4179 41.2958 74.3588 41.2785 74.3015 41.2555C74.2442 41.2325 74.1894 41.2043 74.1374 41.1708C74.0855 41.1375 74.0372 41.0995 73.9925 41.0568C73.7408 40.8002 73.7408 40.5165 73.7408 40.0369C73.7408 39.5573 73.7408 39.2671 73.9925 39.0171C74.0372 38.9744 74.0855 38.9365 74.1374 38.903C74.1894 38.8695 74.2442 38.8414 74.3015 38.8185C74.3588 38.7953 74.4179 38.7783 74.4789 38.7665C74.5395 38.7547 74.6007 38.7488 74.6628 38.7488C74.7248 38.7488 74.7861 38.7547 74.8466 38.7665C74.9076 38.7783 74.9667 38.7953 75.024 38.8185C75.0814 38.8414 75.1362 38.8695 75.1881 38.903C75.24 38.9365 75.2883 38.9744 75.333 39.0171C75.5847 39.2671 75.5778 39.5439 75.5778 40.0301C75.5778 40.5165 75.5847 40.807 75.333 41.0501V41.0569ZM75.0403 39.2467C74.9901 39.1976 74.9324 39.1594 74.8668 39.1328C74.8016 39.1063 74.7334 39.0929 74.6628 39.0929C74.5921 39.0929 74.5239 39.1063 74.4587 39.1328C74.3934 39.1594 74.3354 39.1976 74.2853 39.2467C74.1558 39.3819 74.1288 39.5237 74.1288 40.0369C74.1288 40.5504 74.1558 40.6854 74.2853 40.8205C74.335 40.8705 74.3927 40.9091 74.458 40.9364C74.5236 40.9635 74.5917 40.9772 74.6628 40.9772C74.7338 40.9772 74.8019 40.9635 74.8676 40.9364C74.9328 40.9091 74.9905 40.8705 75.0403 40.8205C75.1697 40.6854 75.1902 40.5436 75.1902 40.0369C75.1902 39.5304 75.1697 39.3819 75.0403 39.2467ZM77.687 41.0366C77.6423 41.0813 77.5933 41.1215 77.5407 41.1568C77.4877 41.192 77.4321 41.2219 77.3734 41.2464C77.3146 41.271 77.254 41.2898 77.1917 41.3026C77.1296 41.3154 77.0665 41.322 77.0027 41.3227C76.9393 41.3234 76.8758 41.3177 76.8134 41.3063C76.7507 41.2946 76.6898 41.2771 76.6306 41.2539C76.5715 41.2304 76.5153 41.2017 76.4619 41.1672C76.4082 41.1331 76.3584 41.094 76.3126 41.0501C76.061 40.8002 76.0678 40.5233 76.0678 40.0369C76.0678 39.5506 76.0678 39.2671 76.3126 39.0171C76.4013 38.9276 76.5041 38.8595 76.6213 38.8125C76.7384 38.7656 76.8603 38.7437 76.9865 38.7469C77.5309 38.7469 77.8435 39.0981 77.9117 39.5304H77.5241C77.4559 39.2604 77.2721 39.0913 76.9796 39.0913C76.8325 39.0904 76.7078 39.1421 76.6054 39.2467C76.4828 39.3819 76.4558 39.5237 76.4558 40.0301C76.4558 40.5368 76.4828 40.6921 76.6054 40.8205C76.7092 40.9278 76.8362 40.9797 76.9865 40.9758C77.1488 40.9777 77.285 40.9193 77.3946 40.8002C77.4934 40.6854 77.5389 40.5525 77.5309 40.4017V40.2597H76.9865V39.9289H77.9185V40.314C77.9185 40.6517 77.8572 40.8542 77.687 41.0366ZM78.4968 41.2999V38.7672H78.8848V41.2999H78.4968ZM80.225 41.327C79.8442 41.327 79.5651 41.2325 79.3203 40.9893L79.5788 40.7326C79.7692 40.9217 79.9733 40.9758 80.2318 40.9758C80.5653 40.9758 80.7557 40.8406 80.7557 40.5908C80.7665 40.486 80.7348 40.396 80.6605 40.3207C80.5927 40.2666 80.5314 40.2396 80.3818 40.2193L80.0757 40.1789C79.8951 40.1608 79.7364 40.0932 79.599 39.9763C79.5334 39.9127 79.484 39.8385 79.4505 39.7537C79.4173 39.6686 79.4033 39.5808 79.4087 39.4899C79.4087 39.0509 79.7285 38.7469 80.2592 38.7469C80.5992 38.7469 80.8375 38.828 81.0553 39.0374L80.8101 39.2805C80.6536 39.133 80.4676 39.0656 80.2524 39.0779C79.9459 39.0779 79.7829 39.2535 79.7829 39.4764C79.779 39.5692 79.8107 39.648 79.8781 39.7128C79.9646 39.7784 80.0623 39.8165 80.1705 39.8276L80.4564 39.8681C80.6944 39.9086 80.8307 39.9627 80.9327 40.0573C81.0037 40.1246 81.0571 40.204 81.0928 40.2949C81.1285 40.3857 81.1429 40.4799 81.1368 40.5773C81.1436 41.0501 80.7625 41.3202 80.225 41.3202V41.327ZM82.5386 39.1116V41.2999H82.1506V39.1116H81.4429V38.7739H83.2391V39.1116H82.5386ZM84.3619 41.327C83.9808 41.327 83.7021 41.2325 83.4569 40.9893L83.7158 40.7326C83.9062 40.9217 84.1102 40.9758 84.3687 40.9758C84.7091 40.9758 84.8995 40.8406 84.8995 40.5908C84.9063 40.4855 84.8724 40.3954 84.7974 40.3207C84.7297 40.2666 84.6684 40.2396 84.5184 40.2193L84.2191 40.1789C84.0345 40.1622 83.8712 40.0947 83.7291 39.9763C83.5947 39.8413 83.5337 39.6793 83.5453 39.4899C83.5453 39.0509 83.8654 38.7469 84.3962 38.7469C84.7361 38.7469 84.9745 38.828 85.1922 39.0374L84.9471 39.2805C84.7906 39.133 84.6045 39.0656 84.3893 39.0779C84.0897 39.0779 83.9199 39.2535 83.9199 39.4764C83.9166 39.5708 83.9505 39.6497 84.0219 39.7128C84.1055 39.7786 84.2011 39.8169 84.3074 39.8276L84.5934 39.8681C84.8313 39.9086 84.9676 39.9627 85.0697 40.0573C85.1421 40.1239 85.1969 40.2027 85.2341 40.2936C85.2708 40.3848 85.2863 40.4794 85.2806 40.5773C85.2806 41.0501 84.8995 41.3202 84.3619 41.3202V41.327ZM42.2926 30.4124C40.3874 32.2223 38.4959 33.4247 35.5021 33.4247C30.8822 33.4247 27.3985 29.7167 27.3985 24.7996C27.3985 19.9164 30.8822 16.2354 35.5021 16.2354C38.006 16.2354 39.9792 17.0932 42.1088 19.0991L42.2449 19.2343L44.1638 17.1945L44.0276 17.0593C42.1225 15.283 39.7819 13.6351 35.5361 13.6351C29.2425 13.6351 24.5 18.4642 24.5 24.8605C24.5 31.2296 29.2016 36.025 35.4409 36.025C39.7955 36.025 42.2858 34.1068 44.1501 32.2359L44.2862 32.1007L42.4218 30.284L42.2926 30.4124ZM52.1993 19.2343C47.7563 19.2343 44.4155 22.841 44.4155 27.6297C44.4155 32.4183 47.8855 36.025 52.5055 36.025C55.2339 36.025 57.2887 35.0997 59.1734 33.0127L59.3027 32.8777L57.5473 31.3173L57.418 31.4525C56.0027 32.9248 54.465 33.6136 52.5667 33.6136C49.7158 33.6136 47.5862 31.6347 47.2119 28.6698H59.7245L59.7381 28.5008C59.763 28.2539 59.7743 28.0063 59.7721 27.7581C59.7721 22.6586 56.7308 19.2343 52.1993 19.2343ZM47.2119 26.5558C47.5793 23.6177 49.5865 21.5847 52.1381 21.5847C55.3087 21.5847 56.7103 24.1175 56.9825 26.5558H47.2119ZM70.1552 22.1925V19.3085L69.9713 19.3017C67.3588 19.1937 65.0657 20.5918 63.6981 23.0571V19.5719H60.9561V35.6536H63.6981V29.2032C63.6981 24.9415 66.0864 22.1857 69.7809 22.1857L70.1552 22.1925ZM76.1904 19.3558H71.2642V21.8007H76.0473C78.905 21.8413 80.4701 23.2867 80.4701 25.8939V26.1909C79.2727 25.8668 77.8572 25.5831 75.7956 25.5831C71.4344 25.5831 68.8284 27.5619 68.8284 30.8785C68.8284 34.3906 71.9922 35.9981 74.9317 35.9981C77.687 35.9981 79.4357 34.7889 80.4701 33.634V35.6604H83.1238V25.8668C83.1238 21.6657 80.6605 19.3558 76.1904 19.3558ZM75.3943 33.7623C73.5707 33.7623 71.6042 32.8303 71.6042 30.7905C71.6042 28.8521 73.2577 27.6971 76.0408 27.6971C77.5551 27.6996 79.0406 27.9068 80.4972 28.3186V29.6964C80.4972 32.013 78.2996 33.7623 75.3943 33.7623Z" fill="#003057"/>
<path d="M108.327 19.2344C103.891 19.2344 100.543 22.841 100.543 27.6298C100.543 32.4183 104.027 36.025 108.64 36.025C111.362 36.025 113.423 35.0997 115.308 33.0127L115.43 32.8778L113.682 31.3174L113.552 31.4525C112.137 32.9248 110.599 33.6137 108.701 33.6137C105.85 33.6137 103.72 31.6347 103.34 28.6699H115.859L115.872 28.5009C115.898 28.2539 115.909 28.0063 115.906 27.7582C115.906 22.6586 112.865 19.2344 108.334 19.2344M113.117 26.5625H103.34C103.714 23.6245 105.721 21.5848 108.266 21.5848C111.436 21.5848 112.845 24.1175 113.11 26.5625" fill="white"/>
<path d="M101.487 13.9999L93.9691 32.0335L86.4639 13.9999H83.3477L92.7374 35.8157H95.1257L104.515 13.9999H101.487Z" fill="white"/>
</g>
<defs>
<clipPath id="clip0_1097_39856">
<rect width="99" height="35" fill="white" transform="translate(24.5 6.77271)"/>
</clipPath>
</defs>
</svg>
