<svg width="20" height="20" viewBox="0 0 20 20" fill="none" xmlns="http://www.w3.org/2000/svg">
<path d="M17.9423 6.06754L7.94229 16.0675C7.88425 16.1256 7.81531 16.1717 7.73944 16.2032C7.66357 16.2347 7.58224 16.2508 7.5001 16.2508C7.41797 16.2508 7.33664 16.2347 7.26077 16.2032C7.18489 16.1717 7.11596 16.1256 7.05792 16.0675L2.68292 11.6925C2.56564 11.5753 2.49976 11.4162 2.49976 11.2503C2.49976 11.0845 2.56564 10.9254 2.68292 10.8082C2.80019 10.6909 2.95925 10.625 3.1251 10.625C3.29096 10.625 3.45002 10.6909 3.56729 10.8082L7.5001 14.7418L17.0579 5.18316C17.1752 5.06588 17.3343 5 17.5001 5C17.666 5 17.825 5.06588 17.9423 5.18316C18.0596 5.30044 18.1255 5.4595 18.1255 5.62535C18.1255 5.7912 18.0596 5.95026 17.9423 6.06754Z" fill="#01B26E"/>
</svg>
