<svg width="22" height="22" viewBox="0 0 22 22" fill="none" xmlns="http://www.w3.org/2000/svg">
<rect width="22" height="22" rx="3" fill="white" fill-opacity="0.01"/>
<path d="M15.8538 15.1465C15.9002 15.193 15.9371 15.2481 15.9622 15.3088C15.9874 15.3695 16.0003 15.4346 16.0003 15.5003C16.0003 15.566 15.9874 15.631 15.9622 15.6917C15.9371 15.7524 15.9002 15.8076 15.8538 15.854C15.8073 15.9005 15.7522 15.9373 15.6915 15.9625C15.6308 15.9876 15.5657 16.0006 15.5 16.0006C15.4343 16.0006 15.3693 15.9876 15.3086 15.9625C15.2479 15.9373 15.1927 15.9005 15.1463 15.854L11 11.7072L6.85378 15.854C6.75996 15.9478 6.63272 16.0006 6.50003 16.0006C6.36735 16.0006 6.2401 15.9478 6.14628 15.854C6.05246 15.7602 5.99976 15.633 5.99976 15.5003C5.99976 15.3676 6.05246 15.2403 6.14628 15.1465L10.2932 11.0003L6.14628 6.85403C6.05246 6.76021 5.99976 6.63296 5.99976 6.50028C5.99976 6.3676 6.05246 6.24035 6.14628 6.14653C6.2401 6.05271 6.36735 6 6.50003 6C6.63272 6 6.75996 6.05271 6.85378 6.14653L11 10.2934L15.1463 6.14653C15.2401 6.05271 15.3674 6 15.5 6C15.6327 6 15.76 6.05271 15.8538 6.14653C15.9476 6.24035 16.0003 6.3676 16.0003 6.50028C16.0003 6.63296 15.9476 6.76021 15.8538 6.85403L11.7069 11.0003L15.8538 15.1465Z" fill="#101840"/>
</svg>
