<svg width="16" height="16" viewBox="0 0 16 16" fill="none" xmlns="http://www.w3.org/2000/svg">
<path d="M12.9989 5.99999C12.9989 5.85165 13.0429 5.70665 13.1253 5.58331C13.2077 5.45998 13.3248 5.36385 13.4619 5.30708C13.5989 5.25031 13.7497 5.23546 13.8952 5.2644C14.0407 5.29334 14.1743 5.36477 14.2792 5.46966C14.3841 5.57455 14.4555 5.70819 14.4845 5.85367C14.5134 5.99916 14.4985 6.14996 14.4418 6.287C14.385 6.42405 14.2889 6.54118 14.1656 6.62359C14.0422 6.706 13.8972 6.74999 13.7489 6.74999C13.55 6.74999 13.3592 6.67097 13.2185 6.53032C13.0779 6.38967 12.9989 6.1989 12.9989 5.99999ZM12.2489 4.49999C12.3972 4.49999 12.5422 4.456 12.6656 4.37359C12.7889 4.29118 12.885 4.17405 12.9418 4.037C12.9985 3.89996 13.0134 3.74916 12.9845 3.60367C12.9555 3.45819 12.8841 3.32455 12.7792 3.21966C12.6743 3.11477 12.5407 3.04334 12.3952 3.0144C12.2497 2.98546 12.0989 3.00031 11.9619 3.05708C11.8248 3.11385 11.7077 3.20998 11.6253 3.33331C11.5429 3.45665 11.4989 3.60165 11.4989 3.74999C11.4989 3.9489 11.5779 4.13967 11.7185 4.28032C11.8592 4.42097 12.05 4.49999 12.2489 4.49999ZM14.0401 7.99999C13.908 7.9891 13.777 8.0311 13.6759 8.11677C13.5747 8.20244 13.5117 8.32477 13.5007 8.45686C13.4113 9.50215 13.0251 10.5001 12.3877 11.3334C11.7503 12.1667 10.8881 12.8005 9.90265 13.1604C8.9172 13.5203 7.84946 13.5913 6.82506 13.3649C5.80066 13.1386 4.86222 12.6243 4.12015 11.8827C3.37809 11.1411 2.86327 10.203 2.63628 9.17876C2.40928 8.15451 2.47956 7.08672 2.83883 6.10105C3.19811 5.11537 3.83143 4.25282 4.66429 3.61487C5.49715 2.97692 6.49489 2.59013 7.54012 2.49999C7.60578 2.49457 7.66973 2.47628 7.72832 2.44614C7.78691 2.41601 7.839 2.37463 7.88159 2.32437C7.92419 2.27412 7.95648 2.21596 7.9766 2.15322C7.99672 2.09049 8.00429 2.0244 7.99887 1.95874C7.99346 1.89308 7.97516 1.82913 7.94503 1.77054C7.9149 1.71195 7.87352 1.65987 7.82326 1.61727C7.773 1.57467 7.71484 1.54239 7.6521 1.52226C7.58937 1.50214 7.52328 1.49457 7.45762 1.49999C6.22264 1.60622 5.04368 2.06295 4.05946 2.81646C3.07524 3.56997 2.32669 4.5889 1.90189 5.75338C1.47709 6.91786 1.39371 8.17945 1.66155 9.38971C1.9294 10.6 2.53733 11.7086 3.41382 12.585C4.29031 13.4615 5.39889 14.0695 6.60915 14.3373C7.81941 14.6052 9.081 14.5218 10.2455 14.097C11.41 13.6722 12.4289 12.9236 13.1824 11.9394C13.9359 10.9552 14.3926 9.77622 14.4989 8.54124C14.5045 8.47553 14.4971 8.40936 14.4771 8.34653C14.457 8.2837 14.4248 8.22545 14.3821 8.17515C14.3395 8.12484 14.2873 8.08346 14.2286 8.0534C14.1699 8.02334 14.1059 8.00519 14.0401 7.99999ZM7.99887 3.49999C8.88889 3.49999 9.75892 3.76391 10.4989 4.25838C11.239 4.75284 11.8157 5.45565 12.1563 6.27791C12.4969 7.10018 12.586 8.00498 12.4124 8.8779C12.2388 9.75081 11.8102 10.5526 11.1809 11.182C10.5515 11.8113 9.74969 12.2399 8.87678 12.4135C8.00387 12.5872 7.09906 12.498 6.2768 12.1574C5.45453 11.8169 4.75173 11.2401 4.25726 10.5001C3.76279 9.76003 3.49887 8.89001 3.49887 7.99999C3.5002 6.80692 3.97473 5.6631 4.81835 4.81947C5.66198 3.97584 6.8058 3.50131 7.99887 3.49999ZM7.49887 7.99999C7.49887 8.1326 7.55155 8.25978 7.64532 8.35354C7.73909 8.44731 7.86626 8.49999 7.99887 8.49999H10.9989C11.1315 8.49999 11.2587 8.44731 11.3524 8.35354C11.4462 8.25978 11.4989 8.1326 11.4989 7.99999C11.4989 7.86738 11.4462 7.7402 11.3524 7.64644C11.2587 7.55267 11.1315 7.49999 10.9989 7.49999H8.49887V4.99999C8.49887 4.86738 8.44619 4.7402 8.35243 4.64644C8.25866 4.55267 8.13148 4.49999 7.99887 4.49999C7.86626 4.49999 7.73909 4.55267 7.64532 4.64644C7.55155 4.7402 7.49887 4.86738 7.49887 4.99999V7.99999ZM9.99887 2.99999C10.1472 2.99999 10.2922 2.956 10.4156 2.87359C10.5389 2.79118 10.635 2.67405 10.6918 2.537C10.7485 2.39996 10.7634 2.24916 10.7345 2.10367C10.7055 1.95819 10.6341 1.82455 10.5292 1.71966C10.4243 1.61477 10.2907 1.54334 10.1452 1.5144C9.9997 1.48546 9.84891 1.50031 9.71186 1.55708C9.57482 1.61385 9.45768 1.70998 9.37527 1.83331C9.29286 1.95665 9.24887 2.10165 9.24887 2.24999C9.24887 2.4489 9.32789 2.63967 9.46854 2.78032C9.6092 2.92097 9.79996 2.99999 9.99887 2.99999Z" fill="white"/>
</svg>
