<svg width="10" height="10" viewBox="0 0 10 10" fill="none" xmlns="http://www.w3.org/2000/svg">
<path d="M9.0625 5C9.0625 5.80349 8.82424 6.58893 8.37785 7.257C7.93145 7.92508 7.29698 8.44578 6.55465 8.75326C5.81233 9.06074 4.9955 9.14119 4.20745 8.98444C3.4194 8.82769 2.69553 8.44077 2.12738 7.87262C1.55923 7.30447 1.17231 6.5806 1.01556 5.79255C0.858809 5.00451 0.93926 4.18767 1.24674 3.44535C1.55422 2.70302 2.07492 2.06855 2.743 1.62215C3.41107 1.17576 4.19652 0.9375 5 0.9375C6.07703 0.938844 7.10956 1.36729 7.87114 2.12886C8.63271 2.89044 9.06116 3.92297 9.0625 5Z" fill="white"/>
</svg>
