<svg width="248" height="80" viewBox="0 0 248 80" fill="none" xmlns="http://www.w3.org/2000/svg">
<g clip-path="url(#clip0_2754_74977)">
<path fill-rule="evenodd" clip-rule="evenodd" d="M173.768 37.8128L168.77 26.2741L163.768 37.8128H173.768ZM170.401 20.5095L183.635 51.2459H179.588L175.325 41.4084H162.211L157.948 51.2459H153.901L167.135 20.5095H170.401ZM65.0716 35.847C65.0716 43.8438 60.0131 47.3437 53.5133 47.6192H47.6978V24.1041H53.5133C60.0131 24.3796 65.0716 27.8512 65.0716 35.847ZM53.5133 51.2459C61.5731 51.1683 68.7822 46.5593 68.7822 35.847C68.7822 25.1332 61.5731 20.586 53.5133 20.5095C50.3134 20.5085 47.1852 20.4947 44 20.4947V20.5095C44 30.7446 44 41.0089 44 51.2459H53.5133ZM129.224 29.3172H124.874C122.684 26.0233 118.884 23.6681 114.563 23.6681C107.705 23.6681 102.156 28.966 102.278 35.847C102.397 42.4774 107.561 47.549 114.563 47.549H125.849V51.2459H114.563C105.738 51.2459 98.6716 44.6939 98.5578 35.847C98.4437 26.9755 105.732 20.0469 114.563 20.0114C120.812 19.9932 126.537 23.7629 129.224 29.3172ZM132.72 20.5095H143.579C149.206 20.5095 153.377 24.8413 153.377 30.5576C153.377 36.0048 149.716 39.741 145.054 40.4753L152.684 51.2459H148.03L137.892 36.9307H143.354C146.96 36.9307 149.569 34.4707 149.569 30.5576C149.569 26.6444 146.96 24.1041 143.354 24.1041H136.418V51.2459H132.72V20.5095ZM204.003 20.5085L199.892 20.5095L191.972 36.0861L184.049 20.5095L179.937 20.5085L190.121 40.4069V51.2459H193.819V40.4069L204.003 20.5085ZM73.8031 20.5095H77.5V41.8891C77.5 45.2549 80.2753 48.0625 83.6846 48.0625C87.0958 48.0625 89.8713 45.2549 89.8713 41.8891V20.5095H93.5682V41.8891C93.5682 47.5736 89.3459 51.5469 83.6846 51.5469C78.0208 51.5469 73.8031 47.5699 73.8031 41.8891V20.5095Z" fill="#3B6C8A"/>
<path fill-rule="evenodd" clip-rule="evenodd" d="M49.7925 57.5527H51.5141L50.9868 56.1617C50.8269 55.7403 50.7075 55.3919 50.6248 55.1155C50.555 55.442 50.4631 55.7677 50.3456 56.0805L49.7925 57.5527ZM48.3391 59.6123L50.2776 54.5974H51.0107L53.0686 59.6123H52.3079L51.7227 58.0909H49.5959L49.0483 59.6123H48.3391ZM55.1817 59.024H56.4394C56.6562 59.024 56.8096 59.0149 56.8969 58.9994C57.0466 58.9738 57.178 58.9282 57.2809 58.8644C57.3847 58.7987 57.472 58.7048 57.5372 58.5816C57.6024 58.463 57.6374 58.3198 57.6374 58.1575C57.6374 57.9705 57.5868 57.8063 57.4913 57.6695C57.3957 57.5327 57.2579 57.4323 57.0898 57.3776C56.9189 57.3229 56.6681 57.2927 56.3502 57.2927H55.1817V59.024ZM55.1817 56.7053H56.274C56.5707 56.7053 56.7839 56.6844 56.9116 56.6479C57.0788 56.5977 57.212 56.5111 57.2947 56.397C57.3801 56.2803 57.4251 56.1325 57.4251 55.9574C57.4251 55.7905 57.3847 55.6427 57.3039 55.5168C57.224 55.3891 57.1073 55.2997 56.9594 55.255C56.8124 55.2113 56.5505 55.1866 56.1913 55.1866H55.1817V56.7053ZM54.511 59.6123V54.5974H56.4072C56.7921 54.5974 57.1036 54.6475 57.336 54.7488C57.5666 54.8482 57.7522 55.0078 57.8827 55.2176C58.0131 55.4256 58.0811 55.6491 58.0811 55.8799C58.0811 56.0933 58.0214 56.2967 57.9056 56.4837C57.7899 56.6734 57.6144 56.8257 57.3774 56.9443C57.6833 57.031 57.9185 57.186 58.0811 57.3977C58.2437 57.6102 58.3282 57.8656 58.3282 58.1575C58.3282 58.3946 58.2759 58.6135 58.1776 58.8142C58.0793 59.0149 57.9534 59.1718 57.8073 59.2794C57.6622 59.3889 57.4738 59.4728 57.2543 59.5284C57.0338 59.5832 56.7572 59.6123 56.4384 59.6123H54.511ZM60.6737 57.1815C60.6737 57.7862 60.8391 58.2624 61.1634 58.609C61.4886 58.9538 61.9011 59.1289 62.3935 59.1289C62.8979 59.1289 63.3123 58.9538 63.6366 58.6044C63.9599 58.2551 64.1235 57.7561 64.1235 57.1112C64.1235 56.7053 64.0518 56.3469 63.9149 56.0459C63.778 55.743 63.5713 55.5031 63.3058 55.339C63.0394 55.172 62.7381 55.0881 62.4055 55.0881C61.9323 55.0881 61.5244 55.2496 61.1845 55.5716C60.8455 55.8908 60.6737 56.429 60.6737 57.1815ZM59.9819 57.1724C59.9819 56.3396 60.2098 55.6856 60.6572 55.2176C61.1064 54.7488 61.6889 54.5135 62.4018 54.5135C62.8676 54.5135 63.2911 54.6248 63.6641 54.8446C64.0362 55.0626 64.3256 55.3754 64.5194 55.7677C64.7151 56.1617 64.8143 56.6114 64.8143 57.1131C64.8143 57.6211 64.7087 58.0781 64.5047 58.4767C64.298 58.8762 64.0022 59.1836 63.6264 59.3861C63.2479 59.5923 62.8373 59.6963 62.3981 59.6963C61.9222 59.6963 61.4959 59.5804 61.122 59.3542C60.749 59.1289 60.4624 58.8142 60.2713 58.422C60.0811 58.0298 59.9819 57.6102 59.9819 57.1724ZM67.2995 56.8102H68.7336C69.0395 56.8102 69.2783 56.7756 69.4492 56.7163C69.6183 56.6552 69.7515 56.5521 69.8387 56.4153C69.926 56.2785 69.973 56.128 69.973 55.9665C69.973 55.7293 69.8858 55.5305 69.7148 55.38C69.5438 55.2277 69.2656 55.1501 68.8961 55.1501H67.2995V56.8102ZM66.6288 59.6123V54.5974H68.8686C69.3187 54.5974 69.6604 54.6412 69.8949 54.7324C70.1282 54.8209 70.3173 54.9832 70.4551 55.2085C70.593 55.4347 70.6656 55.6874 70.6656 55.9638C70.6656 56.3195 70.5462 56.6205 70.3166 56.8641C70.0868 57.1058 69.7277 57.2608 69.2425 57.3292C69.4208 57.4141 69.5577 57.498 69.6468 57.5783C69.8406 57.7543 70.0299 57.9796 70.199 58.2459L71.0735 59.6123H70.2376L69.5706 58.5679C69.3766 58.2669 69.215 58.0371 69.0892 57.8765C68.9624 57.7178 68.8474 57.6029 68.7491 57.5418C68.6527 57.4807 68.5471 57.4296 68.4452 57.4068C68.3725 57.394 68.242 57.3849 68.0738 57.3849H67.2995V59.6123H66.6288ZM73.5505 57.5527H75.2721L74.7457 56.1617C74.5867 55.7403 74.4663 55.3919 74.3828 55.1155C74.3139 55.442 74.222 55.7677 74.1053 56.0805L73.5505 57.5527ZM72.098 59.6123L74.0345 54.5974H74.7695L76.8265 59.6123H76.0668L75.4807 58.0909H73.3539L72.8061 59.6123H72.098ZM79.0589 59.6123V55.1866H77.3942V54.5974H81.3934V55.1866H79.7287V59.6123H79.0589ZM83.3852 57.1815C83.3852 57.7862 83.5505 58.2624 83.8758 58.609C84.2011 58.9538 84.6127 59.1289 85.1068 59.1289C85.6094 59.1289 86.0247 58.9538 86.3481 58.6044C86.6725 58.2551 86.835 57.7561 86.835 57.1112C86.835 56.7053 86.7632 56.3469 86.6273 56.0459C86.4895 55.743 86.2828 55.5031 86.0172 55.339C85.751 55.172 85.4485 55.0881 85.1169 55.0881C84.6439 55.0881 84.2359 55.2496 83.896 55.5716C83.5569 55.8908 83.3852 56.429 83.3852 57.1815ZM82.6935 57.1724C82.6935 56.3396 82.9212 55.6856 83.3697 55.2176C83.818 54.7488 84.4012 54.5135 85.1134 54.5135C85.58 54.5135 86.0026 54.6248 86.3757 54.8446C86.7477 55.0626 87.037 55.3754 87.231 55.7677C87.4267 56.1617 87.5257 56.6114 87.5257 57.1131C87.5257 57.6211 87.4201 58.0781 87.2162 58.4767C87.0104 58.8762 86.7146 59.1836 86.338 59.3861C85.9594 59.5923 85.5487 59.6963 85.1106 59.6963C84.6338 59.6963 84.2074 59.5804 83.8344 59.3542C83.4624 59.1289 83.174 58.8142 82.9837 58.422C82.7918 58.0298 82.6935 57.6102 82.6935 57.1724ZM89.4395 59.6123V54.5974H90.1102V59.6123H89.4395ZM92.9114 56.8102H94.3463C94.6522 56.8102 94.8912 56.7756 95.0619 56.7163C95.231 56.6552 95.3644 56.5521 95.4516 56.4153C95.5389 56.2785 95.5857 56.128 95.5857 55.9665C95.5857 55.7293 95.4985 55.5305 95.3275 55.38C95.1567 55.2277 94.8783 55.1501 94.5099 55.1501H92.9114V56.8102ZM92.2415 59.6123V54.5974H94.4796C94.9316 54.5974 95.2734 54.6412 95.5067 54.7324C95.7409 54.8209 95.9303 54.9832 96.0681 55.2085C96.2068 55.4347 96.2783 55.6874 96.2783 55.9638C96.2783 56.3195 96.1589 56.6205 95.9293 56.8641C95.6995 57.1058 95.3395 57.2608 94.8552 57.3292C95.0335 57.4141 95.1694 57.498 95.2595 57.5783C95.4533 57.7543 95.6417 57.9796 95.8117 58.2459L96.6864 59.6123H95.8512L95.1824 58.5679C94.9895 58.2669 94.8277 58.0371 94.7009 57.8765C94.576 57.7178 94.4603 57.6029 94.362 57.5418C94.2656 57.4807 94.159 57.4296 94.057 57.4068C93.9843 57.394 93.8549 57.3849 93.6849 57.3849H92.9114V59.6123H92.2415ZM98.2775 59.6123V54.5974H101.925V55.1866H98.9482V56.7254H101.735V57.3137H98.9482V59.024H102.045V59.6123H98.2775ZM103.692 58.0024L104.321 57.9449C104.349 58.1985 104.42 58.4065 104.528 58.5652C104.635 58.7248 104.809 58.8598 105.036 58.9574C105.263 59.0559 105.524 59.1088 105.811 59.1088C106.066 59.1088 106.292 59.0696 106.486 58.9939C106.679 58.9218 106.825 58.8142 106.92 58.682C107.015 58.5524 107.064 58.4083 107.064 58.2532C107.064 58.0982 107.018 57.9595 106.926 57.8428C106.838 57.7269 106.682 57.6266 106.472 57.5463C106.338 57.498 106.035 57.4113 105.572 57.3019C105.109 57.1933 104.782 57.0857 104.597 56.9899C104.359 56.8641 104.176 56.7072 104.06 56.522C103.943 56.3377 103.883 56.128 103.883 55.8981C103.883 55.6427 103.958 55.4046 104.099 55.1866C104.244 54.9668 104.457 54.799 104.733 54.684C105.011 54.5727 105.32 54.5135 105.66 54.5135C106.034 54.5135 106.366 54.5755 106.651 54.6913C106.935 54.8099 107.157 54.9905 107.309 55.2204C107.463 55.453 107.546 55.7175 107.557 56.0121L106.916 56.0595C106.882 55.7448 106.763 55.5031 106.566 55.3435C106.37 55.1839 106.074 55.1018 105.686 55.1018C105.282 55.1018 104.987 55.1748 104.801 55.3207C104.617 55.4694 104.525 55.6464 104.525 55.8543C104.525 56.0349 104.593 56.1827 104.721 56.2985C104.849 56.4135 105.187 56.5357 105.728 56.657C106.27 56.7756 106.647 56.885 106.847 56.9763C107.138 57.1085 107.359 57.2818 107.498 57.4871C107.635 57.6895 107.707 57.9294 107.707 58.1985C107.707 58.4658 107.629 58.7166 107.477 58.951C107.322 59.1836 107.101 59.3706 106.813 59.5001C106.528 59.6306 106.202 59.6963 105.842 59.6963C105.385 59.6963 105.002 59.6278 104.695 59.4983C104.387 59.3688 104.145 59.1681 103.969 58.9009C103.794 58.6363 103.702 58.3353 103.692 58.0024ZM111.246 59.024H112.324C112.656 59.024 112.921 58.9921 113.108 58.9328C113.295 58.8708 113.449 58.7823 113.56 58.671C113.717 58.5159 113.843 58.2989 113.929 58.0343C114.016 57.7698 114.062 57.446 114.062 57.0675C114.062 56.543 113.975 56.1371 113.803 55.8543C113.629 55.5716 113.418 55.3827 113.171 55.2888C112.994 55.2204 112.7 55.1866 112.306 55.1866H111.246V59.024ZM110.576 59.6123V54.5974H112.316C112.71 54.5974 113.012 54.6211 113.217 54.6685C113.505 54.7324 113.754 54.8555 113.957 55.0261C114.222 55.2496 114.424 55.5396 114.554 55.8835C114.686 56.2301 114.754 56.6296 114.754 57.0766C114.754 57.4597 114.708 57.7972 114.62 58.0891C114.532 58.3828 114.414 58.63 114.275 58.8206C114.135 59.0121 113.979 59.1654 113.814 59.2748C113.65 59.3843 113.445 59.471 113.212 59.5257C112.977 59.5832 112.701 59.6123 112.399 59.6123H110.576ZM116.627 59.6123V54.5974H120.275V55.1866H117.297V56.7254H120.084V57.3137H117.297V59.024H120.395V59.6123H116.627ZM122.944 56.8102H124.379C124.685 56.8102 124.924 56.7756 125.095 56.7163C125.264 56.6552 125.397 56.5521 125.484 56.4153C125.572 56.2785 125.618 56.128 125.618 55.9665C125.618 55.7293 125.531 55.5305 125.36 55.38C125.187 55.2277 124.911 55.1501 124.543 55.1501H122.944V56.8102ZM122.273 59.6123V54.5974H124.512C124.963 54.5974 125.306 54.6412 125.539 54.7324C125.774 54.8209 125.963 54.9832 126.101 55.2085C126.239 55.4347 126.311 55.6874 126.311 55.9638C126.311 56.3195 126.192 56.6205 125.962 56.8641C125.732 57.1058 125.372 57.2608 124.888 57.3292C125.066 57.4141 125.203 57.498 125.291 57.5783C125.486 57.7543 125.675 57.9796 125.844 58.2459L126.719 59.6123H125.884L125.215 58.5679C125.022 58.2669 124.861 58.0371 124.734 57.8765C124.609 57.7178 124.493 57.6029 124.394 57.5418C124.298 57.4807 124.193 57.4296 124.09 57.4068C124.018 57.394 123.887 57.3849 123.718 57.3849H122.944V59.6123H122.273ZM128.282 59.6123V54.5974H129.284L130.478 58.1465C130.589 58.4749 130.671 58.7248 130.722 58.889C130.777 58.7075 130.869 58.4384 130.988 58.0845L132.206 54.5974H133.101V59.6123H132.458V55.4165L130.984 59.6123H130.382L128.926 55.339V59.6123H128.282ZM136.014 57.5527H137.736L137.208 56.1617C137.047 55.7403 136.928 55.3919 136.845 55.1155C136.776 55.442 136.684 55.7677 136.57 56.0805L136.014 57.5527ZM134.562 59.6123L136.501 54.5974H137.236L139.289 59.6123H138.531L137.943 58.0909H135.816L135.269 59.6123H134.562ZM141.521 59.6123V55.1866H139.858V54.5974H143.859V55.1866H142.192V59.6123H141.521ZM145.848 57.1815C145.848 57.7862 146.014 58.2624 146.34 58.609C146.666 58.9538 147.075 59.1289 147.571 59.1289C148.072 59.1289 148.49 58.9538 148.811 58.6044C149.133 58.2551 149.298 57.7561 149.298 57.1112C149.298 56.7053 149.225 56.3469 149.092 56.0459C148.954 55.743 148.747 55.5031 148.48 55.339C148.214 55.172 147.911 55.0881 147.58 55.0881C147.107 55.0881 146.698 55.2496 146.358 55.5716C146.023 55.8908 145.848 56.429 145.848 57.1815ZM145.155 57.1724C145.155 56.3396 145.384 55.6856 145.835 55.2176C146.28 54.7488 146.864 54.5135 147.576 54.5135C148.044 54.5135 148.467 54.6248 148.839 54.8446C149.211 55.0626 149.5 55.3754 149.693 55.7677C149.891 56.1617 149.987 56.6114 149.987 57.1131C149.987 57.6211 149.886 58.0781 149.679 58.4767C149.473 58.8762 149.179 59.1836 148.802 59.3861C148.421 59.5923 148.012 59.6963 147.576 59.6963C147.098 59.6963 146.671 59.5804 146.299 59.3542C145.927 59.1289 145.637 58.8142 145.444 58.422C145.256 58.0298 145.155 57.6102 145.155 57.1724ZM151.76 59.6123V54.5974H152.431V59.024H154.916V59.6123H151.76ZM157.139 57.1815C157.139 57.7862 157.305 58.2624 157.631 58.609C157.957 58.9538 158.37 59.1289 158.862 59.1289C159.367 59.1289 159.781 58.9538 160.107 58.6044C160.428 58.2551 160.594 57.7561 160.594 57.1112C160.594 56.7053 160.52 56.3469 160.383 56.0459C160.245 55.743 160.038 55.5031 159.776 55.339C159.51 55.172 159.207 55.0881 158.876 55.0881C158.403 55.0881 157.994 55.2496 157.654 55.5716C157.314 55.8908 157.139 56.429 157.139 57.1815ZM156.45 57.1724C156.45 56.3396 156.675 55.6856 157.126 55.2176C157.576 54.7488 158.159 54.5135 158.871 54.5135C159.335 54.5135 159.758 54.6248 160.134 54.8446C160.506 55.0626 160.796 55.3754 160.989 55.7677C161.182 56.1617 161.283 56.6114 161.283 57.1131C161.283 57.6211 161.177 58.0781 160.975 58.4767C160.768 58.8762 160.47 59.1836 160.093 59.3861C159.716 59.5923 159.307 59.6963 158.866 59.6963C158.389 59.6963 157.966 59.5804 157.59 59.3542C157.218 59.1289 156.933 58.8142 156.74 58.422C156.547 58.0298 156.45 57.6102 156.45 57.1724ZM165.449 57.6439V57.0565H167.585V58.9145C167.259 59.1745 166.919 59.3706 166.57 59.5001C166.221 59.6306 165.863 59.6963 165.495 59.6963C164.999 59.6963 164.549 59.5895 164.14 59.3797C163.74 59.1718 163.428 58.8626 163.226 58.4658C163.019 58.069 162.913 57.6211 162.913 57.1286C162.913 56.6406 163.019 56.1827 163.221 55.7631C163.428 55.3417 163.722 55.0243 164.108 54.8209C164.494 54.6156 164.939 54.5135 165.445 54.5135C165.807 54.5135 166.138 54.5727 166.432 54.6895C166.726 54.8053 166.961 54.9723 167.126 55.1793C167.291 55.3891 167.42 55.6628 167.507 56.0003L166.905 56.1644C166.827 55.909 166.735 55.7084 166.625 55.5624C166.515 55.4192 166.35 55.2979 166.143 55.2113C165.936 55.1273 165.702 55.079 165.445 55.079C165.141 55.079 164.875 55.1292 164.655 55.2204C164.434 55.3089 164.255 55.4347 164.117 55.5852C163.984 55.7339 163.869 55.9017 163.8 56.0805C163.671 56.3897 163.607 56.7272 163.607 57.093C163.607 57.5399 163.685 57.9158 163.837 58.2168C163.988 58.5178 164.223 58.7431 164.512 58.8872C164.811 59.0331 165.123 59.1088 165.458 59.1088C165.748 59.1088 166.033 59.0514 166.304 58.9419C166.579 58.8325 166.786 58.7111 166.928 58.5844V57.6439H165.449ZM169.625 59.6123V54.5974H170.295V59.6123H169.625ZM174.77 58.2259C175.155 58.3353 175.472 58.495 175.72 58.7048C176.111 58.349 176.308 57.8154 176.308 57.104C176.308 56.6981 176.24 56.3451 176.102 56.044C175.964 55.7403 175.757 55.5031 175.491 55.339C175.224 55.172 174.926 55.0881 174.595 55.0881C174.094 55.0881 173.681 55.2587 173.355 55.5943C173.028 55.9318 172.863 56.4354 172.863 57.1085C172.863 57.758 173.028 58.2578 173.35 58.6062C173.676 58.9556 174.09 59.1289 174.595 59.1289C174.829 59.1289 175.054 59.086 175.266 58.9966C175.059 58.8626 174.838 58.7668 174.609 58.7093L174.77 58.2259ZM176.235 59.0742C176.547 59.2858 176.837 59.4409 177.098 59.5394L176.901 60C176.538 59.8723 176.175 59.6671 175.812 59.3861C175.44 59.5941 175.027 59.6963 174.576 59.6963C174.117 59.6963 173.704 59.585 173.332 59.3688C172.964 59.1517 172.675 58.8416 172.473 58.4448C172.275 58.0498 172.174 57.6029 172.174 57.1058C172.174 56.6114 172.275 56.1599 172.477 55.7558C172.675 55.3526 172.969 55.0407 173.341 54.83C173.708 54.6211 174.131 54.5135 174.59 54.5135C175.054 54.5135 175.477 54.6229 175.849 54.8418C176.221 55.0608 176.51 55.3709 176.703 55.7649C176.901 56.1581 176.997 56.6068 176.997 57.1021C176.997 57.5144 176.933 57.8857 176.809 58.2149C176.685 58.5433 176.492 58.8297 176.235 59.0742ZM182.151 54.5974H182.822V57.4943C182.822 57.9951 182.762 58.3992 182.648 58.6956C182.537 58.9903 182.326 59.2338 182.027 59.4162C181.729 59.6005 181.338 59.6963 180.851 59.6963C180.378 59.6963 179.992 59.6151 179.694 59.4527C179.395 59.2931 179.175 59.0559 179.051 58.7504C178.922 58.4448 178.858 58.0252 178.858 57.4943V54.5974H179.528V57.4916C179.528 57.9249 179.57 58.2514 179.648 58.4567C179.73 58.6592 179.873 58.8233 180.066 58.9328C180.263 59.0423 180.507 59.1015 180.792 59.1015C181.283 59.1015 181.632 58.9903 181.839 58.7686C182.046 58.5497 182.151 58.1237 182.151 57.4916V54.5974ZM184.673 59.6123V54.5974H188.321V55.1866H185.344V56.7254H188.128V57.3137H185.344V59.024H188.44V59.6123H184.673ZM189.983 58.0024L190.613 57.9449C190.64 58.1985 190.714 58.4065 190.819 58.5652C190.93 58.7248 191.1 58.8598 191.329 58.9574C191.554 59.0559 191.816 59.1088 192.106 59.1088C192.358 59.1088 192.588 59.0696 192.781 58.9939C192.974 58.9218 193.116 58.8142 193.213 58.682C193.309 58.5524 193.355 58.4083 193.355 58.2532C193.355 58.0982 193.309 57.9595 193.222 57.8428C193.13 57.7288 192.974 57.6266 192.767 57.5463C192.634 57.498 192.326 57.4113 191.867 57.3019C191.403 57.1952 191.077 57.0857 190.888 56.9899C190.649 56.8641 190.47 56.7053 190.351 56.522C190.236 56.3377 190.176 56.128 190.176 55.8981C190.176 55.6427 190.25 55.4028 190.392 55.1866C190.535 54.9668 190.751 54.7962 191.026 54.684C191.302 54.5727 191.614 54.5135 191.954 54.5135C192.326 54.5135 192.661 54.5755 192.942 54.6913C193.226 54.8099 193.451 54.9905 193.603 55.2204C193.755 55.4511 193.842 55.7175 193.851 56.0121L193.208 56.0595C193.176 55.7448 193.057 55.5031 192.859 55.3435C192.661 55.1839 192.367 55.1018 191.977 55.1018C191.577 55.1018 191.279 55.1748 191.095 55.3207C190.911 55.4694 190.819 55.6464 190.819 55.8543C190.819 56.0349 190.884 56.1845 191.012 56.2985C191.141 56.4135 191.481 56.5357 192.023 56.657C192.565 56.7756 192.942 56.885 193.139 56.9763C193.433 57.1058 193.654 57.2818 193.792 57.4871C193.929 57.6895 193.998 57.9294 193.998 58.1985C193.998 58.4658 193.925 58.7166 193.768 58.951C193.617 59.1836 193.392 59.3706 193.107 59.5001C192.822 59.6278 192.496 59.6963 192.133 59.6963C191.678 59.6963 191.293 59.6278 190.989 59.4983C190.682 59.3688 190.438 59.1681 190.264 58.9009C190.089 58.6363 189.993 58.3353 189.983 58.0024ZM44 59.6123V54.5974H44.6697V59.024H47.153V59.6123H44Z" fill="#3B6C8A"/>
</g>
<defs>
<clipPath id="clip0_2754_74977">
<rect width="160" height="40" fill="white" transform="translate(44 20)"/>
</clipPath>
</defs>
</svg>
