<svg width="19" height="18" viewBox="0 0 19 18" fill="none" xmlns="http://www.w3.org/2000/svg">
<path d="M9.5 1.40625C7.9981 1.40625 6.52993 1.85162 5.28114 2.68603C4.03236 3.52044 3.05905 4.70642 2.48429 6.094C1.90954 7.48157 1.75916 9.00842 2.05217 10.4815C2.34517 11.9545 3.06841 13.3076 4.13041 14.3696C5.19242 15.4316 6.54549 16.1548 8.01854 16.4478C9.49158 16.7408 11.0184 16.5905 12.406 16.0157C13.7936 15.441 14.9796 14.4676 15.814 13.2189C16.6484 11.9701 17.0938 10.5019 17.0938 9C17.0915 6.9867 16.2907 5.0565 14.8671 3.63287C13.4435 2.20925 11.5133 1.40848 9.5 1.40625ZM9.5 14.9062C8.33186 14.9062 7.18994 14.5599 6.21867 13.9109C5.24739 13.2619 4.49037 12.3394 4.04334 11.2602C3.59631 10.181 3.47935 8.99345 3.70724 7.84775C3.93513 6.70205 4.49765 5.64965 5.32365 4.82365C6.14966 3.99765 7.20205 3.43513 8.34775 3.20724C9.49345 2.97934 10.681 3.09631 11.7602 3.54334C12.8395 3.99037 13.7619 4.74739 14.4109 5.71866C15.0599 6.68994 15.4063 7.83185 15.4063 9C15.4046 10.5659 14.7818 12.0672 13.6745 13.1745C12.5672 14.2818 11.0659 14.9046 9.5 14.9062ZM8.65625 9.28125V5.625C8.65625 5.40122 8.74515 5.18661 8.90338 5.02838C9.06162 4.87014 9.27623 4.78125 9.5 4.78125C9.72378 4.78125 9.93839 4.87014 10.0966 5.02838C10.2549 5.18661 10.3438 5.40122 10.3438 5.625V9.28125C10.3438 9.50503 10.2549 9.71964 10.0966 9.87787C9.93839 10.0361 9.72378 10.125 9.5 10.125C9.27623 10.125 9.06162 10.0361 8.90338 9.87787C8.74515 9.71964 8.65625 9.50503 8.65625 9.28125ZM10.625 12.0938C10.625 12.3163 10.559 12.5338 10.4354 12.7188C10.3118 12.9038 10.1361 13.048 9.93052 13.1331C9.72496 13.2183 9.49876 13.2405 9.28053 13.1971C9.0623 13.1537 8.86184 13.0466 8.70451 12.8892C8.54717 12.7319 8.44003 12.5315 8.39662 12.3132C8.35321 12.095 8.37549 11.8688 8.46064 11.6632C8.54579 11.4577 8.68998 11.282 8.87499 11.1583C9.05999 11.0347 9.2775 10.9688 9.5 10.9688C9.79837 10.9688 10.0845 11.0873 10.2955 11.2983C10.5065 11.5092 10.625 11.7954 10.625 12.0938Z" fill="#D14343"/>
</svg>
