<svg width="148" height="49" viewBox="0 0 148 49" fill="none" xmlns="http://www.w3.org/2000/svg">
<path fill-rule="evenodd" clip-rule="evenodd" d="M26.439 14.902L26.3794 14.8422C25.8219 14.2622 23.4459 12.863 20.8791 12.7524C18.4732 12.582 15.96 12.5252 15.96 12.5252V23.1924L16.595 22.4061C16.6159 22.3822 19.1738 19.2131 20.5243 18.3671C21.8808 17.5479 22.5992 17.527 23.5115 17.7332C23.7768 17.7871 23.9467 17.8319 24.0451 17.8708L23.1209 22.9353C22.9123 22.7888 22.6469 22.6304 22.3339 22.5168C21.5111 22.2178 20.411 22.2327 19.299 23.318C17.3523 25.2583 16.1359 26.7711 16.0465 27.4198C16.0048 27.7039 16.0197 28.0447 16.0346 29.7249C16.0525 31.441 16.0763 33.166 16.0763 33.5188C16.0763 34.2573 16.4251 36.1139 17.4864 37.232L17.7458 37.5071H10.9963C11.041 37.4533 11.0798 37.3935 11.1245 37.3307C11.4673 36.8194 11.8311 36.072 11.8907 35.1602C11.9771 33.5039 12.0427 18.2744 12.0427 18.2744C12.0427 18.2744 12.0934 14.1367 12.0755 13.748C12.0546 13.3055 11.8281 11.9123 11.1335 10.8211L10.6445 10.0468L28.7614 10.1783L28.7942 10.1723C28.4812 10.7613 26.7521 14.2592 26.439 14.902Z" fill="#176936"/>
<path fill-rule="evenodd" clip-rule="evenodd" d="M46.4207 27.7157L46.7635 27.5931C46.7635 27.5931 48.2332 27.049 49.6881 25.892C51.0475 24.8307 52.2609 23.1505 52.553 22.128C52.7349 21.4314 52.72 20.8753 52.5888 20.3132C52.4487 19.6256 52.1774 18.9679 51.7242 18.5732C50.9223 17.8467 49.8848 17.8258 48.7192 17.8766C47.6608 17.9514 46.4177 18.2533 46.4177 18.2533V27.7157H46.4207ZM42.077 37.5667C42.1545 37.4771 42.235 37.3605 42.3155 37.2439C42.6434 36.7476 42.9803 36.0181 42.9803 35.0913C42.9803 33.3662 43.0817 27.8891 43.0817 27.8891L43.0608 21.0906C43.0549 20.3043 43.0638 19.4492 42.9237 18.654C42.7806 17.8378 42.4705 17.0545 41.8057 16.4326C41.7461 16.3728 41.6895 16.322 41.6328 16.2742C44.8585 16.322 48.2601 16.2802 51.4917 16.2802C51.5364 16.2831 51.8047 16.2891 52.1834 16.337C52.6007 16.3848 53.1403 16.4775 53.665 16.6419C55.0841 17.1053 56.3243 18.5493 56.533 20.0741C56.7267 21.3567 56.211 22.8784 55.409 23.9098C54.6548 24.8665 53.5517 25.8173 53.3371 25.9279C52.9585 26.1671 52.723 26.3255 52.723 26.3255C52.723 26.3255 53.7574 28.6993 54.8515 31.0193C55.9337 33.3094 57.1948 35.8148 57.8179 36.4277C58.119 36.7117 58.3783 36.903 58.6019 36.9927C58.8434 37.0914 59.0849 37.0854 59.2727 36.915C59.4337 36.7715 59.5142 36.5503 59.5678 36.335C59.6185 36.1257 59.6573 35.8686 59.6901 35.5876C59.8242 34.5083 60.3191 29.3122 60.3191 29.3122L60.9153 21.2849C60.9213 21.2221 60.9869 20.4448 60.9869 19.5688C60.9809 18.6988 60.9154 17.6016 60.5606 17.1023C60.334 16.7764 60.1104 16.5193 59.9196 16.328H65.3156C65.3365 16.3579 65.3753 16.3997 65.417 16.4476C65.5243 16.5821 65.6764 16.8063 65.8284 17.1322C66.1563 17.8198 72.3543 31.0552 72.3543 31.0552L78.2631 17.1232C78.2631 17.1232 78.3525 16.893 78.4598 16.6688C78.5075 16.5672 78.5612 16.4565 78.6149 16.3788L78.6417 16.3459H82.3891C82.3533 16.3938 82.3175 16.4446 82.2818 16.4984C82.0611 16.8123 81.7958 17.2608 81.7481 17.6614C81.6348 18.3729 81.766 19.3655 81.8793 20.1578C81.9866 20.977 83.9423 31.979 83.9423 31.979C83.9512 32.0268 84.0407 32.565 84.1957 33.2526C84.3507 33.9552 84.5803 34.8491 84.8635 35.5009C85.1229 36.1347 85.2809 36.4636 85.415 36.6639C85.4806 36.7745 85.5402 36.8462 85.6088 36.909C85.6595 36.9628 85.7131 37.0107 85.7877 37.0794C85.9039 37.208 86.1305 37.4053 86.3332 37.5817H80.4841C80.6898 37.3306 80.9015 36.9778 80.9253 36.5353C80.9581 35.7341 80.6987 33.1002 80.3171 31.4797C79.9445 29.8892 78.4181 22.7648 78.4181 22.7648L73.5885 34.0569L71.8117 38.5563L63.509 21.3507L62.3881 33.3782C62.3732 33.4769 62.2748 33.9821 62.2927 34.607C62.3106 35.2946 62.4537 36.1855 63.032 36.8283C63.3152 37.1631 63.5358 37.4083 63.7147 37.5847L56.5657 37.5697C55.1795 37.5697 53.6263 35.3245 52.9942 34.0868C52.5471 33.1719 49.9087 27.8712 49.9087 27.8712L46.5846 30.3855L46.6711 34.6339C46.6711 34.7026 46.6711 35.0763 46.7456 35.5218C46.8201 36.0091 46.999 36.631 47.3925 37.0465C47.631 37.2857 47.8278 37.4531 47.9828 37.5667H42.077Z" fill="#176936"/>
<path fill-rule="evenodd" clip-rule="evenodd" d="M102.741 37.6027C103.23 37.0825 103.645 36.2663 103.752 35.8926C103.85 35.489 103.984 33.8536 103.973 33.3514C103.952 32.879 103.973 29.6262 103.973 29.3362V24.3643C103.973 22.3882 103.973 20.8066 103.648 18.8573C103.522 18.095 103.26 17.2339 102.92 16.7287C102.813 16.5702 102.723 16.4566 102.625 16.355C103.528 16.346 105.105 16.337 105.505 16.337C105.728 16.346 105.886 16.4088 106.012 16.4925C106.08 16.5344 106.146 16.5941 106.196 16.639C106.271 16.6928 106.334 16.7556 106.402 16.8064C106.629 16.9948 109.822 20.705 110.245 21.2132C110.653 21.7095 114.35 26.0834 114.437 26.1851C114.496 26.2479 114.702 26.4302 114.917 26.2449C115.063 26.1283 115.089 25.91 115.089 25.7097C115.089 25.321 115.11 21.7245 115.11 21.2371C115.11 21.0009 115.087 20.418 115.11 19.7692C115.131 19.1204 115.188 18.4268 115.346 17.9545C115.531 17.4731 115.656 17.219 115.748 17.0575C115.787 16.9858 115.826 16.929 115.865 16.8871C115.903 16.8333 115.945 16.7885 115.987 16.7436C116.076 16.627 116.33 16.4357 116.446 16.355L119.15 16.3729C119.099 16.4297 119.01 16.5045 118.917 16.6061C118.804 16.7197 118.679 16.8632 118.554 17.0247C118.3 17.3745 118.05 17.8319 117.984 18.4448C117.868 19.5749 117.782 21.3089 117.767 21.6677C117.746 22.0324 117.695 24.9443 117.695 25.1118C117.674 25.5094 117.591 29.677 117.591 29.8983C117.591 30.0986 117.561 33.8237 117.561 34.0958C117.561 34.2931 117.576 35.3006 117.713 36.1677C117.785 36.6639 117.928 37.1363 118.044 37.3845C118.089 37.4592 118.127 37.5309 118.166 37.5967H114.621C114.824 37.2589 114.997 36.7357 114.997 35.9404C114.997 34.4127 114.929 32.5322 114.929 32.5322C114.929 32.5322 112.651 29.7219 111.852 28.819C111.038 27.934 109.693 26.3854 109.693 26.3854L106.292 22.439L106.352 29.677L106.423 34.2991C106.423 34.2991 106.423 34.8492 106.524 35.492C106.608 36.1019 106.796 36.8882 107.219 37.2948L107.511 37.5937H102.741V37.6027Z" fill="#176936"/>
<path fill-rule="evenodd" clip-rule="evenodd" d="M101.64 27.0132C101.623 33.1779 99.0408 37.8777 94.0741 37.9584C89.1044 38.0362 86.0039 33.1092 86.0039 26.9624C86.0039 20.7857 88.4515 15.8497 93.8535 15.9244C99.2614 16.0261 101.64 20.8425 101.64 27.0132ZM90.0554 26.9653C90.0554 31.8057 91.4089 36.4516 93.9489 36.1975C96.4173 35.9464 97.8006 31.9043 97.8006 26.9952C97.8006 22.125 96.7333 17.778 93.9489 17.6614C91.1227 17.5628 90.0554 22.1161 90.0554 26.9653Z" fill="#176936"/>
<path fill-rule="evenodd" clip-rule="evenodd" d="M33.0364 25.0101L31.2745 18.1936L27.4914 29.5425L33.0364 25.0101ZM27.077 37.5518H23.103C23.103 37.5518 23.0851 37.501 23.0702 37.4771C23.0225 37.3545 22.9659 37.1183 22.9689 36.7297C23.0046 35.8746 23.6516 33.8656 23.7917 33.444C23.9169 33.0314 25.0021 29.9162 25.1869 29.4259C25.3538 28.9356 26.4241 26.1731 26.7312 25.5094C27.0203 24.8217 27.8819 22.1818 28.2754 20.7229C28.6719 19.243 28.6928 18.0561 28.6421 17.4791C28.6153 17.1771 28.508 16.7825 28.4185 16.4715L28.35 16.2533C29.5782 16.2623 33.582 16.2892 33.8533 16.2892C33.9666 16.2892 34.3273 17.1083 34.384 17.2548L35.6241 21.0278L37.8839 28.9954C37.8839 28.9954 39.5027 34.3917 39.9082 35.8537C40.1019 36.5473 40.0632 37.0197 39.9827 37.3037C39.9499 37.4472 39.9022 37.5399 39.8694 37.6057L34.7417 37.6356C34.9027 37.4173 35.1084 37.1243 35.3618 36.7267C35.6987 36.2005 35.7106 35.4352 35.6599 34.8552C35.6033 34.2572 35.481 33.7789 35.481 33.7789C35.481 33.7789 34.1186 29.1598 33.9159 28.1881C33.6983 27.073 33.4687 26.9743 32.5416 27.5693C31.7575 28.0955 28.9313 30.6008 28.0548 31.5336C27.1813 32.4754 26.2393 33.6324 26.126 35.2289C26.0753 36.072 26.4539 36.7745 26.8266 37.2469C26.9041 37.3605 26.9965 37.4592 27.077 37.5518Z" fill="#176936"/>
<path fill-rule="evenodd" clip-rule="evenodd" d="M122.911 10.3815L129.18 10.4144L129.231 10.4443C129.317 10.4921 129.436 10.5698 129.565 10.6745C129.83 10.8927 130.155 11.2305 130.399 11.7448C130.924 12.8629 131.848 15.2726 132.647 18.2115C133.434 21.1593 135.617 28.9116 135.617 28.9116L137.206 34.7833C137.229 34.9209 137.438 36.0749 137.402 36.5323C137.393 36.6937 137.322 37.0047 137.223 37.2737C137.185 37.3963 137.134 37.501 137.104 37.5637H132.376L132.427 37.5039C132.793 37.0435 133.133 36.329 133.029 35.3484C132.856 33.5605 132.558 32.6367 132.364 31.973L131.836 30.3167L127.287 28.4003L124.222 27.2344L124.121 27.6021C123.513 29.7158 122.89 31.8026 122.583 33.9642C122.562 34.1256 122.493 34.5621 122.46 35.0195C122.428 35.453 122.404 35.9822 122.49 36.2812C122.651 36.8671 122.89 37.2678 123.137 37.5578H120.379C120.314 37.474 120.198 37.3276 120.099 37.1691C119.917 36.8462 119.742 36.4067 119.768 35.8865C119.855 34.7415 119.9 34.595 120.084 33.9372C120.272 33.2496 120.573 32.1434 120.785 31.4468C120.991 30.7502 121.348 29.5364 121.417 29.357C121.465 29.1956 122.431 25.9189 122.431 25.9189C122.431 25.9189 123.662 21.3985 123.695 21.1832C123.73 20.971 124.315 18.5493 124.41 17.9902C124.663 16.5701 125.027 14.4564 124.473 12.7134C124.33 12.262 124.055 11.6162 123.718 11.2216C123.596 11.0781 123.325 10.7881 123.063 10.5339L122.911 10.3815ZM124.824 25.2163L131.306 27.9728L127.818 15.5118L127.436 14.1634L124.824 25.2163Z" fill="#176936"/>
</svg>
