<svg width="24" height="16" viewBox="0 0 24 16" fill="none" xmlns="http://www.w3.org/2000/svg">
<g clip-path="url(#clip0_2785_23858)">
<mask id="mask0_2785_23858" style="mask-type:alpha" maskUnits="userSpaceOnUse" x="0" y="0" width="24" height="16">
<path d="M21.7143 0H2.28571C1.02335 0 0 0.955126 0 2.13333V13.8667C0 15.0449 1.02335 16 2.28571 16H21.7143C22.9767 16 24 15.0449 24 13.8667V2.13333C24 0.955126 22.9767 0 21.7143 0Z" fill="white"/>
</mask>
<g mask="url(#mask0_2785_23858)">
<path d="M21.7143 0H2.28571C1.02335 0 0 0.955126 0 2.13333V13.8667C0 15.0449 1.02335 16 2.28571 16H21.7143C22.9767 16 24 15.0449 24 13.8667V2.13333C24 0.955126 22.9767 0 21.7143 0Z" fill="white"/>
<path fill-rule="evenodd" clip-rule="evenodd" d="M16 8.00039C16 10.0623 14.2091 11.7337 12 11.7337C9.79086 11.7337 8 10.0623 8 8.00039C8 6.80572 10.6857 6.30439 12.9463 6.49319C13.1863 6.43346 13.4446 6.40039 13.7143 6.40039C14.9771 6.40039 16 7.11719 16 8.00039Z" fill="#0048AB"/>
<path fill-rule="evenodd" clip-rule="evenodd" d="M11.4286 7.46758C11.4286 7.46758 12.4514 6.40091 13.7143 6.40091C14.9771 6.40091 16 7.11771 16 8.00091C16 5.93904 14.2091 4.26758 12 4.26758C10.4034 4.26758 9.02514 5.14011 8.384 6.40304C8 7.46758 8 7.77904 8 8.00091C8.57143 8.53425 9.20686 8.53425 9.71429 8.53425C10.2217 8.53425 10.6777 8.32838 10.992 8.00091L11.4286 7.46758Z" fill="#CD0027"/>
<path fill-rule="evenodd" clip-rule="evenodd" d="M17.1429 5.33255H19.4286L17.1429 3.19922H16L17.1429 5.33255ZM6.85714 5.33255H4.57143L6.85714 3.19922H8L6.85714 5.33255ZM17.1429 10.6659H19.4286L17.1429 12.7992H16L17.1429 10.6659ZM6.85714 10.6659H4.57143L6.85714 12.7992H8L6.85714 10.6659Z" fill="#252526"/>
<path d="M21.7143 0.533203H2.28571C1.33894 0.533203 0.571426 1.24955 0.571426 2.1332V13.8665C0.571426 14.7502 1.33894 15.4665 2.28571 15.4665H21.7143C22.6611 15.4665 23.4286 14.7502 23.4286 13.8665V2.1332C23.4286 1.24955 22.6611 0.533203 21.7143 0.533203Z" stroke="black" stroke-opacity="0.1" stroke-width="1.14286"/>
</g>
</g>
<defs>
<clipPath id="clip0_2785_23858">
<rect width="24" height="16" fill="white"/>
</clipPath>
</defs>
</svg>
