<svg width="24" height="16" viewBox="0 0 24 16" fill="none" xmlns="http://www.w3.org/2000/svg">
<g clip-path="url(#clip0_2785_38596)">
<mask id="mask0_2785_38596" style="mask-type:alpha" maskUnits="userSpaceOnUse" x="0" y="0" width="24" height="16">
<path d="M21.7143 0H2.28571C1.02335 0 0 0.955126 0 2.13333V13.8667C0 15.0449 1.02335 16 2.28571 16H21.7143C22.9767 16 24 15.0449 24 13.8667V2.13333C24 0.955126 22.9767 0 21.7143 0Z" fill="white"/>
</mask>
<g mask="url(#mask0_2785_38596)">
<path d="M21.7143 0H2.28571C1.02335 0 0 0.955126 0 2.13333V13.8667C0 15.0449 1.02335 16 2.28571 16H21.7143C22.9767 16 24 15.0449 24 13.8667V2.13333C24 0.955126 22.9767 0 21.7143 0Z" fill="white"/>
<path fill-rule="evenodd" clip-rule="evenodd" d="M0 0H4.57143V4.26667H0V0ZM6.85714 0H11.4286V4.26667H6.85714V0ZM0 6.4H4.57143V10.6667H0V6.4ZM6.85714 6.4H11.4286V10.6667H6.85714V6.4ZM11.4286 0H24V2.13333H11.4286V0ZM11.4286 4.26667H24V6.4H11.4286V4.26667Z" fill="#005CB2"/>
<path fill-rule="evenodd" clip-rule="evenodd" d="M0 8.5332H24V10.6665H0V8.5332ZM4.57143 8.5332H6.85714V10.6665H4.57143V8.5332ZM0 12.7999H24V14.9332H0V12.7999Z" fill="#005CB2"/>
<path d="M21.7143 0.533203H2.2857C1.33892 0.533203 0.571411 1.24955 0.571411 2.1332V13.8665C0.571411 14.7502 1.33892 15.4665 2.2857 15.4665H21.7143C22.661 15.4665 23.4286 14.7502 23.4286 13.8665V2.1332C23.4286 1.24955 22.661 0.533203 21.7143 0.533203Z" stroke="black" stroke-opacity="0.1" stroke-width="1.14286"/>
</g>
</g>
<defs>
<clipPath id="clip0_2785_38596">
<rect width="24" height="16" fill="white"/>
</clipPath>
</defs>
</svg>
