<svg width="24" height="16" viewBox="0 0 24 16" fill="none" xmlns="http://www.w3.org/2000/svg">
<g clip-path="url(#clip0_2785_42587)">
<mask id="mask0_2785_42587" style="mask-type:alpha" maskUnits="userSpaceOnUse" x="0" y="0" width="24" height="16">
<path d="M21.7143 0H2.28571C1.02335 0 0 0.955126 0 2.13333V13.8667C0 15.0449 1.02335 16 2.28571 16H21.7143C22.9767 16 24 15.0449 24 13.8667V2.13333C24 0.955126 22.9767 0 21.7143 0Z" fill="white"/>
</mask>
<g mask="url(#mask0_2785_42587)">
<path d="M21.7143 0H2.28571C1.02335 0 0 0.955126 0 2.13333V13.8667C0 15.0449 1.02335 16 2.28571 16H21.7143C22.9767 16 24 15.0449 24 13.8667V2.13333C24 0.955126 22.9767 0 21.7143 0Z" fill="#D0091E"/>
<path fill-rule="evenodd" clip-rule="evenodd" d="M3.42857 0L5.71429 1.6L3.42857 3.2V0ZM3.42857 3.2L5.71429 4.8L3.42857 6.4V3.2ZM3.42857 6.4L5.71429 8L3.42857 9.6V6.4ZM3.42857 9.6L5.71429 11.2L3.42857 12.8V9.6ZM3.42857 12.8L5.71429 14.4L3.42857 16V12.8ZM2.28571 0L0 1.6L2.28571 3.2V0ZM2.28571 3.2L0 4.8L2.28571 6.4V3.2ZM2.28571 6.4L0 8L2.28571 9.6V6.4ZM2.28571 9.6L0 11.2L2.28571 12.8V9.6ZM2.28571 12.8L0 14.4L2.28571 16V12.8ZM2.28571 0H3.42857V2.13333H2.28571V0ZM2.28571 13.8667H3.42857V16H2.28571V13.8667ZM2.28571 5.33333H3.42857V7.46667H2.28571V5.33333ZM2.28571 3.2H3.42857V4.26667H2.28571V3.2ZM2.28571 11.7333H3.42857V12.8H2.28571V11.7333ZM2.28571 8.53333H3.42857V10.6667H2.28571V8.53333Z" fill="white"/>
<path fill-rule="evenodd" clip-rule="evenodd" d="M5.71429 11.7324H24V15.9991H5.71429V11.7324Z" fill="#46A753"/>
<path d="M21.7143 0.533203H2.2857C1.33892 0.533203 0.571411 1.24955 0.571411 2.1332V13.8665C0.571411 14.7502 1.33892 15.4665 2.2857 15.4665H21.7143C22.661 15.4665 23.4286 14.7502 23.4286 13.8665V2.1332C23.4286 1.24955 22.661 0.533203 21.7143 0.533203Z" stroke="black" stroke-opacity="0.1" stroke-width="1.14286"/>
</g>
</g>
<defs>
<clipPath id="clip0_2785_42587">
<rect width="24" height="16" fill="white"/>
</clipPath>
</defs>
</svg>
