<svg width="24" height="16" viewBox="0 0 24 16" fill="none" xmlns="http://www.w3.org/2000/svg">
<g clip-path="url(#clip0_2785_42799)">
<mask id="mask0_2785_42799" style="mask-type:alpha" maskUnits="userSpaceOnUse" x="0" y="0" width="24" height="16">
<path d="M21.7143 0H2.28571C1.02335 0 0 0.955126 0 2.13333V13.8667C0 15.0449 1.02335 16 2.28571 16H21.7143C22.9767 16 24 15.0449 24 13.8667V2.13333C24 0.955126 22.9767 0 21.7143 0Z" fill="white"/>
</mask>
<g mask="url(#mask0_2785_42799)">
<path d="M21.7143 0H2.28571C1.02335 0 0 0.955126 0 2.13333V13.8667C0 15.0449 1.02335 16 2.28571 16H21.7143C22.9767 16 24 15.0449 24 13.8667V2.13333C24 0.955126 22.9767 0 21.7143 0Z" fill="#E00000"/>
<path fill-rule="evenodd" clip-rule="evenodd" d="M0 10.666H24V15.9993H0V10.666Z" fill="#FFCF00"/>
<path fill-rule="evenodd" clip-rule="evenodd" d="M0 0H24V5.33333H0V0Z" fill="black"/>
<path d="M21.7143 0.533203H2.28571C1.33894 0.533203 0.571426 1.24955 0.571426 2.1332V13.8665C0.571426 14.7502 1.33894 15.4665 2.28571 15.4665H21.7143C22.6611 15.4665 23.4286 14.7502 23.4286 13.8665V2.1332C23.4286 1.24955 22.6611 0.533203 21.7143 0.533203Z" stroke="black" stroke-opacity="0.1" stroke-width="1.14286"/>
</g>
</g>
<defs>
<clipPath id="clip0_2785_42799">
<rect width="24" height="16" fill="white"/>
</clipPath>
</defs>
</svg>
