<svg width="24" height="16" viewBox="0 0 24 16" fill="none" xmlns="http://www.w3.org/2000/svg">
<g clip-path="url(#clip0_2785_23802)">
<mask id="mask0_2785_23802" style="mask-type:alpha" maskUnits="userSpaceOnUse" x="0" y="0" width="24" height="16">
<path d="M21.7143 0H2.28571C1.02335 0 0 0.955126 0 2.13333V13.8667C0 15.0449 1.02335 16 2.28571 16H21.7143C22.9767 16 24 15.0449 24 13.8667V2.13333C24 0.955126 22.9767 0 21.7143 0Z" fill="white"/>
</mask>
<g mask="url(#mask0_2785_23802)">
<path d="M21.7143 0H2.28571C1.02335 0 0 0.955126 0 2.13333V13.8667C0 15.0449 1.02335 16 2.28571 16H21.7143C22.9767 16 24 15.0449 24 13.8667V2.13333C24 0.955126 22.9767 0 21.7143 0Z" fill="#E70B17"/>
<path fill-rule="evenodd" clip-rule="evenodd" d="M16.0023 9.22819L14.6743 9.87885L14.928 8.49965L13.8538 7.52152L15.3395 7.31885L16.0023 6.06445L16.6652 7.31992L18.1509 7.52259L17.0766 8.49859L17.3303 9.87779" fill="white"/>
<path fill-rule="evenodd" clip-rule="evenodd" d="M10.8572 11.7342C13.0663 11.7342 14.8572 10.0628 14.8572 8.00091C14.8572 5.93904 13.0663 4.26758 10.8572 4.26758C8.64804 4.26758 6.85718 5.93904 6.85718 8.00091C6.85718 10.0628 8.64804 11.7342 10.8572 11.7342ZM12 10.6676C13.5772 10.6676 14.8572 9.47291 14.8572 8.00091C14.8572 6.52891 13.5772 5.33424 12 5.33424C10.4229 5.33424 9.14289 6.52891 9.14289 8.00091C9.14289 9.47291 10.4229 10.6676 12 10.6676Z" fill="white"/>
<path d="M21.7143 0.533203H2.2857C1.33892 0.533203 0.571411 1.24955 0.571411 2.1332V13.8665C0.571411 14.7502 1.33892 15.4665 2.2857 15.4665H21.7143C22.661 15.4665 23.4286 14.7502 23.4286 13.8665V2.1332C23.4286 1.24955 22.661 0.533203 21.7143 0.533203Z" stroke="black" stroke-opacity="0.1" stroke-width="1.14286"/>
</g>
</g>
<defs>
<clipPath id="clip0_2785_23802">
<rect width="24" height="16" fill="white"/>
</clipPath>
</defs>
</svg>
