<svg width="24" height="16" viewBox="0 0 24 16" fill="none" xmlns="http://www.w3.org/2000/svg">
<g clip-path="url(#clip0_2785_1631)">
<mask id="mask0_2785_1631" style="mask-type:alpha" maskUnits="userSpaceOnUse" x="0" y="0" width="24" height="16">
<path d="M21.7143 0H2.28571C1.02335 0 0 0.955126 0 2.13333V13.8667C0 15.0449 1.02335 16 2.28571 16H21.7143C22.9767 16 24 15.0449 24 13.8667V2.13333C24 0.955126 22.9767 0 21.7143 0Z" fill="white"/>
</mask>
<g mask="url(#mask0_2785_1631)">
<path d="M21.7143 0H2.28571C1.02335 0 0 0.955126 0 2.13333V13.8667C0 15.0449 1.02335 16 2.28571 16H21.7143C22.9767 16 24 15.0449 24 13.8667V2.13333C24 0.955126 22.9767 0 21.7143 0Z" fill="#22438B"/>
<path fill-rule="evenodd" clip-rule="evenodd" d="M3.42856 1.06641L1.11313 1.09414L1.14284 3.19974L20.5508 14.9629L22.8788 14.9235L22.8354 12.8307L3.42856 1.06641Z" fill="white"/>
<path fill-rule="evenodd" clip-rule="evenodd" d="M2.28571 1.06641L1.14285 2.13307L21.7143 14.9331L22.8571 13.8664L2.28571 1.06641Z" fill="#C7152A"/>
<path fill-rule="evenodd" clip-rule="evenodd" d="M20.5714 1.06641H22.8571V3.19974C22.8571 3.19974 9.42856 11.0888 3.44913 14.9629C3.37713 15.0099 1.1657 14.9661 1.1657 14.9661L0.988556 12.9384L20.5714 1.06641Z" fill="white"/>
<path fill-rule="evenodd" clip-rule="evenodd" d="M21.7634 1.03711L22.8571 2.13364L2.28571 14.9336L1.14285 13.867L21.7634 1.03711Z" fill="#C7152A"/>
<path fill-rule="evenodd" clip-rule="evenodd" d="M9.14285 1.06641H14.8571V5.33307H22.8571V10.6664H14.8571V14.9331H9.14285V10.6664H1.14285V5.33307H9.14285V1.06641Z" fill="white"/>
<path fill-rule="evenodd" clip-rule="evenodd" d="M10.2857 1.06641H13.7143V6.39974H22.8571V9.59974H13.7143V14.9331H10.2857V9.59974H1.14285V6.39974H10.2857V1.06641Z" fill="#C7152A"/>
<path d="M21.7143 0.533203H2.28573C1.33895 0.533203 0.571442 1.24955 0.571442 2.1332V13.8665C0.571442 14.7502 1.33895 15.4665 2.28573 15.4665H21.7143C22.6611 15.4665 23.4286 14.7502 23.4286 13.8665V2.1332C23.4286 1.24955 22.6611 0.533203 21.7143 0.533203Z" stroke="black" stroke-opacity="0.1" stroke-width="1.14286"/>
</g>
</g>
<defs>
<clipPath id="clip0_2785_1631">
<rect width="24" height="16" fill="white"/>
</clipPath>
</defs>
</svg>
