<svg width="24" height="16" viewBox="0 0 24 16" fill="none" xmlns="http://www.w3.org/2000/svg">
<g clip-path="url(#clip0_2785_52179)">
<mask id="mask0_2785_52179" style="mask-type:alpha" maskUnits="userSpaceOnUse" x="0" y="0" width="24" height="16">
<path d="M21.7143 0H2.28571C1.02335 0 0 0.955126 0 2.13333V13.8667C0 15.0449 1.02335 16 2.28571 16H21.7143C22.9767 16 24 15.0449 24 13.8667V2.13333C24 0.955126 22.9767 0 21.7143 0Z" fill="white"/>
</mask>
<g mask="url(#mask0_2785_52179)">
<path d="M21.7143 0H2.28571C1.02335 0 0 0.955126 0 2.13333V13.8667C0 15.0449 1.02335 16 2.28571 16H21.7143C22.9767 16 24 15.0449 24 13.8667V2.13333C24 0.955126 22.9767 0 21.7143 0Z" fill="white"/>
<path fill-rule="evenodd" clip-rule="evenodd" d="M10.2857 9.6H0V6.4H10.2857V0H13.7143V6.4H24V9.6H13.7143V16H10.2857V9.6Z" fill="#FF0000"/>
<path fill-rule="evenodd" clip-rule="evenodd" d="M17.1428 11.7328H16V12.7995H17.1428V13.8661H18.2857V12.7995H19.4286V11.7328H18.2857V10.6661H17.1428V11.7328ZM17.1428 3.19948H16V4.26615H17.1428V5.33281H18.2857V4.26615H19.4286V3.19948H18.2857V2.13281H17.1428V3.19948ZM5.71427 3.19948H4.57141V4.26615H5.71427V5.33281H6.85713V4.26615H7.99998V3.19948H6.85713V2.13281H5.71427V3.19948ZM5.71427 11.7328H4.57141V12.7995H5.71427V13.8661H6.85713V12.7995H7.99998V11.7328H6.85713V10.6661H5.71427V11.7328Z" fill="#FF0000"/>
<path d="M21.7143 0.533203H2.2857C1.33892 0.533203 0.571411 1.24955 0.571411 2.1332V13.8665C0.571411 14.7502 1.33892 15.4665 2.2857 15.4665H21.7143C22.661 15.4665 23.4286 14.7502 23.4286 13.8665V2.1332C23.4286 1.24955 22.661 0.533203 21.7143 0.533203Z" stroke="black" stroke-opacity="0.1" stroke-width="1.14286"/>
</g>
</g>
<defs>
<clipPath id="clip0_2785_52179">
<rect width="24" height="16" fill="white"/>
</clipPath>
</defs>
</svg>
