<svg width="24" height="16" viewBox="0 0 24 16" fill="none" xmlns="http://www.w3.org/2000/svg">
<g clip-path="url(#clip0_2785_26250)">
<mask id="mask0_2785_26250" style="mask-type:alpha" maskUnits="userSpaceOnUse" x="0" y="0" width="24" height="16">
<path d="M21.7143 0H2.28571C1.02335 0 0 0.955126 0 2.13333V13.8667C0 15.0449 1.02335 16 2.28571 16H21.7143C22.9767 16 24 15.0449 24 13.8667V2.13333C24 0.955126 22.9767 0 21.7143 0Z" fill="white"/>
</mask>
<g mask="url(#mask0_2785_26250)">
<path d="M21.7143 0H2.28571C1.02335 0 0 0.955126 0 2.13333V13.8667C0 15.0449 1.02335 16 2.28571 16H21.7143C22.9767 16 24 15.0449 24 13.8667V2.13333C24 0.955126 22.9767 0 21.7143 0Z" fill="white"/>
<path fill-rule="evenodd" clip-rule="evenodd" d="M0 0H10.2857V7.46667H0V0Z" fill="#444379"/>
<path fill-rule="evenodd" clip-rule="evenodd" d="M1.14285 1.06641V2.13307H2.28571V1.06641H1.14285ZM3.42857 1.06641V2.13307H4.57142V1.06641H3.42857ZM5.71428 1.06641V2.13307H6.85714V1.06641H5.71428ZM8 1.06641V2.13307H9.14285V1.06641H8ZM6.85714 2.13307V3.19974H8V2.13307H6.85714ZM4.57142 2.13307V3.19974H5.71428V2.13307H4.57142ZM2.28571 2.13307V3.19974H3.42857V2.13307H2.28571ZM1.14285 3.19974V4.26641H2.28571V3.19974H1.14285ZM3.42857 3.19974V4.26641H4.57142V3.19974H3.42857ZM5.71428 3.19974V4.26641H6.85714V3.19974H5.71428ZM8 3.19974V4.26641H9.14285V3.19974H8ZM1.14285 5.33307V6.39974H2.28571V5.33307H1.14285ZM3.42857 5.33307V6.39974H4.57142V5.33307H3.42857ZM5.71428 5.33307V6.39974H6.85714V5.33307H5.71428ZM8 5.33307V6.39974H9.14285V5.33307H8ZM6.85714 4.26641V5.33307H8V4.26641H6.85714ZM4.57142 4.26641V5.33307H5.71428V4.26641H4.57142ZM2.28571 4.26641V5.33307H3.42857V4.26641H2.28571Z" fill="#A7B6E7"/>
<path fill-rule="evenodd" clip-rule="evenodd" d="M10.2857 0V1.06667H24V0H10.2857ZM10.2857 2.13333V3.2H24V2.13333H10.2857ZM10.2857 4.26667V5.33333H24V4.26667H10.2857ZM10.2857 6.4V7.46667H24V6.4H10.2857ZM0 8.53333V9.6H24V8.53333H0ZM0 10.6667V11.7333H24V10.6667H0ZM0 12.8V13.8667H24V12.8H0ZM0 14.9333V16H24V14.9333H0Z" fill="#ED4C49"/>
<path d="M21.7143 0.533203H2.28573C1.33895 0.533203 0.571442 1.24955 0.571442 2.1332V13.8665C0.571442 14.7502 1.33895 15.4665 2.28573 15.4665H21.7143C22.6611 15.4665 23.4286 14.7502 23.4286 13.8665V2.1332C23.4286 1.24955 22.6611 0.533203 21.7143 0.533203Z" stroke="black" stroke-opacity="0.1" stroke-width="1.14286"/>
</g>
</g>
<defs>
<clipPath id="clip0_2785_26250">
<rect width="24" height="16" fill="white"/>
</clipPath>
</defs>
</svg>
