<svg width="18" height="18" viewBox="0 0 18 18" fill="none" xmlns="http://www.w3.org/2000/svg">
<path d="M16.3125 9.39844H15.7261C15.5911 7.80898 14.8984 6.31847 13.7704 5.19051C12.6425 4.06255 11.152 3.36982 9.5625 3.23484V2.64844C9.5625 2.49925 9.50324 2.35618 9.39775 2.25069C9.29226 2.1452 9.14918 2.08594 9 2.08594C8.85082 2.08594 8.70774 2.1452 8.60225 2.25069C8.49676 2.35618 8.4375 2.49925 8.4375 2.64844V3.23484C6.84805 3.36982 5.35753 4.06255 4.22957 5.19051C3.10161 6.31847 2.40889 7.80898 2.27391 9.39844H1.6875C1.53832 9.39844 1.39524 9.4577 1.28975 9.56319C1.18426 9.66868 1.125 9.81175 1.125 9.96094C1.125 10.1101 1.18426 10.2532 1.28975 10.3587C1.39524 10.4642 1.53832 10.5234 1.6875 10.5234H2.27391C2.40889 12.1129 3.10161 13.6034 4.22957 14.7314C5.35753 15.8593 6.84805 16.5521 8.4375 16.687V17.2734C8.4375 17.4226 8.49676 17.5657 8.60225 17.6712C8.70774 17.7767 8.85082 17.8359 9 17.8359C9.14918 17.8359 9.29226 17.7767 9.39775 17.6712C9.50324 17.5657 9.5625 17.4226 9.5625 17.2734V16.687C11.152 16.5521 12.6425 15.8593 13.7704 14.7314C14.8984 13.6034 15.5911 12.1129 15.7261 10.5234H16.3125C16.4617 10.5234 16.6048 10.4642 16.7102 10.3587C16.8157 10.2532 16.875 10.1101 16.875 9.96094C16.875 9.81175 16.8157 9.66868 16.7102 9.56319C16.6048 9.4577 16.4617 9.39844 16.3125 9.39844ZM9.5625 15.5578V15.0234C9.5625 14.8743 9.50324 14.7312 9.39775 14.6257C9.29226 14.5202 9.14918 14.4609 9 14.4609C8.85082 14.4609 8.70774 14.5202 8.60225 14.6257C8.49676 14.7312 8.4375 14.8743 8.4375 15.0234V15.5578C7.14718 15.4262 5.94176 14.8534 5.02463 13.9363C4.10749 13.0192 3.53479 11.8138 3.40313 10.5234H3.9375C4.08668 10.5234 4.22976 10.4642 4.33525 10.3587C4.44074 10.2532 4.5 10.1101 4.5 9.96094C4.5 9.81175 4.44074 9.66868 4.33525 9.56319C4.22976 9.4577 4.08668 9.39844 3.9375 9.39844H3.40313C3.53479 8.10811 4.10749 6.9027 5.02463 5.98557C5.94176 5.06843 7.14718 4.49572 8.4375 4.36406V4.89844C8.4375 5.04762 8.49676 5.1907 8.60225 5.29619C8.70774 5.40167 8.85082 5.46094 9 5.46094C9.14918 5.46094 9.29226 5.40167 9.39775 5.29619C9.50324 5.1907 9.5625 5.04762 9.5625 4.89844V4.36406C10.8528 4.49572 12.0582 5.06843 12.9754 5.98557C13.8925 6.9027 14.4652 8.10811 14.5969 9.39844H14.0625C13.9133 9.39844 13.7702 9.4577 13.6648 9.56319C13.5593 9.66868 13.5 9.81175 13.5 9.96094C13.5 10.1101 13.5593 10.2532 13.6648 10.3587C13.7702 10.4642 13.9133 10.5234 14.0625 10.5234H14.5969C14.4652 11.8138 13.8925 13.0192 12.9754 13.9363C12.0582 14.8534 10.8528 15.4262 9.5625 15.5578ZM9 7.14844C8.44374 7.14844 7.89997 7.31339 7.43746 7.62243C6.97495 7.93147 6.61446 8.37072 6.40159 8.88464C6.18872 9.39856 6.13302 9.96406 6.24154 10.5096C6.35006 11.0552 6.61793 11.5563 7.01126 11.9497C7.4046 12.343 7.90574 12.6109 8.45131 12.7194C8.99688 12.8279 9.56238 12.7722 10.0763 12.5593C10.5902 12.3465 11.0295 11.986 11.3385 11.5235C11.6475 11.061 11.8125 10.5172 11.8125 9.96094C11.8125 9.21502 11.5162 8.49965 10.9887 7.9722C10.4613 7.44475 9.74592 7.14844 9 7.14844ZM9 11.6484C8.66624 11.6484 8.33998 11.5495 8.06248 11.364C7.78497 11.1786 7.56868 10.9151 7.44095 10.6067C7.31323 10.2984 7.27981 9.95907 7.34492 9.63172C7.41004 9.30438 7.57076 9.0037 7.80676 8.76769C8.04276 8.53169 8.34344 8.37097 8.67078 8.30586C8.99813 8.24075 9.33743 8.27417 9.64578 8.40189C9.95413 8.52961 10.2177 8.7459 10.4031 9.02341C10.5885 9.30092 10.6875 9.62718 10.6875 9.96094C10.6875 10.4085 10.5097 10.8377 10.1932 11.1542C9.87678 11.4706 9.44755 11.6484 9 11.6484Z" fill="#474D66"/>
</svg>
