<svg width="20" height="20" viewBox="0 0 20 20" fill="none" xmlns="http://www.w3.org/2000/svg">
<path d="M17.5 9.02797V16.2506C17.5 16.5821 17.3683 16.9001 17.1339 17.1345C16.8995 17.3689 16.5815 17.5006 16.25 17.5006H13.125C12.7935 17.5006 12.4755 17.3689 12.2411 17.1345C12.0067 16.9001 11.875 16.5821 11.875 16.2506V13.1256C11.875 12.9599 11.8092 12.8009 11.6919 12.6837C11.5747 12.5665 11.4158 12.5006 11.25 12.5006H8.75C8.58424 12.5006 8.42527 12.5665 8.30806 12.6837C8.19085 12.8009 8.125 12.9599 8.125 13.1256V16.2506C8.125 16.5821 7.9933 16.9001 7.75888 17.1345C7.52446 17.3689 7.20652 17.5006 6.875 17.5006H3.75C3.41848 17.5006 3.10054 17.3689 2.86612 17.1345C2.6317 16.9001 2.5 16.5821 2.5 16.2506V9.02797C2.49997 8.85497 2.53586 8.68385 2.60538 8.52543C2.67491 8.36701 2.77656 8.22476 2.90391 8.10766L9.15391 2.21078L9.1625 2.20219C9.39261 1.99292 9.69248 1.87695 10.0035 1.87695C10.3146 1.87695 10.6144 1.99292 10.8445 2.20219C10.8472 2.20524 10.8501 2.20812 10.8531 2.21078L17.1031 8.10766C17.2292 8.22537 17.3295 8.36791 17.3978 8.52629C17.4661 8.68468 17.5009 8.85549 17.5 9.02797Z" fill="#696F8C"/>
</svg>
