<svg width="248" height="80" viewBox="0 0 248 80" fill="none" xmlns="http://www.w3.org/2000/svg">
<g clip-path="url(#clip0_2754_38599)">
<path d="M41.0106 42.3107V55.0285H34.1377V24.9512H41.0106V37.7124L50.6001 24.9512H58.8755L47.12 39.9898L58.8755 55.0285H50.6001L41.0106 42.3107Z" fill="#050F96"/>
<path d="M77.4954 55.8019C75.0334 55.8019 72.8272 55.3649 70.8756 54.4923C68.924 53.6183 67.2683 52.4502 65.9114 50.9907C64.5532 49.5298 63.5213 47.8463 62.8145 45.9414C62.1064 44.038 61.7537 42.0532 61.7537 39.9915C61.7537 37.9284 62.1064 35.9451 62.8145 34.0402C63.5213 32.1367 64.5532 30.4517 65.9114 28.9923C67.2697 27.5314 68.924 26.3647 70.8756 25.4907C72.8272 24.6167 75.0334 24.1797 77.4954 24.1797C79.956 24.1797 82.1553 24.6167 84.0931 25.4907C86.0309 26.3647 87.6796 27.5314 89.0365 28.9923C90.3947 30.4531 91.4266 32.1367 92.1334 34.0402C92.8415 35.9451 93.1943 37.9284 93.1943 39.9915C93.1943 42.0546 92.8415 44.038 92.1334 45.9414C91.4266 47.8463 90.3947 49.5298 89.0365 50.9907C87.6782 52.4516 86.0309 53.6183 84.0931 54.4923C82.1553 55.3649 79.956 55.8019 77.4954 55.8019ZM77.4954 49.5285C78.8537 49.5285 80.0681 49.2637 81.1442 48.7343C82.2189 48.2034 83.1304 47.4961 83.8814 46.6081C84.6311 45.7201 85.2037 44.7033 85.5993 43.5575C85.9949 42.4118 86.1941 41.2227 86.1941 39.9915C86.1941 38.7603 85.9949 37.5712 85.5993 36.4241C85.2037 35.2783 84.6297 34.2629 83.8814 33.3749C83.1318 32.4869 82.2203 31.7782 81.1442 31.2473C80.0681 30.7179 78.8523 30.4532 77.4954 30.4532C76.1371 30.4532 74.9213 30.7193 73.8466 31.2473C72.7719 31.7782 71.859 32.4869 71.1094 33.3749C70.3597 34.2629 69.7871 35.2797 69.3915 36.4241C68.9945 37.5712 68.7967 38.7589 68.7967 39.9915C68.7967 41.2227 68.9945 42.4118 69.3915 43.5575C69.7871 44.7033 70.3597 45.7201 71.1094 46.6081C71.859 47.4961 72.7705 48.2048 73.8466 48.7343C74.9213 49.2651 76.1371 49.5285 77.4954 49.5285Z" fill="#050F96"/>
<path d="M133.751 24.9512H146.226C147.867 24.9512 149.352 25.2453 150.683 25.8322C152.012 26.419 153.15 27.2076 154.098 28.195C155.045 29.1839 155.773 30.3366 156.282 31.6532C156.792 32.9712 157.047 34.3607 157.047 35.8215C157.047 37.9407 156.529 39.868 155.497 41.6006C154.464 43.3332 153.015 44.6442 151.147 45.5308L157.089 55.0271H149.447C149.239 55.0271 149.044 54.9192 148.932 54.74L143.985 46.9048C143.901 46.7717 143.756 46.6919 143.599 46.6919H140.624V55.0271H133.75V24.9512H133.751ZM145.337 41.0207C146.044 41.0207 146.695 40.8778 147.288 40.5907C147.882 40.305 148.384 39.9254 148.795 39.452C149.204 38.98 149.522 38.4281 149.75 37.7978C149.976 37.1675 150.089 36.5092 150.089 35.8215C150.089 35.1338 149.976 34.4741 149.75 33.8452C149.522 33.2149 149.205 32.6631 148.795 32.1911C148.384 31.7177 147.882 31.3395 147.288 31.0524C146.695 30.7652 146.044 30.6224 145.337 30.6224H140.627V41.0207H145.337Z" fill="#050F96"/>
<path d="M101.25 24.9512H113.725C115.365 24.9512 116.85 25.2453 118.181 25.8322C119.51 26.419 120.649 27.2076 121.596 28.195C122.544 29.1839 123.271 30.3366 123.78 31.6532C124.291 32.9712 124.545 34.3607 124.545 35.8215C124.545 37.9407 124.028 39.868 122.996 41.6006C121.963 43.3332 120.513 44.6442 118.646 45.5308L124.586 55.0271H116.945C116.736 55.0271 116.541 54.9192 116.429 54.74L111.482 46.9048C111.398 46.7717 111.253 46.6919 111.097 46.6919H108.121V55.0271H101.247V24.9512H101.25ZM112.834 41.0207C113.541 41.0207 114.192 40.8778 114.785 40.5907C115.379 40.305 115.881 39.9254 116.292 39.452C116.701 38.98 117.019 38.4281 117.247 37.7978C117.473 37.1675 117.586 36.5092 117.586 35.8215C117.586 35.1338 117.473 34.4741 117.247 33.8452C117.019 33.2149 116.702 32.6631 116.292 32.1911C115.881 31.7177 115.379 31.3395 114.785 31.0524C114.192 30.7652 113.541 30.6224 112.834 30.6224H108.124V41.0207H112.834Z" fill="#050F96"/>
<path d="M172.203 30.5369V37.3692H183.448V42.8261H172.203V49.4427H183.448V55.0285H165.33V24.9512H183.448V30.5369H172.203Z" fill="#050F96"/>
<path d="M198.283 45.0613C198.283 46.6944 198.721 47.969 199.598 48.8864C200.473 49.8038 201.62 50.2604 203.034 50.2604C204.137 50.2604 205.064 49.9383 205.812 49.294C206.563 48.6497 206.938 47.7981 206.938 46.7378C206.938 46.1369 206.818 45.6285 206.577 45.2125C206.337 44.7979 206.012 44.4324 205.601 44.1172C205.191 43.8021 204.703 43.5233 204.137 43.2796C203.572 43.0373 202.963 42.7852 202.313 42.5275C200.955 42.0107 199.66 41.4966 198.431 40.9798C197.201 40.4644 196.132 39.8411 195.227 39.1099C194.321 38.3802 193.601 37.4992 193.064 36.4683C192.526 35.4375 192.257 34.1615 192.257 32.6432C192.257 31.2678 192.548 30.052 193.127 28.9903C193.707 27.9314 194.479 27.0434 195.44 26.3263C196.403 25.6106 197.512 25.0741 198.772 24.7156C200.029 24.3584 201.339 24.1777 202.698 24.1777C204.45 24.1777 205.992 24.4354 207.323 24.9509C208.652 25.4677 209.754 26.1694 210.631 27.056C211.508 27.9441 212.167 28.9609 212.605 30.1066C213.044 31.2524 213.262 32.4695 213.262 33.7595H206.388C206.388 32.4135 206.07 31.3532 205.433 30.58C204.797 29.8069 203.884 29.4189 202.696 29.4189C201.706 29.4189 200.857 29.6766 200.15 30.1921C199.443 30.7075 199.089 31.4807 199.089 32.5129C199.089 33.5158 199.478 34.3099 200.256 34.8968C201.034 35.4837 202.06 36.0075 203.334 36.4655C204.55 36.8955 205.779 37.3605 207.024 37.862C208.269 38.3648 209.385 38.9797 210.377 39.7108C211.367 40.4419 212.181 41.33 212.817 42.3748C213.453 43.4197 213.773 44.6887 213.773 46.1776C213.773 47.7239 213.496 49.0993 212.945 50.3025C212.394 51.5056 211.623 52.5155 210.633 53.332C209.642 54.1472 208.469 54.7649 207.111 55.1795C205.753 55.5941 204.254 55.8027 202.615 55.8027C201.029 55.8027 199.552 55.566 198.18 55.094C196.807 54.6206 195.62 53.9259 194.616 53.0099C193.612 52.0939 192.826 50.9692 192.26 49.6371C191.695 48.3051 191.412 46.7798 191.412 45.0613H198.283Z" fill="#050F96"/>
</g>
<defs>
<clipPath id="clip0_2754_38599">
<rect width="180" height="31.6667" fill="white" transform="translate(34 24.166)"/>
</clipPath>
</defs>
</svg>
