<svg width="148" height="49" viewBox="0 0 148 49" fill="none" xmlns="http://www.w3.org/2000/svg">
<g clip-path="url(#clip0_1097_39910)">
<path d="M30.5362 4.58024H31.7597V5.04184H30.0312V1.00488H30.5362V4.58024Z" fill="#016343"/>
<path d="M38.3235 1.9364L37.6091 3.56671H39.04L38.3235 1.9364ZM37.4017 4.02622L36.9429 5.04176H36.4023L38.3235 0.834839L40.2489 5.04176H39.7105L39.2516 4.02622H37.4017Z" fill="#016343"/>
<path d="M45.7783 4.59073H46.1638C46.6269 4.59073 47.1129 4.45015 47.1129 3.87943C47.1129 3.31291 46.5347 3.19542 46.0863 3.19542H45.7763V4.59073H45.7783ZM45.7783 2.79256H45.9061C46.3817 2.79256 46.7735 2.69604 46.7735 2.11903C46.7735 1.55042 46.388 1.456 45.9166 1.456H45.7783V2.79256ZM45.2734 1.00488H45.7679C46.5263 1.00488 47.2407 1.20421 47.2407 2.11484C47.2407 2.40649 47.0836 2.75269 46.8112 2.87859V2.88908C47.2847 2.9772 47.6157 3.44301 47.6157 3.91091C47.6157 4.72082 46.9264 5.04395 46.2183 5.04395H45.2755V1.00488H45.2734Z" fill="#016343"/>
<path d="M56.3498 3.02123C56.3498 2.13369 55.6856 1.39092 54.7365 1.39092C53.7938 1.39092 53.1296 2.13369 53.1296 3.02123C53.1296 3.94235 53.8671 4.65574 54.7365 4.65574C55.6123 4.65574 56.3498 3.94445 56.3498 3.02123ZM56.8505 3.02123C56.8505 4.21931 55.9056 5.12574 54.7365 5.12574C53.5738 5.12574 52.6289 4.21931 52.6289 3.02123C52.6289 1.86721 53.5843 0.918823 54.7365 0.918823C55.893 0.918823 56.8505 1.86721 56.8505 3.02123Z" fill="#016343"/>
<path d="M62.577 2.91635H62.7363C63.2495 2.91635 63.8068 2.81984 63.8068 2.17988C63.8068 1.54413 63.2056 1.456 62.709 1.456H62.5749V2.91635H62.577ZM64.5799 5.04184H63.9703L62.7865 3.3339H62.577V5.04184H62.0742V1.00488H62.6839C63.04 1.00488 63.4234 1.01117 63.7461 1.19162C64.0813 1.39095 64.274 1.77283 64.274 2.1568C64.274 2.73171 63.8906 3.2143 63.3082 3.28354L64.5799 5.04184Z" fill="#016343"/>
<path d="M71.2063 1.9364L70.4919 3.56671H71.9229L71.2063 1.9364ZM70.2824 4.02622L69.8257 5.04176H69.2852L71.2084 0.834839L73.1296 5.04176H72.5954L72.1303 4.02622H70.2824Z" fill="#016343"/>
<path d="M78.8566 5.04184H78.3538V1.46439H77.3984V1.00488H79.8141V1.46439H78.8566V5.04184Z" fill="#016343"/>
<path d="M88.3807 3.02123C88.3807 2.13369 87.7166 1.39092 86.7738 1.39092C85.8289 1.39092 85.1669 2.13369 85.1669 3.02123C85.1669 3.94235 85.9002 4.65574 86.7738 4.65574C87.6433 4.65574 88.3807 3.94445 88.3807 3.02123ZM88.8835 3.02123C88.8835 4.21931 87.9345 5.12574 86.7738 5.12574C85.6089 5.12574 84.6641 4.21931 84.6641 3.02123C84.6641 1.86721 85.6215 0.918823 86.7738 0.918823C87.9282 0.918823 88.8835 1.86721 88.8835 3.02123Z" fill="#016343"/>
<path d="M94.5906 5.04184H94.0898V1.00488H94.5906V5.04184Z" fill="#016343"/>
<path d="M100.585 2.91635H100.744C101.257 2.91635 101.81 2.81984 101.81 2.17988C101.81 1.54413 101.213 1.456 100.717 1.456H100.585V2.91635ZM102.588 5.04184H101.976L100.792 3.3339H100.585V5.04184H100.082V1.00488H100.688C101.046 1.00488 101.431 1.01117 101.752 1.19162C102.091 1.39095 102.282 1.77283 102.282 2.1568C102.282 2.73171 101.894 3.2143 101.312 3.28354L102.588 5.04184Z" fill="#016343"/>
<path d="M107.719 1.00488H109.883V1.46439H108.219V2.59743H109.837V3.05484H108.219V4.58024H109.883V5.04184H107.719V1.00488Z" fill="#016343"/>
<path d="M117.029 1.7707C116.876 1.51681 116.683 1.39092 116.377 1.39092C116.055 1.39092 115.705 1.61123 115.705 1.96164C115.705 2.27637 116.015 2.44423 116.264 2.53864L116.555 2.65195C117.125 2.87646 117.555 3.19328 117.555 3.86681C117.555 4.60329 116.989 5.12574 116.262 5.12574C115.615 5.12574 115.105 4.64525 115.02 3.9969L115.529 3.8899C115.52 4.33262 115.872 4.65574 116.306 4.65574C116.74 4.65574 117.05 4.29065 117.05 3.86681C117.05 3.43668 116.7 3.24784 116.354 3.10307L116.073 2.98557C115.619 2.78833 115.2 2.52396 115.2 1.96164C115.2 1.30909 115.778 0.918823 116.386 0.918823C116.834 0.918823 117.203 1.13913 117.423 1.5273L117.029 1.7707Z" fill="#016343"/>
<path d="M133.409 32.1948V9.00745H14.6328V32.1948H133.409Z" fill="#016343"/>
<path d="M37.6376 26.4436V26.1982C37.866 26.1982 37.998 26.1982 37.998 25.9254C37.998 25.6757 35.6599 22.0374 35.3729 21.5191L33.5124 23.3404V25.8226C33.5124 26.0093 33.569 26.1562 34.0467 26.1982V26.4436H30.1289V26.1982C30.6024 26.1562 30.659 26.0093 30.659 25.8226V16.1834C30.659 15.9966 30.6024 15.8519 30.1289 15.8099V15.5602H34.0467V15.8099C33.5711 15.854 33.5124 15.9987 33.5124 16.1834V19.9035H33.6444C35.1655 18.29 37.3716 16.3051 37.3716 16.0785C37.3716 15.8288 37.2375 15.8288 37.0301 15.8078V15.5581H41.8592V15.8078C41.3627 15.8519 41.2705 16.0155 40.7928 16.4729L37.5056 19.5531L41.3815 25.8645C41.591 26.1981 41.7419 26.1982 41.9891 26.1982V26.4436H37.6376Z" fill="white"/>
<path d="M46.8466 23.9195H53.3874C53.5969 23.9195 53.6702 23.8167 53.7268 23.3404H53.9572V26.9787H53.7268C53.6702 26.5485 53.5948 26.4436 53.3874 26.4436H43.4609V26.1981C43.9365 26.1562 43.9931 26.0093 43.9931 25.8225V16.1834C43.9931 15.9966 43.9365 15.8518 43.4609 15.8099V15.5602H47.3787V15.8099C46.9031 15.8539 46.8466 15.9987 46.8466 16.1834V23.9195Z" fill="white"/>
<path d="M57.6322 21.0029C57.6322 22.9437 59.0987 24.0411 60.7517 24.0411C62.4048 24.0411 63.8713 22.9437 63.8713 21.0029C63.8713 19.0578 62.4048 17.9605 60.7517 17.9605C59.0987 17.9605 57.6322 19.0599 57.6322 21.0029ZM66.6829 21.0029C66.6829 24.6223 63.9823 26.5652 60.7496 26.5652C57.519 26.5652 54.8164 24.6223 54.8164 21.0029C54.8164 17.3813 57.519 15.4342 60.7496 15.4342C63.9844 15.4342 66.6829 17.3813 66.6829 21.0029Z" fill="white"/>
<path d="M71.2898 20.1532H74.4848C75.6035 20.1532 75.9471 19.6181 75.9471 19.0159C75.9471 18.4159 75.6035 17.8787 74.4848 17.8787H71.2898V20.1532ZM71.2898 25.8225C71.2898 26.0093 71.3485 26.1562 71.8219 26.1981V26.4436H67.9062V26.1981C68.3818 26.1562 68.4363 26.0093 68.4363 25.8225V16.1834C68.4363 15.9966 68.3818 15.8518 67.9062 15.8099V15.5602H74.864C77.6798 15.5602 78.876 16.6387 78.876 18.9971C78.876 20.898 77.7342 21.9136 76.1566 22.3878L78.3984 25.8225C78.5702 26.0932 78.7441 26.1981 78.9536 26.1981V26.4436H74.996V26.1981C75.262 26.173 75.415 26.0722 75.415 25.8225C75.415 25.6379 73.3974 22.7801 73.1523 22.35H71.2877V25.8225H71.2898Z" fill="white"/>
<path d="M84.1962 22.4276H87.7327L85.8911 17.5052L84.1962 22.4276ZM83.7206 24.0852C83.2262 25.5959 83.1172 25.8666 83.1172 25.9925C83.1172 26.1184 83.1864 26.2002 83.4545 26.2002V26.4457H80.0898V26.2002C80.3559 26.1352 80.4691 26.0533 80.5864 25.7218C80.7582 25.2455 83.9699 16.1393 83.9699 16.0176C83.9699 15.8728 83.7604 15.8309 83.5886 15.8099V15.5602H88.5518V15.8099C88.3423 15.8309 88.2103 15.8728 88.2103 16.0805C88.2103 16.2442 90.5484 22.4276 91.728 25.5771C91.9207 26.0743 92.0338 26.1981 92.258 26.1981V26.4436H88.5141V26.1981C88.7781 26.173 88.8766 26.0722 88.8766 25.9484C88.8766 25.8645 88.3046 24.3538 88.2292 24.0831H83.7206V24.0852Z" fill="white"/>
<path d="M94.3308 16.1834C94.3308 15.9966 94.2722 15.8518 93.8008 15.8099V15.5602H98.3806V15.8099C97.9406 15.8309 97.8464 15.9546 97.8464 16.0805C97.8464 16.3071 101.138 20.1154 102.468 21.7059V16.1834C102.468 15.9337 102.313 15.8309 102.066 15.8099V15.5602H105.548V15.8099C105.072 15.8539 105.016 15.9987 105.016 16.1834V25.8225C105.016 26.0093 105.072 26.1562 105.548 26.1981V26.4436H101.934V26.1981C102.275 26.1981 102.374 26.1163 102.374 25.9673C102.374 25.6988 101.896 25.4302 96.8805 19.3286V25.8246C96.8805 26.0114 96.935 26.1583 97.4106 26.2002V26.4457H93.8008V26.2002C94.2722 26.1583 94.3308 26.0114 94.3308 25.8246V16.1834Z" fill="white"/>
<path d="M115.529 22.4717H115.296C115.244 22.2031 115.106 21.9975 114.727 21.9975H111.188V23.9194H117.293C117.507 23.9194 117.578 23.8166 117.634 23.3004H117.867V26.901H117.634C117.58 26.5506 117.507 26.4457 117.293 26.4457H107.809V26.2002C108.284 26.1582 108.339 26.0113 108.339 25.8246V16.1854C108.339 15.9987 108.284 15.8539 107.809 15.8119V15.5622H117.293C117.507 15.5622 117.578 15.4615 117.634 14.9852H117.867V18.5858H117.634C117.58 18.1116 117.507 18.0067 117.293 18.0067H111.188V19.7251H114.729C115.106 19.7251 115.246 19.5174 115.298 19.2467H115.531V22.4717H115.529Z" fill="white"/>
<path d="M114.454 47.4572H117.894V46.7711H115.194V44.1609H117.817V43.4748H115.194V41.5004H117.894V40.8143H114.454V47.4572ZM108.265 40.8122H107.528V44.9708C107.528 45.7283 107.599 46.3368 108.177 46.8928C108.626 47.3334 109.269 47.5705 109.893 47.5705C110.561 47.5705 111.223 47.3062 111.68 46.8131C112.208 46.2675 112.261 45.6947 112.261 44.9708V40.8122H111.523V44.7694C111.523 45.2898 111.55 45.871 111.196 46.2948C110.888 46.6641 110.369 46.8844 109.893 46.8844C109.409 46.8844 108.846 46.6557 108.554 46.2508C108.246 45.8269 108.263 45.2646 108.263 44.7694V40.8122H108.265ZM104.756 47.5181H105.697L104.704 46.5046C105.328 45.8353 105.661 45.0863 105.661 44.1609C105.661 42.2579 104.121 40.6989 102.202 40.6989C100.31 40.6989 98.7452 42.2411 98.7452 44.1442C98.7452 46.0577 100.31 47.5726 102.202 47.5726C102.87 47.5726 103.654 47.3355 104.201 46.9222L104.756 47.5181ZM103.049 44.7778H102.081L103.683 46.3913C103.279 46.6998 102.697 46.8844 102.204 46.8844C100.7 46.8844 99.4848 45.6318 99.4848 44.1337C99.4848 42.6271 100.681 41.3829 102.204 41.3829C103.727 41.3829 104.924 42.6167 104.924 44.1337C104.924 44.8471 104.687 45.4555 104.192 45.9759L103.049 44.7778ZM96.8534 40.8122H96.1159V47.4551H96.8534V40.8122ZM87.9221 47.4572H88.6596V42.3376L93.8344 47.7573V40.8143H93.0969V45.9612L87.9221 40.5331V47.4572ZM84.3835 44.8848H82.1397L83.2752 42.2222L84.3835 44.8848ZM84.6726 45.5709L85.4562 47.4572H86.2754L83.292 40.4954L80.2311 47.4572H81.0398L81.8401 45.5709H84.6726ZM78.2932 41.4983H79.9126V40.8122H75.953V41.4983H77.5536V47.4551H78.2932V41.4983ZM71.1909 41.385C72.714 41.385 73.9103 42.6271 73.9103 44.1358C73.9103 45.6339 72.6951 46.8865 71.1909 46.8865C69.6866 46.8865 68.4715 45.6339 68.4715 44.1358C68.4715 42.6271 69.6677 41.385 71.1909 41.385ZM71.1909 40.6989C69.299 40.6989 67.734 42.2411 67.734 44.1442C67.734 46.0577 69.299 47.5726 71.1909 47.5726C73.0827 47.5726 74.6498 46.0577 74.6498 44.1442C74.6498 42.239 73.0827 40.6989 71.1909 40.6989ZM62.9279 41.4983H63.2191C64.1263 41.4983 64.7611 41.6032 64.7611 42.6083C64.7611 43.6406 64.0467 43.7371 63.2107 43.7371H62.93V41.4983H62.9279ZM62.1884 47.4572H63.7282C65.0397 47.4572 66.104 46.9285 66.104 45.6066C66.104 44.8135 65.6389 44.1001 64.847 43.905C65.2953 43.6049 65.4965 43.1475 65.4965 42.6083C65.4965 41.2507 64.4846 40.8101 63.2799 40.8101H62.1904V47.4572H62.1884ZM62.9279 44.3728H63.5711C64.3819 44.3728 65.3666 44.5218 65.3666 45.5541C65.3666 46.5676 64.495 46.7711 63.6675 46.7711H62.9279V44.3728ZM53.0203 47.4572H56.4604V46.7711H53.7599V44.1609H56.3829V43.4748H53.7599V41.5004H56.4604V40.8143H53.0203V47.4572ZM43.7706 47.4572H44.5269L45.3796 42.9629H45.3964L47.525 47.73L49.664 42.9629H49.6808L50.5335 47.4572H51.2898L49.9427 40.4324L47.5229 46.0116L45.1114 40.4324L43.7706 47.4572ZM40.7621 44.8848H38.5182L39.6538 42.2222L40.7621 44.8848ZM41.0512 45.5709L41.8347 47.4572H42.6539L39.6705 40.4954L36.6096 47.4572H37.4183L38.2186 45.5709H41.0512ZM38.2543 39.6309L38.755 40.0274L39.6265 39.2784L40.5065 40.0274L41.0177 39.6309L39.6286 38.4601L38.2543 39.6309ZM34.4873 40.6989L33.6598 42.9985L34.1354 43.1832L35.1368 40.936L34.4873 40.6989ZM30.8859 40.8122H30.1484V47.4551H32.717V46.769H30.8859V40.8122Z" fill="#016343"/>
</g>
<defs>
<clipPath id="clip0_1097_39910">
<rect width="119" height="47" fill="white" transform="translate(14.5 0.772705)"/>
</clipPath>
</defs>
</svg>
