<svg width="248" height="80" viewBox="0 0 248 80" fill="none" xmlns="http://www.w3.org/2000/svg">
<g clip-path="url(#clip0_2754_3753)">
<path d="M159.643 45.844H152.307V54.3883H149.334V32.6699H159.643C163.876 32.6699 166.429 35.8337 166.429 39.257C166.429 42.6818 163.875 45.844 159.643 45.844ZM159.384 35.1476H152.307V43.3987H159.384C161.841 43.3987 163.424 41.6701 163.424 39.257C163.424 36.8438 161.581 35.1476 159.384 35.1476Z" fill="#050505"/>
<path d="M176.252 54.7483C170.176 54.7483 165.814 49.6933 165.814 43.5622C165.814 37.431 170.178 32.3438 176.252 32.3438C182.327 32.3438 186.691 37.431 186.691 43.5622C186.691 49.6933 182.328 54.7483 176.252 54.7483ZM176.252 34.9534C171.728 34.9534 168.755 38.6391 168.755 43.5622C168.755 48.4867 171.728 52.1387 176.252 52.1387C180.776 52.1387 183.717 48.4867 183.717 43.5622C183.717 38.6391 180.776 34.9534 176.252 34.9534Z" fill="#050505"/>
<path d="M195.124 54.7483C192.281 54.7483 189.274 54.1604 186.398 52.9876L187.044 50.6727C189.662 51.5861 192.571 52.2047 195.058 52.2047C198.548 52.2047 200.552 50.8354 200.552 48.9104C200.552 47.1819 199.517 46.3023 194.605 44.4756C188.949 42.3556 187.14 40.8881 187.14 37.5293C187.14 33.974 190.017 32.3438 195.317 32.3438C197.547 32.3438 200.779 32.7674 202.879 33.4521L202.33 35.833C200.165 35.2788 197.611 34.9196 195.382 34.9196C191.569 34.9196 190.082 35.5398 190.082 37.5293C190.082 39.617 191.471 40.3016 196.578 42.3234C202.137 44.54 203.494 45.7804 203.494 48.8444C203.494 52.303 200.231 54.7483 195.124 54.7483Z" fill="#050505"/>
<path d="M219.071 54.3883L216.938 48.8774H207.306L205.142 54.3883H202.201L210.862 32.6699H213.351L222.011 54.3883H219.071ZM212.121 35.9304L208.114 46.5609H216.096L212.121 35.9304Z" fill="#050505"/>
<path d="M228.215 45.6491V54.3883H225.242V45.6491L217.001 32.6699H220.071L226.729 42.975L233.354 32.6699H236.424L228.215 45.6491Z" fill="#050505"/>
<path d="M149.264 10.8848H118.357V54.4383H149.264V10.8848Z" fill="#009FE3"/>
<path d="M11.5093 54.3883V32.6699H14.4819V51.8125H25.4702V54.3883H11.5093Z" fill="#050505"/>
<path d="M41.6611 54.3883L39.5283 48.8774H29.8984L27.7336 54.3883H24.793L33.4537 32.6699H35.9426L44.6033 54.3883H41.6611ZM34.7118 35.9304L30.7047 46.5609H38.687L34.7118 35.9304Z" fill="#050505"/>
<path d="M65.3173 54.3883L58.8868 45.5508H52.4228V54.3883H49.4502V32.6699H59.8893C64.0258 32.6699 66.612 35.7355 66.612 39.1265C66.612 41.8329 64.9963 44.312 62.1196 45.1594L68.8422 54.3883H65.3173ZM59.5318 35.1476H52.4213V43.1377H59.5318C61.9887 43.1377 63.6044 41.5397 63.6044 39.1265C63.6044 36.7133 61.7301 35.1476 59.5318 35.1476Z" fill="#050505"/>
<path d="M77.6931 54.7483C71.617 54.7483 67.2539 49.6933 67.2539 43.5622C67.2539 37.431 71.617 32.3438 77.6931 32.3438C83.7691 32.3438 88.1322 37.431 88.1322 43.5622C88.1322 49.6933 83.7691 54.7483 77.6931 54.7483ZM77.6931 34.9534C73.1687 34.9534 70.1946 38.6391 70.1946 43.5622C70.1946 48.4867 73.1672 52.1387 77.6931 52.1387C82.2174 52.1387 85.1581 48.4867 85.1581 43.5622C85.1581 38.6391 82.2174 34.9534 77.6931 34.9534Z" fill="#050505"/>
<path d="M104.871 35.5736C103.482 35.1821 101.672 34.9534 100.12 34.9534C94.5294 34.9534 90.9741 38.4427 90.9741 43.5299C90.9741 48.6172 94.5294 52.1387 100.12 52.1387C101.543 52.1387 103.093 51.91 104.871 51.4863L105.452 53.8995C103.739 54.4214 101.833 54.7483 99.9255 54.7483C92.9777 54.7483 88 49.7578 88 43.5299C88 37.3005 92.9762 32.3438 99.9255 32.3438C101.961 32.3438 103.706 32.5725 105.484 33.1589L104.871 35.5736Z" fill="#050505"/>
<path d="M121.514 54.3883V44.573H110.301V54.3883H107.326V32.6699H110.299V41.9311H121.513V32.6699H124.519V54.3883H121.514Z" fill="#050505"/>
<path d="M127.169 54.3883V32.6699H142.035V35.2458H130.175V41.8651H141.292V44.441H130.175V51.8109H142.035V54.3868H127.169V54.3883Z" fill="#050505"/>
<path d="M49.2007 66.7159V58.2207H49.9598V66.0527H54.3837V66.7159H49.2007Z" fill="#050505"/>
<path d="M61.0835 66.7159L60.1479 64.3426H56.0145L55.0789 66.7159H54.3076L57.796 58.2207H58.3527L61.8548 66.7159H61.0835ZM58.0759 59.1525L56.2686 63.7194H59.8969L58.0759 59.1525Z" fill="#050505"/>
<path d="M65.9517 66.7159H62.147V58.2207H65.5349C67.3559 58.2207 68.2535 59.088 68.2535 60.3898C68.2535 61.1543 67.7986 61.9325 66.9269 62.2518C68.0009 62.5957 68.5075 63.374 68.5075 64.3565C68.5045 65.5815 67.5826 66.7159 65.9517 66.7159ZM65.5592 58.8839H62.9046V62.0093H65.509C66.5709 62.0093 67.4806 61.538 67.4806 60.4527C67.4806 59.369 66.6972 58.8839 65.5592 58.8839ZM65.8757 62.6479H62.9046V66.0527H65.9C66.9999 66.0527 67.7453 65.4402 67.7453 64.3565C67.7469 63.374 67.1399 62.6479 65.8757 62.6479Z" fill="#050505"/>
<path d="M72.5892 66.858C70.2251 66.858 68.6201 64.8685 68.6201 62.483C68.6201 60.0975 70.2251 58.0957 72.5892 58.0957C74.9533 58.0957 76.5583 60.099 76.5583 62.483C76.5583 64.8685 74.9533 66.858 72.5892 66.858ZM72.5892 58.7589C70.6937 58.7589 69.3793 60.3538 69.3793 62.483C69.3793 64.6137 70.6937 66.1948 72.5892 66.1948C74.4847 66.1948 75.8006 64.6137 75.8006 62.483C75.7991 60.3523 74.4847 58.7589 72.5892 58.7589Z" fill="#050505"/>
<path d="M83.7523 66.7159L81.0596 63.0301H78.1266V66.7159H77.3674V58.2207H81.1722C82.803 58.2207 83.7249 59.3812 83.7249 60.6308C83.7249 61.69 83.0556 62.6847 81.8537 62.9519L84.6088 66.7144H83.7523V66.7159ZM81.1722 58.8839H78.125V62.3915H81.1722C82.298 62.3915 82.9673 61.69 82.9673 60.6308C82.9673 59.5731 82.1337 58.8839 81.1722 58.8839Z" fill="#050505"/>
<path d="M91.1216 66.7159L90.186 64.3426H86.0526L85.117 66.7159H84.3457L87.834 58.2207H88.3908L91.8929 66.7159H91.1216ZM88.114 59.1525L86.3066 63.7194H89.935L88.114 59.1525Z" fill="#050505"/>
<path d="M94.2584 58.8839V66.7159H93.4993V58.8839H90.6042V58.2207H97.1519V58.8839H94.2584Z" fill="#050505"/>
<path d="M100.604 66.858C98.2397 66.858 96.6348 64.8685 96.6348 62.483C96.6348 60.0975 98.2397 58.0957 100.604 58.0957C102.968 58.0957 104.573 60.099 104.573 62.483C104.573 64.8685 102.968 66.858 100.604 66.858ZM100.604 58.7589C98.7083 58.7589 97.3939 60.3538 97.3939 62.483C97.3939 64.6137 98.7083 66.1948 100.604 66.1948C102.499 66.1948 103.815 64.6137 103.815 62.483C103.815 60.3523 102.501 58.7589 100.604 58.7589Z" fill="#050505"/>
<path d="M105.446 66.7159V58.2207H106.205V66.7159H105.446Z" fill="#050505"/>
<path d="M114.031 66.7159L111.338 63.0301H108.405V66.7159H107.646V58.2207H111.451C113.082 58.2207 114.004 59.3812 114.004 60.6308C114.004 61.69 113.334 62.6847 112.132 62.9519L114.887 66.7144H114.031V66.7159ZM111.451 58.8839H108.404V62.3915H111.451C112.577 62.3915 113.246 61.69 113.246 60.6308C113.246 59.5731 112.412 58.8839 111.451 58.8839Z" fill="#050505"/>
<path d="M115.321 66.7159V58.2207H120.933V58.8839H116.092V61.9832H120.618V62.6464H116.092V66.0512H120.933V66.7144H115.321V66.7159Z" fill="#050505"/>
<path d="M125.118 66.7159H123.437V58.2207H125.118C127.987 58.2207 130.073 60.0198 130.073 62.4683C130.074 64.9183 127.989 66.7159 125.118 66.7159ZM125.232 58.8839H124.196V66.0527H125.232C127.268 66.0527 129.303 64.7525 129.303 62.4683C129.303 60.1856 127.268 58.8839 125.232 58.8839Z" fill="#050505"/>
<path d="M130.681 66.7159V58.2207H136.293V58.8839H131.451V61.9832H135.977V62.6464H131.451V66.0512H136.293V66.7144H130.681V66.7159Z" fill="#050505"/>
<path d="M143.676 66.7159L140.984 63.0301H138.051V66.7159H137.293V58.2207H141.098C142.729 58.2207 143.65 59.3812 143.65 60.6308C143.65 61.69 142.981 62.6847 141.779 62.9519L144.534 66.7144H143.676V66.7159ZM141.098 58.8839H138.051V62.3915H141.098C142.222 62.3915 142.893 61.69 142.893 60.6308C142.893 59.5731 142.059 58.8839 141.098 58.8839Z" fill="#050505"/>
<path d="M152.009 66.7159V59.6238L149.089 65.5937H148.608L145.689 59.6238V66.7159H144.956V58.2207H145.689L148.849 64.5852L152.009 58.2207H152.742V66.7159H152.009Z" fill="#050505"/>
<path d="M159.822 66.7159L158.886 64.3426H154.753L153.817 66.7159H153.046L156.534 58.2207H157.091L160.593 66.7159H159.822ZM156.813 59.1525L155.006 63.7194H158.634L156.813 59.1525Z" fill="#050505"/>
<path d="M162.957 58.8839V66.7159H162.2V58.8839H159.305V58.2207H165.852V58.8839H162.957Z" fill="#050505"/>
<path d="M169.304 66.858C166.94 66.858 165.335 64.8685 165.335 62.483C165.335 60.0975 166.94 58.0957 169.304 58.0957C171.668 58.0957 173.273 60.099 173.273 62.483C173.273 64.8685 171.668 66.858 169.304 66.858ZM169.304 58.7589C167.409 58.7589 166.094 60.3538 166.094 62.483C166.094 64.6137 167.409 66.1948 169.304 66.1948C171.2 66.1948 172.514 64.6137 172.514 62.483C172.514 60.3523 171.2 58.7589 169.304 58.7589Z" fill="#050505"/>
<path d="M174.083 66.7159V58.2207H174.842V66.0527H179.266V66.7159H174.083Z" fill="#050505"/>
<path d="M182.83 66.858C180.466 66.858 178.861 64.8685 178.861 62.483C178.861 60.0975 180.466 58.0957 182.83 58.0957C185.194 58.0957 186.799 60.099 186.799 62.483C186.799 64.8685 185.194 66.858 182.83 66.858ZM182.83 58.7589C180.934 58.7589 179.62 60.3538 179.62 62.483C179.62 64.6137 180.934 66.1948 182.83 66.1948C184.725 66.1948 186.04 64.6137 186.04 62.483C186.041 60.3523 184.727 58.7589 182.83 58.7589Z" fill="#050505"/>
<path d="M191.491 66.858C188.81 66.858 186.851 64.9192 186.851 62.4707C186.851 59.9317 188.62 58.0957 191.477 58.0957C192.16 58.0957 193.02 58.1847 193.665 58.3628L193.551 58.9876C192.805 58.8218 192.11 58.7589 191.453 58.7589C189.215 58.7589 187.61 60.1497 187.61 62.4707C187.61 64.7027 189.279 66.1948 191.453 66.1948C191.972 66.1948 192.641 66.1304 193.274 66.0029V62.9665H193.957V66.488C193.158 66.7429 192.172 66.858 191.491 66.858Z" fill="#050505"/>
<path d="M195.145 66.7159V58.2207H195.904V66.7159H195.145Z" fill="#050505"/>
<path d="M201.049 66.8457V69.1038H200.278V66.8457C198.116 66.6415 196.688 64.7288 196.688 62.4707C196.688 60.0852 198.306 58.0957 200.669 58.0957C203.033 58.0957 204.638 60.0852 204.638 62.4707C204.639 64.7273 203.211 66.6415 201.049 66.8457ZM200.67 58.7589C198.775 58.7589 197.46 60.34 197.46 62.4707C197.46 64.6014 198.775 66.1948 200.67 66.1948C202.566 66.1948 203.88 64.5999 203.88 62.4707C203.88 60.34 202.566 58.7589 200.67 58.7589Z" fill="#050505"/>
<path d="M208.634 66.8575C206.498 66.8575 205.31 65.3532 205.31 63.7459V58.2227H206.082V63.7966C206.082 65.3271 207.156 66.1944 208.634 66.1944C210.113 66.1944 211.189 65.2242 211.189 63.7966V58.2227H211.948V63.7459C211.946 65.3654 210.772 66.8575 208.634 66.8575Z" fill="#050505"/>
<path d="M213.186 66.7159V58.2207H218.798V58.8839H213.956V61.9832H218.482V62.6464H213.956V66.0512H218.798V66.7144H213.186V66.7159Z" fill="#050505"/>
</g>
<defs>
<clipPath id="clip0_2754_3753">
<rect width="225" height="58.3333" fill="white" transform="translate(11.5 10.834)"/>
</clipPath>
</defs>
</svg>
