<svg width="16" height="16" viewBox="0 0 16 16" fill="none" xmlns="http://www.w3.org/2000/svg">
<path d="M13.9655 2.50445C13.9584 2.38213 13.9066 2.26669 13.8199 2.18004C13.7333 2.0934 13.6179 2.04159 13.4955 2.03445C8.73742 1.75507 4.92617 3.18757 3.30117 5.87507C2.7379 6.79439 2.46033 7.86028 2.50367 8.93757C2.53196 9.62647 2.67212 10.3062 2.91867 10.9501C2.93316 10.9897 2.95744 11.025 2.98925 11.0527C3.02106 11.0804 3.05937 11.0997 3.10061 11.1086C3.14184 11.1175 3.18467 11.1158 3.22509 11.1038C3.26552 11.0917 3.30222 11.0695 3.33179 11.0394L8.64429 5.6457C8.69075 5.59924 8.7459 5.56239 8.80659 5.53725C8.86729 5.51211 8.93235 5.49917 8.99804 5.49917C9.06374 5.49917 9.12879 5.51211 9.18949 5.53725C9.25019 5.56239 9.30534 5.59924 9.35179 5.6457C9.39825 5.69215 9.4351 5.7473 9.46024 5.808C9.48538 5.8687 9.49832 5.93375 9.49832 5.99945C9.49832 6.06515 9.48538 6.1302 9.46024 6.1909C9.4351 6.25159 9.39825 6.30674 9.35179 6.3532L3.54617 12.2463L2.65929 13.1332C2.56706 13.223 2.51199 13.3442 2.50505 13.4727C2.4981 13.6013 2.53978 13.7277 2.62179 13.8269C2.66671 13.879 2.72187 13.9212 2.78382 13.9509C2.84578 13.9806 2.9132 13.9973 2.98188 13.9998C3.05055 14.0023 3.11902 13.9907 3.18298 13.9656C3.24695 13.9404 3.30506 13.9024 3.35367 13.8538L4.40304 12.8044C5.28679 13.2319 6.17867 13.4651 7.06304 13.4963C7.13263 13.4988 7.202 13.5001 7.27117 13.5001C8.2783 13.5026 9.26632 13.2252 10.1249 12.6988C12.8124 11.0738 14.2455 7.2632 13.9655 2.50445Z" fill="white"/>
</svg>
