<svg width="24" height="45" viewBox="0 0 24 45" fill="none" xmlns="http://www.w3.org/2000/svg">
<path d="M23.4151 40.7809C23.6009 40.9668 23.7483 41.1874 23.8489 41.4301C23.9495 41.6729 24.0012 41.9331 24.0012 42.1959C24.0012 42.4587 23.9495 42.7189 23.8489 42.9617C23.7483 43.2045 23.6009 43.4251 23.4151 43.6109C23.2293 43.7968 23.0087 43.9442 22.7659 44.0447C22.5231 44.1453 22.2629 44.1971 22.0001 44.1971C21.7373 44.1971 21.4771 44.1453 21.2343 44.0447C20.9915 43.9442 20.7709 43.7968 20.5851 43.6109L0.585108 23.6109C0.399155 23.4252 0.251638 23.2046 0.15099 22.9618C0.050341 22.719 -0.00146484 22.4588 -0.00146484 22.1959C-0.00146484 21.9331 0.050341 21.6729 0.15099 21.4301C0.251638 21.1873 0.399155 20.9667 0.585108 20.7809L20.5851 0.780936C20.9604 0.405655 21.4694 0.194824 22.0001 0.194824C22.5308 0.194824 23.0398 0.405655 23.4151 0.780936C23.7904 1.15622 24.0012 1.66521 24.0012 2.19594C24.0012 2.72666 23.7904 3.23565 23.4151 3.61094L4.82761 22.1959L23.4151 40.7809Z" fill="white"/>
</svg>
