<svg width="20" height="21" viewBox="0 0 20 21" fill="none" xmlns="http://www.w3.org/2000/svg">
<path d="M10 2.21094C8.17727 2.21301 6.42979 2.938 5.14092 4.22686C3.85206 5.51573 3.12707 7.26321 3.125 9.08594C3.125 14.9688 9.375 19.4117 9.64141 19.5977C9.74649 19.6713 9.87169 19.7108 10 19.7108C10.1283 19.7108 10.2535 19.6713 10.3586 19.5977C10.625 19.4117 16.875 14.9688 16.875 9.08594C16.8729 7.26321 16.1479 5.51573 14.8591 4.22686C13.5702 2.938 11.8227 2.21301 10 2.21094ZM10 6.58594C10.4945 6.58594 10.9778 6.73256 11.3889 7.00726C11.8 7.28197 12.1205 7.67241 12.3097 8.12923C12.4989 8.58604 12.5484 9.08871 12.452 9.57366C12.3555 10.0586 12.1174 10.5041 11.7678 10.8537C11.4181 11.2033 10.9727 11.4414 10.4877 11.5379C10.0028 11.6344 9.50011 11.5849 9.04329 11.3956C8.58648 11.2064 8.19603 10.886 7.92133 10.4749C7.64662 10.0637 7.5 9.58039 7.5 9.08594C7.5 8.4229 7.76339 7.78701 8.23223 7.31817C8.70107 6.84933 9.33696 6.58594 10 6.58594Z" fill="#696F8C"/>
</svg>
