<svg width="234" height="66" viewBox="0 0 234 66" fill="none" xmlns="http://www.w3.org/2000/svg">
<path d="M37.0494 0.213063C35.7611 0.0743244 34.4529 0 33.1199 0C31.7918 0 30.4787 0.0743244 29.1904 0.213063C28.2901 0.312162 27.6086 0.986034 27.6086 1.8036V9.74638C27.6086 10.6284 28.3995 11.3419 29.3794 11.3419H36.8554C37.8353 11.3419 38.6261 10.6284 38.6261 9.74638V1.8036C38.6311 0.986034 37.9497 0.312162 37.0494 0.213063Z" fill="#FFCA0C"/>
<path d="M36.8612 54.6582H29.3853C28.4054 54.6582 27.6145 55.3717 27.6145 56.2537V64.1965C27.6145 65.014 28.2959 65.6879 29.1962 65.787C30.4845 65.9258 31.7927 66.0001 33.1257 66.0001C34.4538 66.0001 35.7669 65.9258 37.0552 65.787C37.9555 65.6879 38.637 65.014 38.637 64.1965V56.2537C38.632 55.3717 37.8411 54.6582 36.8612 54.6582Z" fill="#FFCA0C"/>
<path d="M64.44 27.5098H56.4666C55.5813 27.5098 54.865 28.2976 54.865 29.2737V36.721C54.865 37.6971 55.5813 38.485 56.4666 38.485H64.44C65.2607 38.485 65.9372 37.8061 66.0367 36.9093C66.176 35.626 66.2506 34.3228 66.2506 32.9949C66.2506 31.6719 66.176 30.3638 66.0367 29.0805C65.9372 28.1935 65.2607 27.5098 64.44 27.5098Z" fill="#FFCA0C"/>
<path d="M11.3789 36.7269V29.2796C11.3789 28.3035 10.6626 27.5156 9.77725 27.5156H1.80884C0.988124 27.5156 0.311656 28.1944 0.212175 29.0913C0.0729017 30.3746 -0.00170898 31.6778 -0.00170898 33.0057C-0.00170898 34.3287 0.0729017 35.6368 0.212175 36.9201C0.311656 37.817 0.988124 38.4958 1.80884 38.4958H9.78222C10.6626 38.4859 11.3789 37.698 11.3789 36.7269Z" fill="#FFCA0C"/>
<path d="M51.6405 19.0071H53.7345H60.1858C61.5686 19.0071 62.3993 17.5107 61.7029 16.3265C61.2602 15.5783 60.7877 14.845 60.2903 14.1315C58.052 10.9405 55.2615 8.16075 52.0583 5.93102C51.342 5.43553 50.6108 4.96481 49.8548 4.52382C48.666 3.82517 47.1638 4.6576 47.1638 6.03508V12.4616V14.5477C47.1688 17.0004 49.1783 19.0071 51.6405 19.0071Z" fill="#FFCA0C"/>
<path d="M16.39 4.52382C15.639 4.96481 14.9028 5.43553 14.1865 5.93102C10.9833 8.16075 8.19282 10.9405 5.9545 14.1315C5.4571 14.845 4.98457 15.5733 4.54188 16.3265C3.84054 17.5107 4.67617 19.0071 6.05896 19.0071H12.5103H14.6044C17.0665 19.0071 19.081 17.0004 19.081 14.5477V12.4616V6.03508C19.081 4.6576 17.5788 3.82517 16.39 4.52382Z" fill="#FFCA0C"/>
<path d="M14.6023 46.9922H12.5082H6.05687C4.67408 46.9922 3.84342 48.4886 4.53979 49.6728C4.98248 50.421 5.45501 51.1543 5.95241 51.8679C8.19073 55.0588 10.9812 57.8386 14.1844 60.0683C14.9007 60.5638 15.6319 61.0345 16.3879 61.4755C17.5767 62.1741 19.0789 61.3417 19.0789 59.9642V53.5377V51.4516C19.0789 48.994 17.0644 46.9922 14.6023 46.9922Z" fill="#FFCA0C"/>
<path d="M60.1973 46.9922H53.746H51.6519C49.1898 46.9922 47.1753 48.9989 47.1753 51.4516V53.5377V59.9642C47.1753 61.3417 48.6775 62.1692 49.8662 61.4755C50.6173 61.0345 51.3535 60.5638 52.0698 60.0683C55.273 57.8386 58.0635 55.0588 60.3018 51.8679C60.7992 51.1543 61.2717 50.426 61.7144 49.6728C62.4108 48.4836 61.5801 46.9922 60.1973 46.9922Z" fill="#FFCA0C"/>
<path d="M91.8002 10.1973C86.1447 10.1973 82.1953 14.0919 82.1953 20.1418V37.8409H86.9405V20.4094C86.9405 16.5892 88.6118 13.9432 91.8002 13.9432C94.9885 13.9432 96.6598 16.5892 96.6598 20.4094V37.8409H101.445V20.1815C101.445 14.1265 97.4159 10.1973 91.8002 10.1973Z" fill="white"/>
<path d="M224.351 10.1973C218.695 10.1973 214.746 14.0919 214.746 20.1418V37.8409H219.491V20.4094C219.491 16.5892 221.162 13.9432 224.351 13.9432C227.539 13.9432 229.21 16.5892 229.21 20.4094V37.8409H233.995V20.1815C233.995 14.1265 229.971 10.1973 224.351 10.1973Z" fill="white"/>
<path d="M114.612 10.1973C109.718 10.1973 105.768 13.6013 105.654 17.0797H110.553C110.742 15.2265 112.717 13.9432 114.726 13.9432C117.044 13.9432 119.163 15.6428 119.163 18.9328V20.672H113.776C108.917 20.672 104.778 23.6599 104.778 29.2193C104.778 34.5905 108.574 38.4851 114.343 38.4851C120.228 38.4851 123.948 34.6252 123.948 28.8824V18.7099C123.948 13.5964 120.039 10.1973 114.612 10.1973ZM119.163 29.0261C119.163 32.0882 117.91 34.7342 114.343 34.7342C111.344 34.7342 109.563 32.8414 109.563 29.4026C109.563 25.9243 112.03 24.4081 115.104 24.4081H119.163V29.0261Z" fill="white"/>
<path d="M140.384 22.3166V22.163C142.284 21.8211 144.179 20.7607 144.179 18.6103C144.179 15.4688 141.667 14.4729 138.698 13.4323C136.44 12.6395 134.579 12.0796 134.579 11.4256V10.8359H129.451V11.7576C129.451 14.3292 132.814 15.3648 135.47 16.2715C138.28 17.2526 139.623 17.4706 139.623 18.9472C139.623 20.2702 138.524 21.1026 137.042 21.1026H132.978V24.8089H136.246C138.713 24.8089 140.837 26.4143 140.837 29.9323C140.837 32.7665 138.937 34.7337 136.246 34.7337C133.853 34.7337 131.575 33.2571 131.575 30.1206V28.0048H126.79V30.1602C126.79 35.6454 130.889 38.4796 136.241 38.4796C141.215 38.4796 145.577 35.1548 145.577 29.8233C145.587 25.8494 143.423 23.5999 140.384 22.3166Z" fill="white"/>
<path d="M157.813 10.1973C152.764 10.1973 149.044 13.6756 149.044 17.9121V18.9725H153.789V18.1797C153.789 15.8756 155.082 13.9432 157.813 13.9432C160.658 13.9432 161.837 16.1333 161.837 19.0072V29.6306C161.837 32.6927 160.434 34.7391 157.435 34.7391C154.55 34.7391 152.993 32.886 152.993 29.8981V28.0053H148.248V30.349C148.248 35.304 152.043 38.4801 157.395 38.4801C162.747 38.4801 166.622 35.0414 166.622 29.7445V18.7396C166.622 13.9036 163.056 10.1973 157.813 10.1973Z" fill="white"/>
<path d="M183.585 15.4697C182.112 15.0139 180.436 14.7711 178.611 14.7711C174.323 14.7711 171.209 16.322 171.209 20.5584V21.8071H175.651V20.5584C175.651 19.1562 176.79 18.517 179.028 18.517C180.734 18.517 182.222 18.7945 183.58 19.2157V29.3683C183.58 32.6931 182.217 34.7395 179.063 34.7395C176.178 34.7395 174.696 32.8467 174.696 30.0125V28.0057H170.025V30.4237C170.025 35.2647 173.826 38.4805 179.058 38.4805C184.485 38.4805 188.36 35.344 188.36 29.7102V10.8418H183.575V15.4697H183.585Z" fill="white"/>
<path d="M206.624 20.1017C206.624 24.1102 206.634 26.0377 206.634 29.6301C206.634 33.1481 204.505 34.7733 201.928 34.7733C199.461 34.7733 196.954 32.8062 196.954 29.1742V10.8359H192.174V29.5557C192.174 35.1152 196.158 38.4796 201.814 38.4796C207.509 38.4796 211.419 35.0409 211.419 29.6301C211.419 25.8841 211.404 23.699 211.404 20.1017H206.624Z" fill="white"/>
</svg>
