<svg width="235" height="67" viewBox="0 0 235 67" fill="none" xmlns="http://www.w3.org/2000/svg">
<path d="M37.1769 1.03435C35.8886 0.895613 34.5804 0.821289 33.2474 0.821289C31.9193 0.821289 30.6062 0.895613 29.3179 1.03435C28.4176 1.13345 27.7361 1.80732 27.7361 2.62489V10.5677C27.7361 11.4497 28.527 12.1632 29.5069 12.1632H36.9829C37.9628 12.1632 38.7536 11.4497 38.7536 10.5677V2.62489C38.7586 1.80732 38.0772 1.13345 37.1769 1.03435Z" fill="#FFCA0C"/>
<path d="M36.9886 55.4795H29.5126C28.5327 55.4795 27.7418 56.193 27.7418 57.075V65.0177C27.7418 65.8353 28.4233 66.5092 29.3236 66.6083C30.6119 66.747 31.92 66.8213 33.2531 66.8213C34.5812 66.8213 35.8943 66.747 37.1826 66.6083C38.0829 66.5092 38.7643 65.8353 38.7643 65.0177V57.075C38.7593 56.193 37.9685 55.4795 36.9886 55.4795Z" fill="#FFCA0C"/>
<path d="M64.5674 28.3311H56.594C55.7086 28.3311 54.9923 29.1189 54.9923 30.095V37.5423C54.9923 38.5184 55.7086 39.3063 56.594 39.3063H64.5674C65.3881 39.3063 66.0645 38.6274 66.164 37.7306C66.3033 36.4473 66.3779 35.1441 66.3779 33.8162C66.3779 32.4932 66.3033 31.1851 66.164 29.9018C66.0645 29.0148 65.3881 28.3311 64.5674 28.3311Z" fill="#FFCA0C"/>
<path d="M11.5063 37.5473V30.1C11.5063 29.1239 10.7901 28.336 9.90469 28.336H1.93628C1.11557 28.336 0.439097 29.0149 0.339616 29.9117C0.200343 31.195 0.125732 32.4982 0.125732 33.8261C0.125732 35.1491 0.200343 36.4572 0.339616 37.7405C0.439097 38.6374 1.11557 39.3162 1.93628 39.3162H9.90966C10.7901 39.3063 11.5063 38.5185 11.5063 37.5473Z" fill="#FFCA0C"/>
<path d="M51.768 19.8287H60.3134C61.6962 19.8287 62.5268 18.3323 61.8305 17.1481C61.3878 16.3999 60.9152 15.6666 60.4178 14.953C58.1795 11.7621 55.3891 8.98234 52.1858 6.75261C51.4695 6.25711 50.7384 5.78639 49.9823 5.3454C48.7935 4.64675 47.2914 5.47919 47.2914 6.85666V15.3693C47.2963 17.822 49.3058 19.8287 51.768 19.8287Z" fill="#FFCA0C"/>
<path d="M16.5176 5.3454C15.7665 5.78639 15.0303 6.25711 14.3141 6.75261C11.1108 8.98234 8.32036 11.7621 6.08204 14.953C5.58464 15.6666 5.11211 16.3949 4.66942 17.1481C3.96808 18.3323 4.80371 19.8287 6.1865 19.8287H14.7319C17.194 19.8287 19.2085 17.822 19.2085 15.3693V6.85666C19.2085 5.47919 17.7064 4.64675 16.5176 5.3454Z" fill="#FFCA0C"/>
<path d="M14.7298 47.8141H6.1844C4.80162 47.8141 3.97096 49.3105 4.66733 50.4947C5.11001 51.2429 5.58255 51.9762 6.07995 52.6898C8.31827 55.8807 11.1087 58.6605 14.312 60.8902C15.0282 61.3857 15.7594 61.8564 16.5155 62.2974C17.7043 62.996 19.2064 62.1636 19.2064 60.7861V52.2735C19.2064 49.8159 17.1919 47.8141 14.7298 47.8141Z" fill="#FFCA0C"/>
<path d="M60.3248 47.8141H51.7794C49.3173 47.8141 47.3028 49.8208 47.3028 52.2735V60.7861C47.3028 62.1636 48.8049 62.9911 49.9937 62.2974C50.7448 61.8564 51.481 61.3857 52.1972 60.8902C55.4005 58.6605 58.191 55.8807 60.4293 52.6898C60.9267 51.9762 61.3992 51.2479 61.8419 50.4947C62.5383 49.3055 61.7076 47.8141 60.3248 47.8141Z" fill="#FFCA0C"/>
<path d="M91.9276 11.0185C86.2722 11.0185 82.3228 14.913 82.3228 20.963V38.6621H87.068V21.2306C87.068 17.4103 88.7393 14.7644 91.9276 14.7644C95.116 14.7644 96.7873 17.4103 96.7873 21.2306V38.6621H101.572V21.0027C101.572 14.9477 97.5433 11.0185 91.9276 11.0185Z" fill="white"/>
<path d="M224.478 11.0185C218.823 11.0185 214.873 14.913 214.873 20.963V38.6621H219.619V21.2306C219.619 17.4103 221.29 14.7644 224.478 14.7644C227.666 14.7644 229.338 17.4103 229.338 21.2306V38.6621H234.123V21.0027C234.123 14.9477 230.099 11.0185 224.478 11.0185Z" fill="white"/>
<path d="M114.74 11.0185C109.845 11.0185 105.896 14.4225 105.781 17.9009H110.681C110.87 16.0477 112.844 14.7644 114.854 14.7644C117.172 14.7644 119.291 16.4639 119.291 19.754V21.4932H113.904C109.044 21.4932 104.906 24.4811 104.906 30.0405C104.906 35.4117 108.701 39.3063 114.471 39.3063C120.355 39.3063 124.076 35.4463 124.076 29.7036V19.5311C124.076 14.4175 120.166 11.0185 114.74 11.0185ZM119.291 29.8473C119.291 32.9094 118.037 35.5554 114.471 35.5554C111.472 35.5554 109.691 33.6626 109.691 30.2238C109.691 26.7455 112.158 25.2292 115.232 25.2292H119.291V29.8473Z" fill="white"/>
<path d="M140.512 23.1382V22.9846C142.412 22.6427 144.307 21.5824 144.307 19.4319C144.307 16.2905 141.795 15.2946 138.825 14.254C136.567 13.4612 134.707 12.9013 134.707 12.2473V11.6576H129.579V12.5792C129.579 15.1509 132.941 16.1864 135.597 17.0932C138.408 18.0743 139.751 18.2923 139.751 19.7689C139.751 21.0918 138.651 21.9243 137.169 21.9243H133.105V25.6306H136.373C138.84 25.6306 140.964 27.236 140.964 30.754C140.964 33.5882 139.064 35.5553 136.373 35.5553C133.981 35.5553 131.703 34.0788 131.703 30.9423V28.8265H126.918V30.9819C126.918 36.467 131.016 39.3013 136.368 39.3013C141.342 39.3013 145.705 35.9765 145.705 30.645C145.714 26.6711 143.551 24.4216 140.512 23.1382Z" fill="white"/>
<path d="M157.94 11.0185C152.892 11.0185 149.171 14.4968 149.171 18.7333V19.7937H153.916V19.0009C153.916 16.6968 155.21 14.7644 157.94 14.7644C160.785 14.7644 161.964 16.9545 161.964 19.8284V30.4518C161.964 33.5139 160.562 35.5603 157.562 35.5603C154.677 35.5603 153.12 33.7072 153.12 30.7193V28.8265H148.375V31.1702C148.375 36.1252 152.17 39.3013 157.522 39.3013C162.875 39.3013 166.749 35.8626 166.749 30.5657V19.5608C166.749 14.7248 163.183 11.0185 157.94 11.0185Z" fill="white"/>
<path d="M183.712 16.2905C182.24 15.8347 180.563 15.5919 178.738 15.5919C174.45 15.5919 171.337 17.1428 171.337 21.3792V22.6279H175.778V21.3792C175.778 19.977 176.917 19.3378 179.156 19.3378C180.862 19.3378 182.349 19.6153 183.707 20.0365V30.1891C183.707 33.5139 182.344 35.5603 179.191 35.5603C176.306 35.5603 174.823 33.6675 174.823 30.8333V28.8265H170.153V31.2446C170.153 36.0855 173.953 39.3013 179.186 39.3013C184.612 39.3013 188.487 36.1648 188.487 30.531V11.6626H183.702V16.2905H183.712Z" fill="white"/>
<path d="M206.751 20.9234C206.751 24.9319 206.761 26.8594 206.761 30.4517C206.761 33.9698 204.632 35.595 202.056 35.595C199.589 35.595 197.082 33.6279 197.082 29.9959V11.6576H192.302V30.3774C192.302 35.9369 196.286 39.3013 201.941 39.3013C207.637 39.3013 211.546 35.8625 211.546 30.4517C211.546 26.7058 211.531 24.5207 211.531 20.9234H206.751Z" fill="white"/>
<path d="M95.0431 57.2329C96.0221 57.7169 96.7261 58.5089 96.7261 59.7849C96.7261 61.5449 95.7031 62.5569 94.1741 62.5569C92.5461 62.5569 91.6331 61.3579 91.6331 59.7849C91.6331 58.3659 92.3481 57.5079 93.7451 56.9139C94.8341 56.4519 95.0211 56.1879 95.0211 55.7149C95.0211 55.3519 94.7681 55.0219 94.1741 55.0219C93.5141 55.0219 93.2391 55.3739 93.2391 55.7699C93.2391 55.9129 93.2501 56.0009 93.2611 56.0669L92.3261 56.3089C92.2491 56.1439 92.2051 55.9679 92.2051 55.7589C92.2051 54.8349 93.1181 54.2519 94.1741 54.2519C95.3291 54.2519 96.0771 54.8679 96.0771 55.7479C96.0771 56.3419 95.8571 56.8149 95.0431 57.2329ZM94.1741 61.7429C95.1641 61.7429 95.6371 61.0389 95.6371 59.7849C95.6371 58.6409 95.1971 57.9919 94.4271 57.5079C93.1071 58.0579 92.7001 58.6849 92.7001 59.7849C92.7001 61.0829 93.2501 61.7429 94.1741 61.7429Z" fill="white"/>
<path d="M100.266 54.3839C100.266 55.6379 102.136 56.4189 102.136 58.2229C102.136 59.5319 101.135 60.3349 99.8485 60.3349C98.3195 60.3349 97.5825 59.3339 97.5825 58.3219C97.5825 57.8819 97.7035 57.4859 97.8905 57.1449L98.7485 57.3759C98.6605 57.6399 98.6055 57.9479 98.6055 58.2889C98.6055 59.0259 99.0675 59.5209 99.8485 59.5209C100.706 59.5209 101.069 58.9379 101.069 58.2009C101.069 56.6609 99.2545 56.2099 99.2545 54.3839H100.266Z" fill="white"/>
<path d="M106.224 54.2519C107.676 54.2519 108.457 55.5829 108.457 57.3539C108.457 59.2239 107.511 60.3349 106.015 60.3349C104.464 60.3349 103.661 59.3229 103.65 57.4859V53.5919C103.65 52.4699 104.453 51.8979 105.498 51.8979C106.202 51.8979 106.664 52.0519 107.126 52.0519C107.335 52.0519 107.577 52.0189 107.94 51.8979L108.05 52.6239C107.709 52.7779 107.412 52.8219 107.137 52.8219C106.477 52.8219 106.136 52.6899 105.553 52.6899C104.981 52.6899 104.662 53.0089 104.662 53.6579V54.9889C105.047 54.5819 105.542 54.2519 106.224 54.2519ZM106.015 59.5209C106.928 59.5209 107.368 58.8389 107.368 57.3539C107.368 55.7809 106.862 55.0659 106.048 55.0659C105.454 55.0659 105.025 55.3739 104.662 55.8359V57.3539C104.662 58.8279 105.102 59.5209 106.015 59.5209Z" fill="white"/>
<path d="M112.185 54.2519C113.439 54.2519 114.374 55.0879 114.374 56.4299V60.1369C114.374 61.5339 113.549 62.5569 112.108 62.5569C110.502 62.5569 109.809 61.4679 109.809 60.3569C109.809 59.8069 109.974 59.3009 110.172 58.9049L111.041 59.1359C110.92 59.4879 110.832 59.8729 110.832 60.3569C110.832 61.1819 111.272 61.7429 112.108 61.7429C113.032 61.7429 113.362 61.0059 113.362 60.0159V56.4959C113.362 55.6929 113.043 55.0659 112.185 55.0659C111.316 55.0659 110.997 55.6489 110.997 56.2209C110.997 56.5729 111.063 56.8589 111.14 57.1009L110.227 57.2879C110.073 56.9689 109.963 56.5729 109.963 56.2099C109.963 55.0329 110.953 54.2519 112.185 54.2519Z" fill="white"/>
<path d="M118.59 54.6039C119.998 54.6039 120.746 55.8689 120.746 57.4089C120.746 59.1359 119.932 60.3349 118.304 60.3349C116.72 60.3349 115.939 59.2679 115.939 57.6839V53.4709C115.939 52.3489 116.753 51.8979 117.49 51.8979C117.974 51.8979 118.623 52.0409 118.865 52.8109C119.041 52.0409 119.569 51.8979 120.009 51.8979C120.427 51.8979 120.724 52.0079 120.999 52.1729L120.691 52.8879C120.427 52.7559 120.24 52.7119 120.009 52.7119C119.591 52.7119 119.371 52.9869 119.371 53.5479V53.9769L118.403 53.9109V53.4379C118.403 52.9209 118.073 52.6899 117.677 52.6899C117.215 52.6899 116.951 52.9539 116.951 53.5369V55.3409C117.336 54.9339 117.864 54.6039 118.59 54.6039ZM118.304 59.5209C119.239 59.5209 119.657 58.7509 119.657 57.4089C119.657 56.0669 119.195 55.4179 118.425 55.4179C117.787 55.4179 117.325 55.7259 116.951 56.1989V57.6179C116.951 58.7619 117.369 59.5209 118.304 59.5209Z" fill="white"/>
<path d="M125.64 54.3839H126.652V60.2469C126.652 61.4789 125.849 62.5569 124.386 62.5569C122.835 62.5569 122.087 61.5889 122.087 60.5659C122.087 60.1479 122.186 59.8179 122.373 59.4769L123.231 59.7079C123.154 59.9499 123.11 60.2249 123.11 60.5219C123.11 61.2589 123.572 61.7429 124.386 61.7429C125.332 61.7429 125.64 60.9399 125.64 60.1809V58.1789C125.266 58.5749 124.815 58.8059 124.144 58.8059C123.077 58.8059 122.12 58.0139 122.12 56.4959C122.12 55.5829 122.373 54.9229 122.637 54.3839H123.605C123.407 54.8679 123.165 55.6049 123.165 56.4629C123.165 57.3429 123.495 57.9919 124.331 57.9919C124.881 57.9919 125.299 57.7499 125.64 57.3319V54.3839Z" fill="white"/>
<path d="M131.411 57.9039C132.247 58.0469 133.061 58.7399 133.061 60.1369C133.061 61.4679 132.159 62.5569 130.608 62.5569C128.969 62.5569 128.232 61.5449 128.232 60.4229C128.232 59.9389 128.364 59.5649 128.562 59.1909L129.42 59.4219C129.332 59.6969 129.255 60.0049 129.255 60.4009C129.255 61.2039 129.706 61.7429 130.608 61.7429C131.642 61.7429 131.994 60.9729 131.994 60.0159C131.994 59.1249 131.576 58.3659 130.586 58.3659H130.124L130.19 57.5519H130.608C131.224 57.5519 131.796 57.1339 131.796 56.2759C131.796 55.6049 131.411 55.0659 130.575 55.0659C129.739 55.0659 129.343 55.5829 129.343 56.2209C129.343 56.4629 129.387 56.6829 129.442 56.9029L128.529 57.0679C128.397 56.7819 128.32 56.4629 128.32 56.1549C128.32 55.0549 129.266 54.2519 130.575 54.2519C131.917 54.2519 132.841 55.1099 132.841 56.2099C132.841 57.1559 132.236 57.7059 131.411 57.9039Z" fill="white"/>
<path d="M136.58 54.2519C137.834 54.2519 138.769 55.0879 138.769 56.4299V60.1369C138.769 61.5339 137.944 62.5569 136.503 62.5569C134.897 62.5569 134.204 61.4679 134.204 60.3569C134.204 59.8069 134.369 59.3009 134.567 58.9049L135.436 59.1359C135.315 59.4879 135.227 59.8729 135.227 60.3569C135.227 61.1819 135.667 61.7429 136.503 61.7429C137.427 61.7429 137.757 61.0059 137.757 60.0159V56.4959C137.757 55.6929 137.438 55.0659 136.58 55.0659C135.711 55.0659 135.392 55.6489 135.392 56.2209C135.392 56.5729 135.458 56.8589 135.535 57.1009L134.622 57.2879C134.468 56.9689 134.358 56.5729 134.358 56.2099C134.358 55.0329 135.348 54.2519 136.58 54.2519Z" fill="white"/>
<path d="M143.461 57.5409V52.0519L144.473 51.8979V57.4639C144.473 58.7839 144.836 59.5429 145.848 59.5429C146.739 59.5429 147.179 58.8499 147.179 57.8379C147.179 56.2099 145.936 55.8249 145.936 54.3839H146.948C146.948 55.5059 148.224 55.9239 148.224 57.8379C148.224 59.1909 147.454 60.3349 145.837 60.3349C144.297 60.3349 143.461 59.3889 143.461 57.5409Z" fill="white"/>
<path d="M149.536 56.9799C149.536 55.3849 150.416 54.2519 151.901 54.2519C153.386 54.2519 154.244 55.3299 154.244 56.9799C154.244 58.3329 153.892 59.3779 153.551 60.1809H152.55C152.968 59.0699 153.221 58.0579 153.221 56.9799C153.221 55.6599 152.693 55.0659 151.901 55.0659C151.098 55.0659 150.559 55.6599 150.559 56.9799C150.559 58.0579 150.812 59.0699 151.23 60.1809H150.229C149.888 59.3779 149.536 58.3329 149.536 56.9799Z" fill="white"/>
<path d="M158.729 62.5569C156.243 62.5569 155.605 60.4229 155.605 58.3879C155.605 56.7489 155.935 55.5829 156.507 54.3839H157.53C156.958 55.7369 156.661 56.7819 156.661 58.3549C156.661 60.2249 157.145 61.7429 158.729 61.7429C159.675 61.7429 160.291 61.1159 160.291 60.0709C160.291 59.1579 159.807 58.4759 158.773 58.4759H158.19L158.256 57.6619H158.938C159.73 57.6619 160.115 57.2549 160.115 56.6719C160.115 55.5499 158.663 55.7149 158.663 54.3839H159.675C159.675 55.1539 161.127 55.3629 161.127 56.6279C161.127 57.4749 160.566 57.8709 159.763 58.0689C160.588 58.1789 161.347 58.8829 161.347 60.1149C161.347 61.5669 160.192 62.5569 158.729 62.5569Z" fill="white"/>
<path d="M163.323 60.1809C162.982 59.3559 162.652 58.3549 162.652 57.0129C162.652 55.0109 163.565 54.2519 164.621 54.2519C165.523 54.2519 166.029 54.6479 166.227 55.5389C166.37 54.6589 166.942 54.2519 167.734 54.2519C168.845 54.2519 169.78 55.0659 169.78 57.0129C169.78 58.3549 169.428 59.3779 169.098 60.1809H168.086C168.548 58.9489 168.757 58.0689 168.757 57.0239C168.757 55.4179 168.185 55.0659 167.624 55.0659C167.063 55.0659 166.7 55.4179 166.7 56.3749V58.2889L165.732 58.3989V56.3749C165.732 55.2749 165.314 55.0659 164.775 55.0659C164.06 55.0659 163.675 55.6379 163.675 57.0019C163.675 58.0689 163.862 58.9489 164.324 60.1809H163.323Z" fill="white"/>
<path d="M174.273 62.5569C171.787 62.5569 171.149 60.4229 171.149 58.3879C171.149 56.7489 171.479 55.5829 172.051 54.3839H173.074C172.502 55.7369 172.205 56.7819 172.205 58.3549C172.205 60.2249 172.689 61.7429 174.273 61.7429C175.219 61.7429 175.835 61.1159 175.835 60.0709C175.835 59.1579 175.351 58.4759 174.317 58.4759H173.734L173.8 57.6619H174.482C175.274 57.6619 175.659 57.2549 175.659 56.6719C175.659 55.5499 174.207 55.7149 174.207 54.3839H175.219C175.219 55.1539 176.671 55.3629 176.671 56.6279C176.671 57.4749 176.11 57.8709 175.307 58.0689C176.132 58.1789 176.891 58.8829 176.891 60.1149C176.891 61.5669 175.736 62.5569 174.273 62.5569Z" fill="white"/>
<path d="M181.045 54.2519C182.475 54.2519 183.212 55.5279 183.212 57.2439C183.212 59.1689 182.343 60.3349 180.77 60.3349C179.307 60.3349 178.405 59.3779 178.405 57.5079V52.0519L179.417 51.8979V54.9889C179.802 54.5819 180.33 54.2519 181.045 54.2519ZM180.77 59.5209C181.683 59.5209 182.123 58.7839 182.123 57.2439C182.123 55.7259 181.661 55.0659 180.869 55.0659C180.275 55.0659 179.791 55.3739 179.417 55.8469V57.4199C179.417 58.8939 179.857 59.5209 180.77 59.5209Z" fill="white"/>
<path d="M192.42 54.2519C193.487 54.2519 194.455 55.0659 194.455 56.7929C194.455 57.9809 194.268 58.7729 193.971 59.4329L193.091 59.2019C193.322 58.4319 193.432 57.7719 193.432 56.8039C193.432 55.4179 192.882 55.0659 192.343 55.0659C191.826 55.0659 191.419 55.4179 191.419 56.2429V58.3109L190.451 58.3989V56.2429C190.451 55.4179 190.055 55.0659 189.516 55.0659C188.977 55.0659 188.57 55.4179 188.57 56.2429V58.2889L187.602 58.3989V56.2429C187.602 55.4179 187.217 55.0659 186.667 55.0659C185.974 55.0659 185.589 55.7149 185.589 56.9359C185.589 59.3009 187.415 59.8949 188.768 60.3459C189.648 60.6429 191.067 61.1159 191.705 62.0179L191.067 62.5569C190.187 61.5779 189.351 61.3029 188.449 61.3029C187.635 61.3029 186.986 61.5559 186.348 61.9299L186.051 61.0169C186.612 60.7639 187.085 60.6649 187.811 60.6649C186.117 60.3019 184.577 59.2349 184.577 56.9029C184.577 55.0109 185.512 54.2519 186.557 54.2519C187.36 54.2519 187.899 54.6479 188.097 55.4839C188.24 54.6589 188.746 54.2519 189.494 54.2519C190.319 54.2519 190.748 54.6479 190.946 55.4839C191.089 54.6589 191.65 54.2519 192.42 54.2519Z" fill="white"/>
<path d="M195.824 56.9799C195.824 55.3849 196.704 54.2519 198.189 54.2519C199.674 54.2519 200.532 55.3299 200.532 56.9799C200.532 58.3329 200.18 59.3779 199.839 60.1809H198.838C199.256 59.0699 199.509 58.0579 199.509 56.9799C199.509 55.6599 198.981 55.0659 198.189 55.0659C197.386 55.0659 196.847 55.6599 196.847 56.9799C196.847 58.0579 197.1 59.0699 197.518 60.1809H196.517C196.176 59.3779 195.824 58.3329 195.824 56.9799Z" fill="white"/>
<path d="M202.103 57.5409V52.0519L203.115 51.8979V57.4639C203.115 58.7839 203.478 59.5429 204.49 59.5429C205.381 59.5429 205.821 58.8499 205.821 57.8379C205.821 56.2099 204.577 55.8249 204.577 54.3839H205.59C205.59 55.5059 206.866 55.9239 206.866 57.8379C206.866 59.1909 206.096 60.3349 204.479 60.3349C202.939 60.3349 202.103 59.3889 202.103 57.5409Z" fill="white"/>
<path d="M213.821 54.2519C215.13 54.2519 215.966 55.1759 215.966 57.0129C215.966 58.3549 215.614 59.3779 215.284 60.1809H214.272C214.734 58.9489 214.943 58.0689 214.943 57.0239C214.943 55.5279 214.437 55.0659 213.733 55.0659C213.293 55.0659 212.908 55.2199 212.556 55.5719C212.754 56.0339 212.864 56.6059 212.864 57.2769C212.864 59.1249 211.995 60.3129 210.521 60.3129C209.036 60.3129 208.178 59.1799 208.178 57.2879C208.178 55.4399 209.047 54.2519 210.532 54.2519C211.236 54.2519 211.786 54.5049 212.182 54.9669C212.611 54.5049 213.172 54.2519 213.821 54.2519ZM210.521 59.4989C211.324 59.4989 211.797 58.7949 211.797 57.2769C211.797 55.7699 211.324 55.0659 210.532 55.0659C209.729 55.0659 209.245 55.7699 209.245 57.2879C209.245 58.7949 209.718 59.4989 210.521 59.4989Z" fill="white"/>
<path d="M220.399 57.9039C221.235 58.0469 222.049 58.7399 222.049 60.1369C222.049 61.4679 221.147 62.5569 219.596 62.5569C217.957 62.5569 217.22 61.5449 217.22 60.4229C217.22 59.9389 217.352 59.5649 217.55 59.1909L218.408 59.4219C218.32 59.6969 218.243 60.0049 218.243 60.4009C218.243 61.2039 218.694 61.7429 219.596 61.7429C220.63 61.7429 220.982 60.9729 220.982 60.0159C220.982 59.1249 220.564 58.3659 219.574 58.3659H219.112L219.178 57.5519H219.596C220.212 57.5519 220.784 57.1339 220.784 56.2759C220.784 55.6049 220.399 55.0659 219.563 55.0659C218.727 55.0659 218.331 55.5829 218.331 56.2209C218.331 56.4629 218.375 56.6829 218.43 56.9029L217.517 57.0679C217.385 56.7819 217.308 56.4629 217.308 56.1549C217.308 55.0549 218.254 54.2519 219.563 54.2519C220.905 54.2519 221.829 55.1099 221.829 56.2099C221.829 57.1559 221.224 57.7059 220.399 57.9039Z" fill="white"/>
<path d="M223.303 56.9799C223.303 55.3849 224.183 54.2519 225.668 54.2519C227.153 54.2519 228.011 55.3299 228.011 56.9799C228.011 58.3329 227.659 59.3779 227.318 60.1809H226.317C226.735 59.0699 226.988 58.0579 226.988 56.9799C226.988 55.6599 226.46 55.0659 225.668 55.0659C224.865 55.0659 224.326 55.6599 224.326 56.9799C224.326 58.0579 224.579 59.0699 224.997 60.1809H223.996C223.655 59.3779 223.303 58.3329 223.303 56.9799Z" fill="white"/>
<path d="M229.581 57.5409V52.0519L230.593 51.8979V57.4639C230.593 58.7839 230.956 59.5429 231.968 59.5429C232.859 59.5429 233.299 58.8499 233.299 57.8379C233.299 56.2099 232.056 55.8249 232.056 54.3839H233.068C233.068 55.5059 234.344 55.9239 234.344 57.8379C234.344 59.1909 233.574 60.3349 231.957 60.3349C230.417 60.3349 229.581 59.3889 229.581 57.5409Z" fill="white"/>
</svg>
