<svg width="248" height="80" viewBox="0 0 248 80" fill="none" xmlns="http://www.w3.org/2000/svg">
<g clip-path="url(#clip0_2754_78436)">
<path d="M132.954 57.3083H159.193V53.8236H137.452V42.6732H153.782V39.1473H137.452V28.8743H159.193V25.4023H132.954V57.3083Z" fill="#3D3D3D"/>
<path d="M146.59 20.2441L143.037 24.5833L154.189 20.2441H146.59Z" fill="#3D3D3D"/>
<path d="M203.242 53.8236V25.4023H199.141V57.3083H225.667V53.8236H203.242Z" fill="#3D3D3D"/>
<path d="M176.195 25.4023L161.274 57.3083H166.318L170.135 49.0501H188.031L191.881 57.3083H196.872L181.939 25.4023H176.195ZM172.024 45.0508L179.055 29.8111L186.169 45.0508H172.024Z" fill="#3D3D3D"/>
<path d="M118.716 43.9667C125.439 42.0163 126.092 36.5776 126.058 34.6333C125.657 28.9334 122.124 25.4023 115.778 25.4023H97.2819V57.3083H101.498V43.9242H113.539L122.398 57.3083H127.712C127.712 57.3083 121.337 48.3006 118.716 43.9667ZM115.202 40.1543H101.498V29.1788H115.679C118.944 29.1788 120.781 30.8361 121.443 32.9412C121.88 34.3843 121.6 36.2786 120.876 37.5683C119.69 39.7006 117.439 40.1543 115.202 40.1543Z" fill="#3D3D3D"/>
<path d="M71.9436 20C60.0414 20 51.9292 29.124 51.9292 40.1672C51.9292 51.7929 60.8904 60 71.9436 60C82.9894 60 91.947 51.9101 91.947 40.1672C91.947 29.124 83.7343 20 71.9436 20ZM71.8007 56.0395C63.5662 56.0395 56.7815 48.8449 56.7815 40.178C56.7815 31.5229 63.246 23.9838 72.1199 23.9838C80.7741 23.9838 87.1356 31.5229 87.1356 40.178C87.1356 48.8446 80.0316 56.0395 71.8007 56.0395Z" fill="#3D3D3D"/>
<path d="M41.3101 36.6895H44.3524L49.8747 25.4023H45.4309L41.3101 36.6895Z" fill="#3D3D3D"/>
<path d="M26.4368 53.8236V25.4023H22.3333V57.3083H48.8578V53.8236H26.4368Z" fill="#3D3D3D"/>
</g>
<defs>
<clipPath id="clip0_2754_78436">
<rect width="203.333" height="40" fill="white" transform="translate(22.3333 20)"/>
</clipPath>
</defs>
</svg>
