<svg width="28" height="36" viewBox="0 0 28 36" fill="none" xmlns="http://www.w3.org/2000/svg">
<path d="M14 0.460938C10.3545 0.465073 6.85958 1.91506 4.28185 4.49279C1.70412 7.07052 0.254136 10.5655 0.25 14.2109C0.25 25.9766 12.75 34.8625 13.2828 35.2344C13.493 35.3816 13.7434 35.4606 14 35.4606C14.2566 35.4606 14.507 35.3816 14.7172 35.2344C15.25 34.8625 27.75 25.9766 27.75 14.2109C27.7459 10.5655 26.2959 7.07052 23.7182 4.49279C21.1404 1.91506 17.6455 0.465073 14 0.460938ZM14 9.21094C14.9889 9.21094 15.9556 9.50418 16.7779 10.0536C17.6001 10.603 18.241 11.3839 18.6194 12.2975C18.9978 13.2112 19.0969 14.2165 18.9039 15.1864C18.711 16.1563 18.2348 17.0472 17.5355 17.7465C16.8363 18.4457 15.9454 18.9219 14.9755 19.1149C14.0055 19.3078 13.0002 19.2088 12.0866 18.8303C11.173 18.4519 10.3921 17.811 9.84265 16.9888C9.29325 16.1665 9 15.1998 9 14.2109C9 12.8849 9.52678 11.6131 10.4645 10.6754C11.4021 9.73772 12.6739 9.21094 14 9.21094Z" fill="#8255E3"/>
</svg>
