<svg width="32" height="32" viewBox="0 0 32 32" fill="none" xmlns="http://www.w3.org/2000/svg">
<path d="M22.53 13.4709C22.6705 13.6116 22.7493 13.8022 22.7493 14.0009C22.7493 14.1997 22.6705 14.3903 22.53 14.5309L18.53 18.5309C18.3894 18.6714 18.1988 18.7503 18 18.7503C17.8012 18.7503 17.6106 18.6714 17.47 18.5309L14 15.0622L10.53 18.5309C10.3878 18.6634 10.1998 18.7355 10.0055 18.7321C9.81118 18.7287 9.62579 18.65 9.48838 18.5126C9.35097 18.3751 9.27225 18.1898 9.26882 17.9955C9.2654 17.8012 9.33752 17.6131 9.47 17.4709L13.47 13.4709C13.6106 13.3305 13.8012 13.2516 14 13.2516C14.1988 13.2516 14.3894 13.3305 14.53 13.4709L18 16.9397L21.47 13.4709C21.6106 13.3305 21.8012 13.2516 22 13.2516C22.1988 13.2516 22.3894 13.3305 22.53 13.4709ZM28.75 16.0009C28.7505 18.2112 28.1763 20.3836 27.084 22.3051C25.9916 24.2265 24.4184 25.831 22.5189 26.9611C20.6194 28.0912 18.4587 28.708 16.2489 28.7512C14.039 28.7943 11.8559 28.2623 9.91375 27.2072L5.555 28.6597C5.24666 28.7625 4.91577 28.7774 4.59942 28.7028C4.28307 28.6281 3.99377 28.4668 3.76393 28.237C3.53409 28.0072 3.37281 27.7179 3.29815 27.4015C3.2235 27.0852 3.23842 26.7543 3.34125 26.4459L4.79375 22.0872C3.86783 20.381 3.34374 18.4858 3.26146 16.5463C3.17918 14.6068 3.54087 12.674 4.31895 10.8955C5.09703 9.117 6.27097 7.53964 7.75123 6.2837C9.2315 5.02777 10.979 4.12644 12.8605 3.64843C14.742 3.17042 16.7078 3.12836 18.6081 3.52545C20.5083 3.92255 22.2927 4.74831 23.8254 5.93978C25.358 7.13125 26.5983 8.65696 27.4518 10.4006C28.3052 12.1442 28.7492 14.0597 28.75 16.0009ZM27.25 16.0009C27.2496 14.2752 26.8522 12.5727 26.0885 11.0251C25.3248 9.47758 24.2153 8.12646 22.8459 7.07631C21.4764 6.02617 19.8838 5.30515 18.1911 4.96904C16.4984 4.63293 14.7511 4.69075 13.0843 5.13801C11.4175 5.58527 9.87601 6.40999 8.57899 7.54837C7.28197 8.68674 6.26423 10.1082 5.6045 11.7029C4.94478 13.2976 4.66076 15.0226 4.77443 16.7446C4.88809 18.4666 5.39639 20.1393 6.26 21.6334C6.31334 21.7254 6.3465 21.8278 6.35728 21.9336C6.36805 22.0394 6.3562 22.1463 6.3225 22.2472L4.765 26.9197C4.75031 26.9637 4.74818 27.011 4.75884 27.0562C4.76951 27.1014 4.79255 27.1427 4.82538 27.1755C4.85822 27.2084 4.89955 27.2314 4.94474 27.2421C4.98993 27.2528 5.0372 27.2506 5.08125 27.2359L9.75 25.6784C9.82667 25.6532 9.9068 25.6402 9.9875 25.6397C10.1192 25.6404 10.2484 25.6753 10.3625 25.7409C12.0728 26.7313 14.0139 27.2537 15.9903 27.2554C17.9667 27.2571 19.9086 26.7381 21.6207 25.7507C23.3327 24.7632 24.7544 23.3422 25.7426 21.6306C26.7309 19.919 27.2508 17.9773 27.25 16.0009Z" fill="white"/>
</svg>
