<svg width="16" height="16" viewBox="0 0 16 16" fill="none" xmlns="http://www.w3.org/2000/svg">
<path d="M12.8386 9.44183C12.2392 9.80621 11.5507 9.99784 10.8493 9.99558C10.2616 9.99092 9.68056 9.87072 9.13926 9.64183C8.72208 10.2308 8.49881 10.9351 8.50051 11.6568V13.5C8.50066 13.5685 8.48672 13.6363 8.45954 13.6993C8.43237 13.7622 8.39255 13.8189 8.34255 13.8658C8.29256 13.9126 8.23346 13.9488 8.16892 13.9718C8.10438 13.9949 8.03578 14.0045 7.96739 14C7.83887 13.9888 7.71933 13.9294 7.63274 13.8338C7.54616 13.7382 7.49892 13.6133 7.50051 13.4843V12.7068L5.08676 10.2931C4.72795 10.4269 4.34847 10.497 3.96551 10.5C3.43831 10.5013 2.92097 10.357 2.47051 10.0831C1.10864 9.25558 0.375512 7.35121 0.517387 4.98683C0.52453 4.86451 0.576341 4.74907 0.662983 4.66243C0.749625 4.57579 0.865065 4.52398 0.987386 4.51683C3.35176 4.37746 5.25614 5.10808 6.08114 6.46996C6.40527 7.00376 6.54678 7.62859 6.48426 8.24996C6.48037 8.2981 6.46263 8.34409 6.43316 8.38236C6.40369 8.42063 6.36377 8.44954 6.31822 8.46561C6.27267 8.48167 6.22345 8.4842 6.17649 8.47288C6.12954 8.46156 6.08686 8.43688 6.05364 8.40183L4.85364 7.14558C4.75911 7.05577 4.63323 7.00644 4.50285 7.00811C4.37247 7.00978 4.2479 7.06232 4.1557 7.15452C4.0635 7.24672 4.01096 7.37129 4.00929 7.50167C4.00762 7.63205 4.05695 7.75793 4.14676 7.85246L7.51426 11.3056C7.51801 11.2568 7.52239 11.2081 7.52739 11.16C7.63673 10.2329 8.04579 9.36695 8.69239 8.69371L11.8543 5.35246C11.9481 5.25872 12.0008 5.13155 12.0009 4.99893C12.0009 4.8663 11.9483 4.73909 11.8546 4.64527C11.7608 4.55145 11.6337 4.49871 11.501 4.49865C11.3684 4.49859 11.2412 4.55122 11.1474 4.64496L8.08489 7.88371C8.05423 7.91618 8.01544 7.93984 7.97254 7.95225C7.92965 7.96465 7.88421 7.96534 7.84096 7.95424C7.7977 7.94314 7.75821 7.92065 7.72659 7.88913C7.69497 7.8576 7.67237 7.81818 7.66114 7.77496C7.36489 6.68246 7.49551 5.59496 8.06114 4.66121C9.17739 2.81871 11.7749 1.83246 15.0099 2.02246C15.1322 2.0296 15.2476 2.08141 15.3343 2.16805C15.4209 2.2547 15.4727 2.37014 15.4799 2.49246C15.6674 5.72808 14.6811 8.32558 12.8386 9.44183Z" fill="white"/>
</svg>
