<svg width="7" height="14" viewBox="0 0 7 14" fill="none" xmlns="http://www.w3.org/2000/svg">
<path d="M6.77292 7.39779L1.14792 13.0228C1.09565 13.0751 1.03361 13.1165 0.965326 13.1448C0.897042 13.1731 0.823856 13.1876 0.749947 13.1876C0.676037 13.1876 0.602851 13.1731 0.534567 13.1448C0.466284 13.1165 0.40424 13.0751 0.351978 13.0228C0.299716 12.9705 0.258259 12.9085 0.229975 12.8402C0.201691 12.7719 0.187134 12.6987 0.187134 12.6248C0.187134 12.5509 0.201691 12.4777 0.229975 12.4094C0.258259 12.3412 0.299716 12.2791 0.351978 12.2269L5.57971 6.99982L0.351978 1.77279C0.24643 1.66725 0.187134 1.52409 0.187134 1.37482C0.187134 1.22556 0.24643 1.0824 0.351978 0.976856C0.457525 0.871308 0.600679 0.812012 0.749947 0.812012C0.899214 0.812012 1.04237 0.871308 1.14792 0.976856L6.77292 6.60186C6.82522 6.6541 6.8667 6.71613 6.89501 6.78442C6.92332 6.85271 6.93789 6.9259 6.93789 6.99982C6.93789 7.07375 6.92332 7.14694 6.89501 7.21523C6.8667 7.28351 6.82522 7.34555 6.77292 7.39779Z" fill="#474D66"/>
</svg>
