<svg width="18" height="19" viewBox="0 0 18 19" fill="none" xmlns="http://www.w3.org/2000/svg">
<path d="M15.5855 9.89828L10.523 14.9608C10.4174 15.0663 10.2743 15.1256 10.125 15.1256C9.97573 15.1256 9.83258 15.0663 9.72703 14.9608C9.62148 14.8552 9.56219 14.7121 9.56219 14.5628C9.56219 14.4135 9.62148 14.2704 9.72703 14.1648L13.8298 10.0628H2.8125C2.66332 10.0628 2.52024 10.0036 2.41475 9.89806C2.30926 9.79257 2.25 9.6495 2.25 9.50031C2.25 9.35113 2.30926 9.20805 2.41475 9.10257C2.52024 8.99708 2.66332 8.93781 2.8125 8.93781H13.8298L9.72703 4.83578C9.62148 4.73023 9.56219 4.58708 9.56219 4.43781C9.56219 4.28855 9.62148 4.14539 9.72703 4.03984C9.83258 3.9343 9.97573 3.875 10.125 3.875C10.2743 3.875 10.4174 3.9343 10.523 4.03984L15.5855 9.10234C15.6378 9.15458 15.6793 9.21662 15.7076 9.28491C15.7359 9.3532 15.7504 9.42639 15.7504 9.50031C15.7504 9.57423 15.7359 9.64743 15.7076 9.71572C15.6793 9.784 15.6378 9.84604 15.5855 9.89828Z" fill="#8255E3"/>
</svg>
