<svg width="40" height="40" viewBox="0 0 40 40" fill="none" xmlns="http://www.w3.org/2000/svg">
<rect width="40" height="40" rx="8" fill="white"/>
<path d="M27.9421 27.058L24.0304 23.1471C25.1642 21.7859 25.7295 20.04 25.6089 18.2726C25.4882 16.5052 24.6908 14.8524 23.3825 13.658C22.0743 12.4635 20.3559 11.8194 18.5849 11.8597C16.8138 11.8999 15.1265 12.6214 13.8738 13.8741C12.6212 15.1267 11.8997 16.8141 11.8594 18.5851C11.8192 20.3561 12.4633 22.0745 13.6577 23.3828C14.8522 24.691 16.505 25.4884 18.2724 25.6091C20.0398 25.7298 21.7856 25.1644 23.1468 24.0306L27.0577 27.9424C27.1158 28.0004 27.1848 28.0465 27.2606 28.0779C27.3365 28.1094 27.4178 28.1255 27.4999 28.1255C27.5821 28.1255 27.6634 28.1094 27.7392 28.0779C27.8151 28.0465 27.8841 28.0004 27.9421 27.9424C28.0002 27.8843 28.0463 27.8154 28.0777 27.7395C28.1091 27.6636 28.1253 27.5823 28.1253 27.5002C28.1253 27.4181 28.1091 27.3367 28.0777 27.2609C28.0463 27.185 28.0002 27.1161 27.9421 27.058ZM13.1249 18.7502C13.1249 17.6377 13.4548 16.5501 14.0729 15.6251C14.691 14.7001 15.5695 13.9791 16.5973 13.5534C17.6252 13.1276 18.7562 13.0162 19.8473 13.2333C20.9385 13.4503 21.9407 13.986 22.7274 14.7727C23.5141 15.5594 24.0498 16.5617 24.2669 17.6528C24.4839 18.7439 24.3725 19.8749 23.9468 20.9028C23.521 21.9306 22.8 22.8091 21.875 23.4272C20.95 24.0453 19.8625 24.3752 18.7499 24.3752C17.2586 24.3735 15.8288 23.7804 14.7743 22.7258C13.7198 21.6713 13.1266 20.2415 13.1249 18.7502Z" fill="#474D66"/>
</svg>
