<svg width="148" height="49" viewBox="0 0 148 49" fill="none" xmlns="http://www.w3.org/2000/svg">
<path d="M79.4297 21.5453V38.7378H80.8494H82.269V21.5453V4.35291H80.8494H79.4297V21.5453Z" fill="#020202"/>
<path d="M96.7651 9.0034C96.1901 9.23592 95.8281 9.78551 95.8281 10.4408C95.8281 11.8007 97.4465 12.463 98.4048 11.4977C98.7313 11.1736 98.8378 10.9129 98.8378 10.4478C98.8378 9.78551 98.5113 9.2782 97.9434 9.03863C97.6524 8.92589 97.0206 8.90475 96.7651 9.0034Z" fill="#020202"/>
<path d="M35.9456 16.4369C34.3627 16.7752 33.2625 17.8109 32.8153 19.3681C32.7088 19.7627 32.6875 20.115 32.6875 22.1443C32.6875 24.7865 32.7159 25.0332 33.1773 25.9421C33.3405 26.2662 34.2775 27.6191 35.3423 29.0776C37.9403 32.6359 38.0184 32.7698 38.2313 33.8196C38.3236 34.2847 38.3378 34.7145 38.3094 36.3633C38.2881 37.4554 38.2526 38.4348 38.2242 38.5405L38.1745 38.7378H39.6226H41.0777L41.1274 38.3644C41.1984 37.7302 41.1771 33.2489 41.0919 32.7557C40.9571 31.9595 40.5667 31.3112 38.3307 28.1757C36.1373 25.0966 35.6901 24.3708 35.5552 23.6239C35.4559 23.0743 35.5126 19.9177 35.6262 19.5513C35.8179 18.9665 36.3006 18.6424 36.982 18.6424C37.6492 18.6424 38.0467 18.889 38.3094 19.4668C38.4159 19.7134 38.4372 20.0163 38.4585 21.9117L38.4868 24.0819H39.7929H41.099V21.7708C41.099 19.2201 41.0564 18.889 40.666 18.1562C40.2117 17.3177 39.2819 16.6483 38.2668 16.4369C37.6492 16.3101 36.5348 16.3101 35.9456 16.4369Z" fill="#020202"/>
<path d="M51.3167 16.4369C49.2937 16.8597 48.236 18.0928 47.9805 20.3123C47.8811 21.2001 47.9166 38.0825 48.0231 38.4559L48.0941 38.7026L49.5634 38.7237C50.3726 38.7307 51.0328 38.7307 51.0328 38.7237C51.0328 38.7096 50.976 38.5405 50.9121 38.3503C50.7985 38.0261 50.7843 37.3286 50.763 29.5779C50.7489 24.244 50.7701 20.9464 50.8127 20.58C50.976 19.2554 51.5581 18.6424 52.6583 18.6424C53.2546 18.6424 53.6663 18.8044 53.9786 19.1638C54.511 19.7838 54.4755 19.0651 54.4968 28.9437C54.511 34.6863 54.4897 37.8993 54.44 38.1036C54.4045 38.2798 54.3548 38.4912 54.3264 38.5757L54.2838 38.7378H55.739C57.0522 38.7378 57.2012 38.7237 57.2509 38.611C57.2864 38.5475 57.3219 34.4045 57.3361 29.4017C57.3574 19.2131 57.3716 19.6429 56.8463 18.5226C56.3778 17.522 55.5189 16.8315 54.3335 16.5074C53.7515 16.3453 51.9414 16.3031 51.3167 16.4369Z" fill="#020202"/>
<path d="M67.3078 16.4651C65.7106 16.8597 64.582 18.0294 64.2768 19.6077C64.1277 20.3687 64.1277 24.1454 64.2697 24.8359C64.4826 25.8153 64.5962 25.9985 67.1729 29.5286C69.061 32.1215 69.5579 32.9318 69.707 33.6364C69.7638 33.8901 69.778 34.8202 69.7638 36.3774L69.7425 38.7378L71.1622 38.7237L72.5818 38.7026V35.5671V32.4315L72.4115 32.044C72.163 31.4874 71.872 31.0505 69.7638 28.0982C67.6982 25.1882 67.2794 24.5329 67.1161 23.9058C66.9883 23.4126 66.967 20.2418 67.0877 19.7134C67.2439 19.0229 67.7124 18.6494 68.4222 18.6494C68.9333 18.6424 69.1036 18.6917 69.3947 18.9101C69.8632 19.2554 69.8774 19.3681 69.9199 21.8272L69.9554 24.0467H71.2686H72.5818L72.6031 21.8483C72.6173 20.1432 72.596 19.5302 72.5179 19.1567C72.1346 17.3459 70.7008 16.3242 68.5784 16.3383C68.1099 16.3383 67.6272 16.3876 67.3078 16.4651Z" fill="#020202"/>
<path d="M110.897 16.4651C110.656 16.5356 110.279 16.6976 110.059 16.8315C109.676 17.057 108.917 17.7898 108.661 18.1632C108.548 18.3323 108.54 18.3042 108.54 17.4727L108.533 16.6131H107.185H105.836V27.6754V38.7378H107.256H108.675V29.8386C108.675 19.9388 108.654 20.4532 109.158 19.7134C109.676 18.9524 110.698 18.6846 111.5 19.0933C111.905 19.2976 112.239 19.7979 112.359 20.3898C112.416 20.6787 112.437 23.3069 112.437 29.7681V38.7378L113.843 38.7237L115.241 38.7026L115.263 29.4017C115.277 23.3632 115.255 19.8613 115.206 19.4104C115.057 17.9589 114.34 16.9513 113.169 16.5285C112.594 16.3172 111.493 16.289 110.897 16.4651Z" fill="#020202"/>
<path d="M86.2631 18.5649C85.823 19.6429 84.9073 21.9047 84.2259 23.5887L82.9766 26.6467V27.4782V28.3096L84.2969 32.2765C85.028 34.4538 85.8088 36.7931 86.0288 37.4695L86.4335 38.7026L87.9312 38.7237L89.429 38.7378L89.3012 38.3714C89.2302 38.1671 88.6978 36.6662 88.1229 35.0386C86.9019 31.5719 86.8026 31.2901 85.9934 28.986L85.3829 27.2315L87.7112 21.9822C88.9889 19.1004 90.0536 16.7117 90.0607 16.6765C90.0749 16.6413 89.4077 16.6131 88.5701 16.6131H87.051L86.2631 18.5649Z" fill="#020202"/>
<path d="M95.9648 27.6754V38.7378H97.3845H98.8042V27.6754V16.6131H97.3845H95.9648V27.6754Z" fill="#020202"/>
<path d="M32.6523 36.0391C32.6523 37.3497 32.6736 38.4912 32.6949 38.5757C32.7375 38.7378 32.7446 38.7378 34.1927 38.7378H35.6478L35.5982 38.5757C35.5698 38.4912 35.5272 37.3497 35.513 36.0391L35.4775 33.6646H34.0649H32.6523V36.0391Z" fill="#020202"/>
<path d="M64.1822 36.1801L64.2035 38.7026L65.687 38.7238C67.0783 38.7379 67.1635 38.7308 67.1067 38.6181C67.0712 38.5476 67.0357 37.4062 67.0215 36.0745L67.0002 33.6647H65.5805H64.168L64.1822 36.1801Z" fill="#020202"/>
<path d="M42.9433 41.1758C42.3045 41.4506 41.8786 42.1905 41.9851 42.8669C42.0915 43.5997 42.773 44.1704 43.5183 44.1704C44.2139 44.1704 44.7037 43.8674 44.9806 43.2615C45.2148 42.7682 45.1793 42.2539 44.8812 41.7818C44.505 41.1688 43.6035 40.894 42.9433 41.1758ZM44.0933 41.5986C44.5334 41.8241 44.7818 42.4089 44.6469 42.9092C44.5334 43.3108 44.4127 43.4799 44.072 43.6631C43.3479 44.0718 42.4464 43.5151 42.4464 42.6696C42.4464 41.7184 43.2699 41.1829 44.0933 41.5986Z" fill="#020202"/>
<path d="M56.2519 41.1334C55.677 41.3096 55.2227 41.9578 55.2227 42.599C55.2227 44.3112 57.4586 44.7904 58.2395 43.2543C58.424 42.8879 58.3672 42.1551 58.1117 41.7746C57.8136 41.3307 57.4231 41.1053 56.8979 41.0841C56.6636 41.0771 56.3726 41.0982 56.2519 41.1334ZM57.4018 41.6337C57.6645 41.7958 57.92 42.2749 57.92 42.6202C57.92 42.9372 57.6574 43.4446 57.4018 43.6278C57.2528 43.7405 57.0895 43.7757 56.7843 43.7757C56.2803 43.7757 56.039 43.6278 55.8118 43.1768C55.6131 42.7893 55.606 42.4651 55.7905 42.0776C56.0958 41.4576 56.7985 41.2673 57.4018 41.6337Z" fill="#020202"/>
<path d="M90.041 41.1334C89.466 41.3096 89.0117 41.9578 89.0117 42.599C89.0117 44.0716 90.7934 44.741 91.7588 43.6418C92.3834 42.9443 92.2202 41.8239 91.4181 41.2955C91.0986 41.0841 90.4456 41.0066 90.041 41.1334ZM91.1909 41.6337C91.4535 41.7957 91.7091 42.2749 91.7091 42.6201C91.7091 42.9372 91.4464 43.4445 91.1909 43.6277C91.0418 43.7405 90.8786 43.7757 90.5734 43.7757C90.0694 43.7757 89.828 43.6277 89.6009 43.1768C89.4021 42.7892 89.395 42.4651 89.5796 42.0776C89.8848 41.4575 90.5876 41.2673 91.1909 41.6337Z" fill="#020202"/>
<path d="M96.8574 41.1334C96.2824 41.3096 95.8281 41.9578 95.8281 42.599C95.8281 44.0716 97.6098 44.741 98.5752 43.6418C99.1998 42.9443 99.0366 41.8239 98.2345 41.2955C97.915 41.0841 97.262 41.0066 96.8574 41.1334ZM98.0073 41.6337C98.27 41.7957 98.5255 42.2749 98.5255 42.6201C98.5255 42.9372 98.2629 43.4445 98.0073 43.6277C97.8583 43.7405 97.695 43.7757 97.3898 43.7757C96.8858 43.7757 96.6444 43.6277 96.4173 43.1768C96.2185 42.7892 96.2114 42.4651 96.396 42.0776C96.7012 41.4575 97.404 41.2673 98.0073 41.6337Z" fill="#020202"/>
<path d="M100.973 41.197C100.412 41.4507 100.086 41.9791 100.086 42.6133C100.086 44.0366 101.811 44.7271 102.798 43.6913C103.018 43.4588 103.209 43.0501 103.209 42.7894V42.6133H102.251H101.293V42.8247V43.036H102.01H102.719L102.592 43.2545C102.038 44.1986 100.654 43.8393 100.526 42.719C100.42 41.7325 101.626 41.049 102.322 41.6973C102.443 41.81 102.556 41.8453 102.755 41.8241L103.032 41.803L102.741 41.5211C102.286 41.0631 101.548 40.9293 100.973 41.197Z" fill="#020202"/>
<path d="M106.934 41.1898C105.742 41.7605 105.742 43.4305 106.927 44.0364C107.261 44.2055 107.893 44.2267 108.255 44.0717C108.439 44.0012 108.546 43.9871 108.638 44.0435C108.709 44.0787 108.872 44.1351 109.007 44.1633C109.227 44.2196 109.241 44.2055 109.241 44.0223C109.241 43.8744 109.199 43.818 109.064 43.7828C108.851 43.7264 108.844 43.6771 109.035 43.3036C109.156 43.0711 109.177 42.9161 109.156 42.5427C109.128 41.986 108.908 41.5985 108.46 41.3025C108.077 41.0489 107.346 40.9925 106.934 41.1898ZM107.893 41.4857C108.347 41.6126 108.744 42.141 108.744 42.6131C108.744 42.8034 108.553 43.3882 108.489 43.3882C108.475 43.3882 108.248 43.2684 107.985 43.1275C107.545 42.8879 107.46 42.8668 106.991 42.8738L106.473 42.8809V42.6413C106.473 42.0424 106.998 41.4646 107.573 41.4223C107.616 41.4153 107.758 41.4505 107.893 41.4857ZM107.665 43.4234C108.049 43.5996 108.12 43.6912 107.921 43.7687C107.58 43.8955 106.757 43.5996 106.757 43.353C106.757 43.1839 107.24 43.2261 107.665 43.4234Z" fill="#020202"/>
<path d="M32.7969 42.6484V44.1633H33.5422H34.2875V43.9519V43.7406H33.7552H33.2228V42.437V41.1335H33.0098H32.7969V42.6484Z" fill="#020202"/>
<path d="M35.8466 42.3102C35.6052 42.9655 35.3426 43.6419 35.2716 43.8251L35.1367 44.1633H35.3781C35.6123 44.1633 35.6265 44.1492 35.7898 43.7053L35.953 43.2403L36.5209 43.2614L37.0817 43.2826L37.2591 43.7194C37.4224 44.1422 37.4437 44.1633 37.6637 44.1633H37.9051L37.7702 43.8251C37.6992 43.6419 37.4366 42.9655 37.1881 42.3102C36.7409 41.1406 36.7338 41.1335 36.5209 41.1335C36.3008 41.1335 36.2937 41.1406 35.8466 42.3102ZM36.7622 42.3948L36.8971 42.8246H36.5209H36.1376L36.3221 42.2891C36.528 41.6902 36.5422 41.6902 36.7622 42.3948Z" fill="#020202"/>
<path d="M38.9688 42.6484V44.1633H39.5579C40.3174 44.1563 40.7007 44.0013 40.8569 43.6208C41.006 43.2826 40.9421 42.9303 40.7007 42.6766C40.5162 42.4864 40.5162 42.4652 40.6227 42.3454C40.6936 42.2679 40.7433 42.0988 40.7433 41.9156C40.7433 41.662 40.7007 41.5704 40.502 41.3731C40.2606 41.1335 40.2535 41.1335 39.6147 41.1335H38.9688V42.6484ZM40.2252 41.669C40.4736 42.0072 40.2394 42.3313 39.7354 42.3313H39.3947V41.9015V41.4647L39.7638 41.4999C40.0051 41.5281 40.1613 41.5845 40.2252 41.669ZM40.3032 42.8669C40.4168 42.9444 40.4594 43.043 40.4594 43.2473C40.4594 43.6067 40.2748 43.7406 39.7709 43.7406H39.3947V43.2473V42.7541H39.7709C39.9909 42.7541 40.2039 42.7964 40.3032 42.8669Z" fill="#020202"/>
<path d="M46.2812 42.6414V44.1633H46.4942H46.7001L46.7213 43.4517L46.7426 42.74L47.2395 43.4376C47.7009 44.0788 47.7577 44.1281 48.0061 44.1492C48.1481 44.1633 48.2688 44.1563 48.2688 44.1351C48.2688 44.114 48.0913 43.8674 47.8784 43.5856C47.4596 43.0289 47.4312 42.9655 47.5944 42.9655C47.8429 42.9655 48.1126 42.7541 48.2262 42.4652C48.3824 42.0777 48.3185 41.6831 48.0558 41.3872C47.8571 41.1687 47.85 41.1687 47.0692 41.1476L46.2812 41.1194V42.6414ZM47.6157 41.6267C47.8074 41.7465 47.8429 41.8029 47.8429 42.0495C47.8429 42.2327 47.7932 42.3807 47.708 42.4652C47.559 42.6132 47.1827 42.7118 46.913 42.6696C46.7497 42.6484 46.7426 42.6202 46.7213 42.0636L46.7001 41.4858H47.0408C47.2537 41.4858 47.4667 41.5351 47.6157 41.6267Z" fill="#020202"/>
<path d="M50.3336 41.2885C49.6876 42.9514 49.2617 44.0788 49.2617 44.1211C49.2617 44.1492 49.3611 44.1633 49.4818 44.1492C49.6805 44.1281 49.7231 44.0858 49.8793 43.6842L50.0567 43.2473H50.6104H51.1641L51.3273 43.7053C51.4835 44.1422 51.4977 44.1633 51.7248 44.1633C51.8526 44.1633 51.9591 44.1492 51.9591 44.1351C51.9591 44.114 51.0292 41.6761 50.8588 41.2533C50.7808 41.0701 50.4117 41.0912 50.3336 41.2885ZM50.8092 42.2468C50.8943 42.5145 50.9653 42.7471 50.9653 42.7753C50.9653 42.8034 50.8092 42.8246 50.6104 42.8246C50.4187 42.8246 50.2555 42.8034 50.2555 42.7753C50.2555 42.6625 50.5678 41.7677 50.6104 41.7677C50.6317 41.7677 50.724 41.9861 50.8092 42.2468Z" fill="#020202"/>
<path d="M52.668 41.3097C52.668 41.4647 52.6964 41.4859 52.9519 41.4859H53.2358L53.25 42.8035L53.2713 44.1281L53.5056 44.1493L53.7327 44.1704V42.8317V41.4859H54.0167C54.2722 41.4859 54.3006 41.4647 54.3006 41.3097V41.1335H53.4843H52.668V41.3097Z" fill="#020202"/>
<path d="M59.4947 42.6273L59.516 44.1281L59.7502 44.1493L59.9774 44.1704V42.6555V41.1335H59.7289H59.4805L59.4947 42.6273Z" fill="#020202"/>
<path d="M61.3281 42.6484V44.1633H61.5411H61.7469L61.7682 43.4517L61.7895 42.74L62.2864 43.4376C62.7478 44.0788 62.8046 44.1281 63.053 44.1492C63.3512 44.1774 63.3724 44.1351 63.1879 43.9238C63.1169 43.8392 62.9394 43.6067 62.7904 43.4094L62.5277 43.036L62.8188 42.9232C63.5215 42.6414 63.557 41.5704 62.8827 41.2251C62.7833 41.1687 62.4284 41.1335 62.0238 41.1335H61.3281V42.6484ZM62.6626 41.6267C62.8543 41.7465 62.8898 41.8029 62.8898 42.0495C62.8898 42.2327 62.8401 42.3807 62.7549 42.4652C62.6058 42.6132 62.2296 42.7118 61.9599 42.6696C61.7966 42.6484 61.7895 42.6202 61.7682 42.0636L61.7469 41.4858H62.0876C62.3006 41.4858 62.5135 41.5351 62.6626 41.6267Z" fill="#020202"/>
<path d="M64.5195 42.6484V44.1633H65.3358H66.1521V43.9519V43.7406H65.5488H64.9454V43.2826V42.8246H65.5488H66.1521V42.6132V42.4018H65.5488H64.9454V41.9438V41.4858H65.5488C66.1451 41.4858 66.1521 41.4858 66.1521 41.3097V41.1335H65.3358H64.5195V42.6484Z" fill="#020202"/>
<path d="M68.8658 42.6274L68.8871 44.1282L69.6324 44.1211C70.6403 44.1141 71.0379 43.9238 71.3005 43.2967C71.5702 42.6555 71.3573 41.81 70.8178 41.3872C70.5481 41.1759 70.5197 41.1688 69.6963 41.1477L68.8516 41.1195L68.8658 42.6274ZM70.4629 41.6691C70.8391 41.9509 70.9456 42.1694 70.9456 42.6485C70.9456 42.9938 70.9101 43.1417 70.7965 43.2967C70.5836 43.5927 70.2286 43.7406 69.7602 43.7406H69.3484V42.6062V41.4718L69.8098 41.5C70.1222 41.5211 70.328 41.5704 70.4629 41.6691Z" fill="#020202"/>
<path d="M72.6836 42.6484V44.1633H73.4999H74.3162V43.9519V43.7406H73.7129H73.1095V43.2826V42.8246H73.7129H74.3162V42.6132V42.4018H73.7129H73.1095V41.9438V41.4858H73.7129C74.3091 41.4858 74.3162 41.4858 74.3162 41.3097V41.1335H73.4999H72.6836V42.6484Z" fill="#020202"/>
<path d="M75.5273 42.6484V44.1633H75.7403H75.9461L75.9674 43.4517L75.9887 42.74L76.4856 43.4376C76.947 44.0788 77.0038 44.1281 77.2522 44.1492C77.3942 44.1633 77.5149 44.1563 77.5149 44.1281C77.5149 44.107 77.3374 43.8533 77.1245 43.5715C76.9115 43.2896 76.7341 43.036 76.7341 43.0148C76.7341 42.9866 76.7838 42.9655 76.8405 42.9655C77.4439 42.9655 77.7917 42.0284 77.3871 41.4858C77.1671 41.1969 76.9612 41.1335 76.223 41.1335H75.5273V42.6484ZM76.8618 41.6267C77.0535 41.7465 77.089 41.8029 77.089 42.0495C77.089 42.2327 77.0393 42.3807 76.9541 42.4652C76.805 42.6132 76.4288 42.7118 76.1591 42.6696C75.9958 42.6484 75.9887 42.6202 75.9674 42.0636L75.9461 41.4858H76.2869C76.4998 41.4858 76.7128 41.5351 76.8618 41.6267Z" fill="#020202"/>
<path d="M78.7188 42.6414V44.1633H78.9317H79.1447L79.1588 42.888L79.1801 41.6126L79.5635 42.5498C80.1881 44.107 80.2165 44.1633 80.3514 44.1633C80.4862 44.1633 80.5075 44.1281 81.1393 42.5498L81.5226 41.6056L81.5439 42.8809L81.5581 44.1633H81.771H81.984V42.6414V41.1265L81.622 41.1476L81.26 41.1687L80.8766 42.12C80.6708 42.6414 80.4578 43.1487 80.4153 43.2403C80.3514 43.4024 80.3017 43.3108 79.8971 42.2891L79.4499 41.1687L79.0808 41.1476L78.7188 41.1265V42.6414Z" fill="#020202"/>
<path d="M83.6677 42.5991C83.3695 43.4024 83.1211 44.0858 83.1211 44.114C83.1211 44.1492 83.2205 44.1633 83.3411 44.1492C83.5399 44.1281 83.5825 44.0858 83.7245 43.7053L83.8806 43.2826L84.4414 43.2614L85.0093 43.2403L85.1725 43.7053C85.3358 44.1492 85.3429 44.1633 85.5842 44.1633C85.7901 44.1633 85.8256 44.1422 85.783 44.0365C85.7617 43.9731 85.4919 43.2896 85.2009 42.5216L84.6614 41.1335H84.4414H84.2213L83.6677 42.5991ZM84.6472 42.2609C84.7182 42.4723 84.7892 42.6907 84.8105 42.733C84.8318 42.8034 84.7324 42.8246 84.4485 42.8246H84.051L84.2355 42.2891C84.3349 41.9931 84.4414 41.7818 84.4698 41.817C84.4982 41.8452 84.5834 42.0495 84.6472 42.2609Z" fill="#020202"/>
<path d="M86.5273 41.3097C86.5273 41.4647 86.5557 41.4859 86.8113 41.4859H87.0952V42.8317V44.1704L87.3295 44.1493L87.5566 44.1281L87.5779 42.8035L87.5921 41.4859H87.876C88.1316 41.4859 88.16 41.4647 88.16 41.3097V41.1335H87.3437H86.5273V41.3097Z" fill="#020202"/>
<path d="M93.4141 42.6484V44.1633H94.1594H94.9047V43.9519V43.7406H94.3723H93.84V42.437V41.1335H93.627H93.4141V42.6484Z" fill="#020202"/>
<path d="M104.344 42.6484V44.1633H104.557H104.77V42.6484V41.1335H104.557H104.344V42.6484Z" fill="#020202"/>
<path d="M110.317 42.3101C110.346 43.6277 110.396 43.7968 110.779 44.0293C111.091 44.2196 111.631 44.2266 111.95 44.0434C112.369 43.8038 112.433 43.5713 112.433 42.2748V41.1334H112.227H112.014L111.993 42.303L111.971 43.4727L111.773 43.6418C111.51 43.8602 111.198 43.8602 110.978 43.6347C110.8 43.4656 110.8 43.4445 110.8 42.296V41.1334H110.545H110.289L110.317 42.3101Z" fill="#020202"/>
<path d="M113.715 42.6484V44.1633H114.531H115.347V43.9519V43.7406H114.744H114.141V43.2826V42.8246H114.744H115.347V42.6132V42.4018H114.744H114.141V41.9438V41.4858H114.744C115.34 41.4858 115.347 41.4858 115.347 41.3097V41.1335H114.531H113.715V42.6484Z" fill="#020202"/>
</svg>
