<svg width="32" height="32" viewBox="0 0 32 32" fill="none" xmlns="http://www.w3.org/2000/svg">
<path d="M0.5 6C0.5 2.96243 2.96243 0.5 6 0.5H26C29.0376 0.5 31.5 2.96243 31.5 6V26C31.5 29.0376 29.0376 31.5 26 31.5H6C2.96243 31.5 0.5 29.0376 0.5 26V6Z" fill="#FFD000"/>
<path d="M0.5 6C0.5 2.96243 2.96243 0.5 6 0.5H26C29.0376 0.5 31.5 2.96243 31.5 6V26C31.5 29.0376 29.0376 31.5 26 31.5H6C2.96243 31.5 0.5 29.0376 0.5 26V6Z" stroke="#FFDE4D"/>
<path d="M2 6C2 3.79086 3.79086 2 6 2H26C28.2091 2 30 3.79086 30 6V26C30 28.2091 28.2091 30 26 30H6C3.79086 30 2 28.2091 2 26V6Z" fill="#091E42" fill-opacity="0.06"/>
<path d="M22.9999 15.9997C23.0015 16.2048 22.9392 16.4052 22.8215 16.5733C22.7039 16.7413 22.5369 16.8685 22.3437 16.9372L18.3787 18.379L16.9374 22.3434C16.8664 22.5348 16.7385 22.6999 16.5709 22.8164C16.4033 22.933 16.2041 22.9954 15.9999 22.9954C15.7958 22.9954 15.5965 22.933 15.4289 22.8164C15.2614 22.6999 15.1335 22.5348 15.0624 22.3434L13.6205 18.3747L9.65617 16.9372C9.46479 16.8661 9.29974 16.7382 9.18318 16.5706C9.06662 16.4031 9.00415 16.2038 9.00415 15.9997C9.00415 15.7955 9.06662 15.5963 9.18318 15.4287C9.29974 15.2611 9.46479 15.1332 9.65617 15.0622L13.6249 13.6203L15.0624 9.65592C15.1335 9.46454 15.2614 9.29949 15.4289 9.18294C15.5965 9.06638 15.7958 9.00391 15.9999 9.00391C16.2041 9.00391 16.4033 9.06638 16.5709 9.18294C16.7385 9.29949 16.8664 9.46454 16.9374 9.65592L18.3793 13.6247L22.3437 15.0622C22.5369 15.1309 22.7039 15.2581 22.8215 15.4261C22.9392 15.5941 23.0015 15.7946 22.9999 15.9997Z" fill="white"/>
</svg>
