<svg width="148" height="49" viewBox="0 0 148 49" fill="none" xmlns="http://www.w3.org/2000/svg">
<path d="M34.1203 10.2965H21.8945V12.3639H26.4533V25.5536H29.6029V12.3639H34.1203V10.2965Z" fill="#E8397F"/>
<path d="M45.3106 17.9109C45.145 24.148 42.4926 24.073 41.3322 24.2138H41.1526C39.9922 24.073 37.3398 24.148 37.174 17.9109C37.0083 11.674 41.1526 11.7439 41.1526 11.7439H41.3322C41.3322 11.7439 45.4765 11.674 45.3106 17.9109ZM48.6262 17.9253C48.6676 9.55255 41.3322 9.81428 41.3322 9.81428H41.1556C41.1556 9.81428 33.8201 9.55255 33.8615 17.9253C33.8615 17.9253 33.53 25.7607 41.1556 26.0087H41.3322C48.9577 25.7607 48.6262 17.9253 48.6262 17.9253Z" fill="#E8397F"/>
<path d="M66.3216 10.2965H63.1719V25.5536H66.3216V10.2965Z" fill="#E8397F"/>
<path d="M53.7684 18.1065V12.2198C54.8783 11.9545 58.0908 11.4995 58.2029 15.0797C58.3089 18.4739 55.1425 18.3283 53.7684 18.1065ZM61.4354 15.1341C61.3526 9.84171 56.5037 10.2965 56.5037 10.2965H53.7684H50.6602V25.5536H53.7684V19.5891C55.8109 20.3607 61.5079 19.7693 61.4354 15.1341Z" fill="#E8397F"/>
<path d="M86.6708 18.1065V12.2198C87.7808 11.9545 90.9933 11.4995 91.1054 15.0797C91.2114 18.4739 88.045 18.3283 86.6708 18.1065ZM91.5564 19.2848C93.1107 18.6193 94.3723 17.3309 94.338 15.1341C94.2549 9.84171 89.4062 10.2965 89.4062 10.2965H86.6708H83.5625V25.5536H86.6708V19.5891C87.0911 19.7478 87.6664 19.8488 88.314 19.8687L92.1 25.5536H95.7056L91.5564 19.2848Z" fill="#E8397F"/>
<path d="M80.7834 13.8937C80.7834 13.8937 79.706 11.7437 76.6806 11.785C73.6553 11.8265 71.7488 14.2658 71.8731 17.9251C71.9975 21.5843 73.0335 24.0238 76.9293 24.0238C76.9293 24.0238 79.2915 24.0651 80.9907 22.0391L81.9024 22.742C81.9024 22.742 79.5698 27.0008 74.0845 25.5537C68.5991 24.1065 68.4747 19.4884 68.5163 17.9107C68.5577 16.3332 69.0135 9.96568 76.3905 10.0071C76.3905 10.0071 79.9961 10.0071 81.6953 12.9842L80.7834 13.8937Z" fill="#E8397F"/>
<path d="M106.645 16.4574H99.268C99.268 16.4574 100.056 11.5784 103.495 11.8266C106.935 12.0745 106.645 16.4574 106.645 16.4574ZM106.479 10.8341C102.832 9.09751 100.097 10.8341 99.0609 11.3716C98.0248 11.9092 95.9526 14.3901 95.9112 17.6978C95.8698 21.0056 97.0716 23.2382 99.0609 24.5614C101.05 25.8845 103.247 25.9258 105.609 25.5538C107.971 25.1816 109.38 22.8247 109.38 22.8247L108.386 21.9979C108.386 21.9979 106.645 24.7682 103.164 23.9825C99.6826 23.1969 99.351 20.1604 99.3096 18.2055H108.759C108.759 18.2055 109.712 18.2767 109.712 17.0775C109.712 17.0775 110.126 12.5708 106.479 10.8341Z" fill="#E8397F"/>
<path d="M110.746 25.7559L111.948 10.5034H114.186L118.537 19.145L122.972 10.5034H125.085L126.246 25.7559H123.138L122.599 15.7959L119.194 22.2801C119.045 22.5641 118.75 22.7422 118.429 22.7422H117.77C117.451 22.7422 117.159 22.5674 117.008 22.2874L113.564 15.8785L113.108 25.7559H110.746Z" fill="#E8397F"/>
<path d="M21.5888 32.3047C21.5888 32.3047 27.301 36.3838 53.0481 34.0688C78.7951 31.7536 97.5805 29.5485 126.753 30.6511C126.753 30.6511 127.482 30.5948 127.482 31.1736C127.482 31.1736 127.69 31.6283 126.696 31.587C126.696 31.587 112.595 30.9817 75.7977 35.9429C75.7977 35.9429 50.1612 39.4097 41.7629 38.6133C33.3648 37.8172 30.4306 38.2582 20.6886 33.2969C20.6886 33.2969 20.2643 33.0763 20.6886 32.5252C21.1128 31.974 21.5888 32.3047 21.5888 32.3047Z" fill="#E8397F"/>
</svg>
