<svg width="248" height="80" viewBox="0 0 248 80" fill="none" xmlns="http://www.w3.org/2000/svg">
<path fill-rule="evenodd" clip-rule="evenodd" d="M46.1775 17.1246H52.3578L64.0772 43.2986L75.3707 17.1246H80.6973L65.5688 49.896H61.7329L46.1775 17.1246ZM86.2373 49.896H91.5647V17.1246H86.2373V49.896ZM163.799 50.1074H158.472V35.2117H139.721V50.1074H134.181V17.3377H139.721V31.1686H158.472V17.3377H163.799V50.1074ZM168.273 16.9115H174.88L185.959 32.4458L196.401 17.1246H202.155L188.73 36.702V49.896H182.976V36.702L168.273 16.9115ZM128.428 21.3808V17.3377C125.232 16.4868 121.609 16.0605 118.839 16.0605C110.103 16.0605 101.579 19.6781 97.9576 27.7642C95.8266 32.0204 96.6786 38.4038 99.4491 42.4477C106.481 51.3846 119.266 51.5978 129.493 48.8303V45.0004C129.067 45.0004 129.067 45.0004 128.853 45.2135C121.396 47.7662 112.873 49.0434 105.628 41.382C102.858 37.9775 102.005 33.0836 103.283 28.8274C105.628 22.444 111.38 19.0395 118.412 19.6773C118.412 19.6773 123.313 19.465 128.428 21.3808ZM62.1589 63.3014H63.8638V63.9392H61.3068V57.3434H62.1589V63.3014ZM74.7312 61.3856H72.6003L73.6657 58.6198L74.7312 61.3856ZM75.1573 62.0251L75.7967 63.9392H76.6488L73.6657 56.9172L70.6827 63.9392H71.5348L72.1742 62.0251H75.1573ZM84.7458 60.747H85.3852C86.2373 60.747 87.0901 60.9602 87.0901 62.0251C87.0901 63.0883 86.2381 63.3014 85.5986 63.3014H84.7466L84.7458 60.747ZM84.1071 63.9392H85.5986C86.8767 63.9392 87.9422 63.3014 87.9422 62.0251C87.9422 61.1733 87.5162 60.5356 86.6633 60.3224C87.0901 60.1093 87.3027 59.683 87.3027 59.0444C87.3027 57.7681 86.2373 57.3434 85.1718 57.3434H84.1063L84.1071 63.9392ZM84.7458 57.9812H84.9583C86.0238 57.9812 86.6624 57.9812 86.6624 59.0444C86.6624 60.1093 85.8104 60.1093 84.9583 60.1093H84.7458V57.9812ZM98.8088 57.7681C100.3 57.7681 101.366 59.0444 101.366 60.5356C101.366 62.0251 100.3 63.3014 98.8088 63.3014C97.3173 63.3014 96.0392 62.0251 96.0392 60.5356C96.0392 59.0444 97.1047 57.7681 98.8088 57.7681ZM98.8088 57.1303C96.8912 57.1303 95.1863 58.6198 95.1863 60.5356C95.1863 62.4497 96.8912 63.9392 98.8088 63.9392C100.514 63.9392 102.219 62.4497 102.219 60.5356C102.219 58.6198 100.514 57.1303 98.8088 57.1303ZM109.677 57.9812H109.89C110.742 57.9812 111.594 57.9812 111.594 59.2575C111.594 60.1093 110.742 60.3224 109.89 60.3224H109.677V57.9812ZM109.677 60.9602H109.89L111.807 63.9392H112.659L110.528 60.9602C111.594 60.747 112.233 60.1101 112.233 59.0444C112.233 57.5566 111.168 57.3434 109.889 57.3434H108.823V63.9392H109.675V60.9602H109.677ZM123.101 61.3856H120.756L122.035 58.6198L123.101 61.3856ZM123.313 62.0251L124.165 63.9392H125.018L122.035 56.9172L118.839 63.9392H119.692L120.544 62.0251H123.313ZM132.903 63.9392H132.05V57.9812H130.558V57.3434H134.394V57.9812H132.903V63.9392ZM143.771 57.7681C145.262 57.7681 146.54 59.0444 146.54 60.5356C146.54 62.0251 145.262 63.3014 143.771 63.3014C142.279 63.3014 141.213 62.0251 141.213 60.5356C141.212 59.0444 142.279 57.7681 143.771 57.7681ZM143.771 57.1303C141.852 57.1303 140.361 58.6198 140.361 60.5356C140.361 62.4497 141.852 63.9392 143.771 63.9392C145.687 63.9392 147.392 62.4497 147.392 60.5356C147.392 58.6198 145.687 57.1303 143.771 57.1303ZM154.636 57.3434H155.489V63.9392H154.636V57.3434ZM164.226 57.9812H164.439C165.504 57.9812 166.144 57.9812 166.144 59.2575C166.144 60.1093 165.291 60.3224 164.653 60.3224H164.226V57.9812ZM164.226 60.9602H164.439L166.569 63.9392H167.422L165.29 60.9602C166.357 60.747 166.995 60.1101 166.995 59.0444C166.995 57.5566 165.717 57.3434 164.439 57.3434H163.586V63.9392H164.227L164.226 60.9602ZM174.666 57.3434H178.29V57.9812H175.518V59.8961H178.076V60.5356H175.518V63.3014H178.29V63.9392H174.666V57.3434ZM188.091 58.6198C187.664 58.1935 187.452 57.7681 186.813 57.7681C186.173 57.7681 185.748 58.1943 185.748 58.8329C185.748 59.4707 186.387 59.683 186.813 59.8961L187.24 60.1093C188.091 60.5356 188.731 60.9594 188.731 62.0251C188.731 63.0883 187.878 63.9392 186.813 63.9392C185.747 63.9392 184.894 63.3014 184.681 62.2365L185.321 62.0251C185.535 62.8751 185.96 63.3014 186.813 63.3014C187.453 63.3014 188.091 62.8751 188.091 62.0251C188.091 61.1733 187.452 60.9602 186.813 60.747L186.386 60.5356C185.747 60.1093 185.108 59.8961 185.108 58.8329C185.108 57.7681 185.959 57.1303 186.813 57.1303C187.664 57.1303 188.304 57.5566 188.518 58.1935L188.091 58.6198Z" fill="black"/>
</svg>
