<svg width="16" height="16" viewBox="0 0 16 16" fill="none" xmlns="http://www.w3.org/2000/svg">
<path d="M13.3661 7.8413L6.36608 15.3413C6.29189 15.4205 6.19398 15.4734 6.0871 15.492C5.98022 15.5106 5.87019 15.494 5.77359 15.4446C5.677 15.3952 5.59909 15.3157 5.55162 15.2182C5.50415 15.1206 5.4897 15.0103 5.51045 14.9038L6.4267 10.3207L2.82483 8.96818C2.74747 8.93924 2.67849 8.8916 2.62404 8.8295C2.56959 8.7674 2.53138 8.69277 2.5128 8.6123C2.49423 8.53183 2.49589 8.448 2.51761 8.36832C2.53934 8.28864 2.58047 8.21559 2.63733 8.15568L9.63733 0.655679C9.71151 0.576514 9.80942 0.523624 9.9163 0.50499C10.0232 0.486356 10.1332 0.502989 10.2298 0.55238C10.3264 0.601771 10.4043 0.681239 10.4518 0.778793C10.4992 0.876346 10.5137 0.986692 10.493 1.09318L9.5742 5.6813L13.1761 7.03193C13.2529 7.06106 13.3213 7.10865 13.3753 7.17051C13.4293 7.23236 13.4673 7.30657 13.4858 7.38658C13.5044 7.46658 13.5029 7.54992 13.4816 7.62923C13.4603 7.70854 13.4197 7.78138 13.3636 7.8413H13.3661Z" fill="white"/>
</svg>
