<svg width="21" height="20" viewBox="0 0 21 20" fill="none" xmlns="http://www.w3.org/2000/svg">
<path d="M16.75 2.5H4.25C3.91848 2.5 3.60054 2.6317 3.36612 2.86612C3.1317 3.10054 3 3.41848 3 3.75V16.25C3 16.5815 3.1317 16.8995 3.36612 17.1339C3.60054 17.3683 3.91848 17.5 4.25 17.5H16.75C17.0815 17.5 17.3995 17.3683 17.6339 17.1339C17.8683 16.8995 18 16.5815 18 16.25V3.75C18 3.41848 17.8683 3.10054 17.6339 2.86612C17.3995 2.6317 17.0815 2.5 16.75 2.5ZM16.75 16.25H4.25V3.75H16.75V16.25ZM13.4422 7.94219L11.3836 10L13.4422 12.0578C13.5003 12.1159 13.5463 12.1848 13.5777 12.2607C13.6092 12.3366 13.6253 12.4179 13.6253 12.5C13.6253 12.5821 13.6092 12.6634 13.5777 12.7393C13.5463 12.8152 13.5003 12.8841 13.4422 12.9422C13.3841 13.0003 13.3152 13.0463 13.2393 13.0777C13.1634 13.1092 13.0821 13.1253 13 13.1253C12.9179 13.1253 12.8366 13.1092 12.7607 13.0777C12.6848 13.0463 12.6159 13.0003 12.5578 12.9422L10.5 10.8836L8.44219 12.9422C8.38412 13.0003 8.31518 13.0463 8.23931 13.0777C8.16344 13.1092 8.08212 13.1253 8 13.1253C7.91788 13.1253 7.83656 13.1092 7.76069 13.0777C7.68482 13.0463 7.61588 13.0003 7.55781 12.9422C7.49974 12.8841 7.45368 12.8152 7.42225 12.7393C7.39083 12.6634 7.37465 12.5821 7.37465 12.5C7.37465 12.4179 7.39083 12.3366 7.42225 12.2607C7.45368 12.1848 7.49974 12.1159 7.55781 12.0578L9.61641 10L7.55781 7.94219C7.44054 7.82491 7.37465 7.66585 7.37465 7.5C7.37465 7.33415 7.44054 7.17509 7.55781 7.05781C7.67509 6.94054 7.83415 6.87465 8 6.87465C8.16585 6.87465 8.32491 6.94054 8.44219 7.05781L10.5 9.11641L12.5578 7.05781C12.6159 6.99974 12.6848 6.95368 12.7607 6.92225C12.8366 6.89083 12.9179 6.87465 13 6.87465C13.0821 6.87465 13.1634 6.89083 13.2393 6.92225C13.3152 6.95368 13.3841 6.99974 13.4422 7.05781C13.5003 7.11588 13.5463 7.18482 13.5777 7.26069C13.6092 7.33656 13.6253 7.41788 13.6253 7.5C13.6253 7.58212 13.6092 7.66344 13.5777 7.73931C13.5463 7.81518 13.5003 7.88412 13.4422 7.94219Z" fill="#474D66"/>
</svg>
