<svg width="170" height="56" viewBox="0 0 170 56" fill="none" xmlns="http://www.w3.org/2000/svg">
<path d="M26.8435 4.15495C25.9102 4.05405 24.9625 4 23.9967 4C23.0345 4 22.0832 4.05405 21.1499 4.15495C20.4976 4.22703 20.0039 4.71712 20.0039 5.31171V11.0883C20.0039 11.7297 20.5769 12.2486 21.2868 12.2486H26.703C27.4129 12.2486 27.9859 11.7297 27.9859 11.0883V5.31171C27.9895 4.71712 27.4958 4.22703 26.8435 4.15495Z" fill="#FFCA0C"/>
<path d="M26.7069 43.7513H21.2907C20.5808 43.7513 20.0078 44.2703 20.0078 44.9117V50.6883C20.0078 51.2829 20.5015 51.773 21.1538 51.845C22.0871 51.9459 23.0348 52 24.0006 52C24.9628 52 25.9141 51.9459 26.8474 51.845C27.4997 51.773 27.9934 51.2829 27.9934 50.6883V44.9117C27.9898 44.2703 27.4168 43.7513 26.7069 43.7513Z" fill="#FFCA0C"/>
<path d="M46.6869 24.0072H40.9104C40.2689 24.0072 39.75 24.5802 39.75 25.2901V30.7063C39.75 31.4162 40.2689 31.9892 40.9104 31.9892H46.6869C47.2815 31.9892 47.7716 31.4955 47.8437 30.8432C47.9446 29.9099 47.9986 28.9622 47.9986 27.9964C47.9986 27.0342 47.9446 26.0829 47.8437 25.1495C47.7716 24.5045 47.2815 24.0072 46.6869 24.0072Z" fill="#FFCA0C"/>
<path d="M8.24502 30.71V25.2937C8.24502 24.5838 7.72611 24.0109 7.08467 24.0109H1.31171C0.717115 24.0109 0.227026 24.5046 0.154955 25.1568C0.054054 26.0901 0 27.0379 0 28.0037C0 28.9658 0.054054 29.9172 0.154955 30.8505C0.227026 31.5028 0.717115 31.9964 1.31171 31.9964H7.08827C7.7261 31.9892 8.24502 31.4163 8.24502 30.71Z" fill="#FFCA0C"/>
<path d="M37.4151 17.8234H38.9322H43.6061C44.6079 17.8234 45.2097 16.7351 44.7052 15.8739C44.3845 15.3297 44.0421 14.7964 43.6818 14.2775C42.0601 11.9567 40.0385 9.93513 37.7178 8.31351C37.1989 7.95315 36.6692 7.6108 36.1214 7.29008C35.2602 6.78197 34.1719 7.38738 34.1719 8.38918V13.0631V14.5802C34.1755 16.364 35.6313 17.8234 37.4151 17.8234Z" fill="#FFCA0C"/>
<path d="M11.8727 7.29008C11.3286 7.6108 10.7953 7.95315 10.2764 8.31351C7.95564 9.93513 5.93402 11.9567 4.3124 14.2775C3.95204 14.7964 3.6097 15.3261 3.28898 15.8739C2.78088 16.7351 3.38628 17.8234 4.38808 17.8234H9.06194H10.5791C12.3628 17.8234 13.8223 16.364 13.8223 14.5802V13.0631V8.38918C13.8223 7.38738 12.734 6.78197 11.8727 7.29008Z" fill="#FFCA0C"/>
<path d="M10.5814 38.1765H9.06433H4.39047C3.38867 38.1765 2.78687 39.2648 3.29137 40.1261C3.61209 40.6702 3.95443 41.2035 4.31479 41.7225C5.93641 44.0432 7.95803 46.0648 10.2787 47.6864C10.7977 48.0468 11.3274 48.3891 11.8751 48.7098C12.7364 49.2179 13.8247 48.6125 13.8247 47.6107V42.9369V41.4198C13.8247 39.6324 12.3652 38.1765 10.5814 38.1765Z" fill="#FFCA0C"/>
<path d="M43.61 38.1765H38.9361H37.419C35.6352 38.1765 34.1758 39.636 34.1758 41.4198V42.9369V47.6107C34.1758 48.6125 35.2641 49.2143 36.1253 48.7098C36.6695 48.3891 37.2028 48.0468 37.7217 47.6864C40.0424 46.0648 42.064 44.0432 43.6857 41.7225C44.046 41.2035 44.3884 40.6738 44.7091 40.1261C45.2136 39.2612 44.6118 38.1765 43.61 38.1765Z" fill="#FFCA0C"/>
<path d="M66.5132 17.7152C62.4159 17.7152 59.5547 20.5476 59.5547 24.9476V37.8197H62.9925V25.1422C62.9925 22.3639 64.2033 20.4395 66.5132 20.4395C68.8231 20.4395 70.0339 22.3639 70.0339 25.1422V37.8197H73.5006V24.9765C73.5006 20.5729 70.5817 17.7152 66.5132 17.7152Z" fill="#8255E3"/>
<path d="M162.544 17.7152C158.447 17.7152 155.586 20.5476 155.586 24.9476V37.8197H159.024V25.1422C159.024 22.3639 160.235 20.4395 162.544 20.4395C164.854 20.4395 166.065 22.3639 166.065 25.1422V37.8197H169.532V24.9765C169.532 20.5729 166.617 17.7152 162.544 17.7152Z" fill="#8255E3"/>
<path d="M83.0423 17.7152C79.4963 17.7152 76.6351 20.1909 76.5522 22.7206H80.1017C80.2387 21.3729 81.6693 20.4395 83.1252 20.4395C84.8044 20.4395 86.3396 21.6756 86.3396 24.0684V25.3332H82.4369C78.9162 25.3332 75.918 27.5062 75.918 31.5494C75.918 35.4557 78.6675 38.2882 82.8477 38.2882C87.1107 38.2882 89.8062 35.481 89.8062 31.3044V23.9062C89.8062 20.1873 86.9738 17.7152 83.0423 17.7152ZM86.3396 31.4089C86.3396 33.6359 85.4315 35.5602 82.8477 35.5602C80.6747 35.5602 79.3846 34.1837 79.3846 31.6828C79.3846 29.153 81.172 28.0503 83.399 28.0503H86.3396V31.4089Z" fill="#8255E3"/>
<path d="M101.712 26.5296V26.4179C103.088 26.1692 104.461 25.3981 104.461 23.8341C104.461 21.5494 102.642 20.8251 100.49 20.0683C98.8543 19.4918 97.5065 19.0846 97.5065 18.6089V18.1801H93.7912V18.8503C93.7912 20.7206 96.2272 21.4737 98.1516 22.1332C100.188 22.8467 101.161 23.0053 101.161 24.0791C101.161 25.0413 100.364 25.6467 99.2903 25.6467H96.3462V28.3422H98.7137C100.501 28.3422 102.04 29.5098 102.04 32.0683C102.04 34.1296 100.663 35.5602 98.7137 35.5602C96.9804 35.5602 95.3299 34.4864 95.3299 32.2053V30.6665H91.8633V32.2341C91.8633 36.2233 94.8326 38.2846 98.7101 38.2846C102.314 38.2846 105.474 35.8665 105.474 31.9891C105.481 29.099 103.914 27.4629 101.712 26.5296Z" fill="#8255E3"/>
<path d="M114.336 17.7152C110.678 17.7152 107.983 20.2449 107.983 23.326V24.0972H111.421V23.5206C111.421 21.8449 112.358 20.4395 114.336 20.4395C116.397 20.4395 117.251 22.0323 117.251 24.1224V31.8485C117.251 34.0756 116.235 35.5639 114.062 35.5639C111.972 35.5639 110.844 34.2161 110.844 32.0431V30.6666H107.406V32.3711C107.406 35.9747 110.156 38.2846 114.033 38.2846C117.911 38.2846 120.718 35.7837 120.718 31.9314V23.9278C120.718 20.4107 118.134 17.7152 114.336 17.7152Z" fill="#8255E3"/>
<path d="M133.011 21.5495C131.944 21.218 130.73 21.0414 129.407 21.0414C126.301 21.0414 124.045 22.1693 124.045 25.2504V26.1585H127.263V25.2504C127.263 24.2306 128.088 23.7657 129.71 23.7657C130.946 23.7657 132.024 23.9675 133.007 24.2738V31.6576C133.007 34.0756 132.02 35.5639 129.735 35.5639C127.645 35.5639 126.571 34.1873 126.571 32.126V30.6666H123.188V32.4251C123.188 35.9459 125.941 38.2846 129.732 38.2846C133.663 38.2846 136.47 36.0035 136.47 31.9062V18.1837H133.004V21.5495H133.011Z" fill="#8255E3"/>
<path d="M149.699 24.9188C149.699 27.8341 149.706 29.2359 149.706 31.8485C149.706 34.4071 148.164 35.5891 146.297 35.5891C144.51 35.5891 142.694 34.1584 142.694 31.517V18.1801H139.23V31.7945C139.23 35.8377 142.117 38.2846 146.214 38.2846C150.34 38.2846 153.173 35.7837 153.173 31.8485C153.173 29.1242 153.162 27.535 153.162 24.9188H149.699Z" fill="#8255E3"/>
</svg>
