<svg width="170" height="48" viewBox="0 0 170 48" fill="none" xmlns="http://www.w3.org/2000/svg">
<path d="M26.8428 0.154955C25.9095 0.0540541 24.9617 0 23.996 0C23.0338 0 22.0825 0.0540541 21.1491 0.154955C20.4969 0.227027 20.0032 0.717117 20.0032 1.31171V7.08828C20.0032 7.72973 20.5761 8.24864 21.2861 8.24864H26.7023C27.4122 8.24864 27.9851 7.72973 27.9851 7.08828V1.31171C27.9887 0.717117 27.495 0.227027 26.8428 0.154955Z" fill="#FFCA0C"/>
<path d="M26.7062 39.7515H21.29C20.5801 39.7515 20.0071 40.2704 20.0071 40.9118V46.6884C20.0071 47.283 20.5008 47.7731 21.153 47.8452C22.0864 47.9461 23.0341 48.0001 23.9999 48.0001C24.962 48.0001 25.9134 47.9461 26.8467 47.8452C27.499 47.7731 27.9926 47.283 27.9926 46.6884V40.9118C27.989 40.2704 27.4161 39.7515 26.7062 39.7515Z" fill="#FFCA0C"/>
<path d="M46.6877 20.0073H40.9111C40.2697 20.0073 39.7507 20.5803 39.7507 21.2902V26.7064C39.7507 27.4163 40.2697 27.9893 40.9111 27.9893H46.6877C47.2822 27.9893 47.7723 27.4956 47.8444 26.8434C47.9453 25.91 47.9994 24.9623 47.9994 23.9965C47.9994 23.0344 47.9453 22.083 47.8444 21.1497C47.7723 20.5046 47.2822 20.0073 46.6877 20.0073Z" fill="#FFCA0C"/>
<path d="M8.24502 26.7098V21.2936C8.24502 20.5837 7.72611 20.0107 7.08467 20.0107H1.31171C0.717115 20.0107 0.227026 20.5044 0.154955 21.1567C0.054054 22.09 0 23.0378 0 24.0035C0 24.9657 0.054054 25.917 0.154955 26.8504C0.227026 27.5026 0.717115 27.9963 1.31171 27.9963H7.08827C7.7261 27.9891 8.24502 27.4161 8.24502 26.7098Z" fill="#FFCA0C"/>
<path d="M37.4161 13.8233H38.9332H43.6071C44.6089 13.8233 45.2107 12.735 44.7062 11.8737C44.3854 11.3296 44.0431 10.7963 43.6827 10.2773C42.0611 7.95662 40.0395 5.935 37.7188 4.31338C37.1999 3.95302 36.6701 3.61068 36.1224 3.28996C35.2611 2.78185 34.1729 3.38726 34.1729 4.38906V9.06293V10.58C34.1765 12.3638 35.6323 13.8233 37.4161 13.8233Z" fill="#FFCA0C"/>
<path d="M11.874 3.28996C11.3298 3.61068 10.7965 3.95302 10.2776 4.31338C7.95686 5.935 5.93524 7.95662 4.31362 10.2773C3.95326 10.7963 3.61092 11.326 3.2902 11.8737C2.7821 12.735 3.3875 13.8233 4.3893 13.8233H9.06316H10.5803C12.3641 13.8233 13.8235 12.3638 13.8235 10.58V9.06293V4.38906C13.8235 3.38726 12.7352 2.78185 11.874 3.28996Z" fill="#FFCA0C"/>
<path d="M10.5805 34.1763H9.06335H4.38949C3.38769 34.1763 2.78589 35.2646 3.2904 36.1258C3.61112 36.67 3.95346 37.2033 4.31382 37.7222C5.93543 40.0429 7.95705 42.0646 10.2778 43.6862C10.7967 44.0465 11.3264 44.3889 11.8742 44.7096C12.7354 45.2177 13.8237 44.6123 13.8237 43.6105V38.9366V37.4195C13.8237 35.6321 12.3642 34.1763 10.5805 34.1763Z" fill="#FFCA0C"/>
<path d="M43.6102 34.1763H38.9364H37.4193C35.6355 34.1763 34.176 35.6357 34.176 37.4195V38.9366V43.6105C34.176 44.6123 35.2643 45.2141 36.1256 44.7096C36.6697 44.3889 37.203 44.0465 37.722 43.6862C40.0427 42.0646 42.0643 40.0429 43.6859 37.7222C44.0463 37.2033 44.3886 36.6736 44.7093 36.1258C45.2138 35.2609 44.612 34.1763 43.6102 34.1763Z" fill="#FFCA0C"/>
<path d="M66.512 13.7153C62.4147 13.7153 59.5535 16.5478 59.5535 20.9478V33.8198H62.9913V21.1424C62.9913 18.364 64.2021 16.4397 66.512 16.4397C68.8219 16.4397 70.0327 18.364 70.0327 21.1424V33.8198H73.4994V20.9766C73.4994 16.573 70.5805 13.7153 66.512 13.7153Z" fill="#8255E3"/>
<path d="M162.544 13.7153C158.447 13.7153 155.586 16.5478 155.586 20.9478V33.8198H159.024V21.1424C159.024 18.364 160.234 16.4397 162.544 16.4397C164.854 16.4397 166.065 18.364 166.065 21.1424V33.8198H169.532V20.9766C169.532 16.573 166.616 13.7153 162.544 13.7153Z" fill="#8255E3"/>
<path d="M83.042 13.7153C79.4961 13.7153 76.6348 16.191 76.552 18.7207H80.1015C80.2384 17.373 81.6691 16.4397 83.1249 16.4397C84.8042 16.4397 86.3393 17.6757 86.3393 20.0685V21.3333H82.4366C78.9159 21.3333 75.9177 23.5063 75.9177 27.5496C75.9177 31.4559 78.6673 34.2883 82.8474 34.2883C87.1105 34.2883 89.806 31.4811 89.806 27.3045V19.9063C89.806 16.1874 86.9735 13.7153 83.042 13.7153ZM86.3393 27.409C86.3393 29.636 85.4312 31.5604 82.8474 31.5604C80.6745 31.5604 79.3844 30.1838 79.3844 27.6829C79.3844 25.1532 81.1718 24.0505 83.3988 24.0505H86.3393V27.409Z" fill="#8255E3"/>
<path d="M101.711 22.5297V22.418C103.088 22.1694 104.461 21.3982 104.461 19.8342C104.461 17.5495 102.641 16.8252 100.49 16.0685C98.8538 15.4919 97.506 15.0847 97.506 14.609V14.1802H93.7907V14.8504C93.7907 16.7207 96.2267 17.4739 98.1511 18.1333C100.187 18.8468 101.16 19.0054 101.16 20.0793C101.16 21.0414 100.364 21.6468 99.2898 21.6468H96.3457V24.3423H98.7132C100.501 24.3423 102.039 25.5099 102.039 28.0685C102.039 30.1297 100.663 31.5603 98.7132 31.5603C96.9799 31.5603 95.3294 30.4865 95.3294 28.2054V26.6667H91.8628V28.2342C91.8628 32.2234 94.8322 34.2847 98.7096 34.2847C102.313 34.2847 105.474 31.8667 105.474 27.9892C105.481 25.0991 103.913 23.4631 101.711 22.5297Z" fill="#8255E3"/>
<path d="M114.335 13.7153C110.678 13.7153 107.982 16.2451 107.982 19.3261V20.0973H111.42V19.5207C111.42 17.8451 112.357 16.4397 114.335 16.4397C116.396 16.4397 117.251 18.0324 117.251 20.1225V27.8487C117.251 30.0757 116.234 31.564 114.061 31.564C111.971 31.564 110.843 30.2162 110.843 28.0433V26.6667H107.406V28.3712C107.406 31.9748 110.155 34.2847 114.033 34.2847C117.91 34.2847 120.717 31.7838 120.717 27.9315V19.9279C120.717 16.4108 118.133 13.7153 114.335 13.7153Z" fill="#8255E3"/>
<path d="M133.009 17.5494C131.943 17.2178 130.728 17.0413 129.406 17.0413C126.3 17.0413 124.044 18.1692 124.044 21.2503V22.1584H127.262V21.2503C127.262 20.2304 128.087 19.7656 129.709 19.7656C130.945 19.7656 132.022 19.9674 133.006 20.2737V27.6575C133.006 30.0755 132.018 31.5638 129.734 31.5638C127.644 31.5638 126.57 30.1872 126.57 28.1259V26.6665H123.186V28.425C123.186 31.9457 125.939 34.2845 129.73 34.2845C133.662 34.2845 136.469 32.0034 136.469 27.9061V14.1836H133.002V17.5494H133.009Z" fill="#8255E3"/>
<path d="M149.698 20.9189C149.698 23.8342 149.705 25.236 149.705 27.8486C149.705 30.4072 148.163 31.5892 146.296 31.5892C144.509 31.5892 142.692 30.1585 142.692 27.5171V14.1802H139.229V27.7946C139.229 31.8378 142.116 34.2847 146.213 34.2847C150.339 34.2847 153.172 31.7838 153.172 27.8486C153.172 25.1243 153.161 23.5351 153.161 20.9189H149.698Z" fill="#8255E3"/>
</svg>
